<?xml version="1.0" encoding="UTF-8"?>
<svg version="1.1" xmlns="http://www.w3.org/2000/svg" width="512" height="512">
<path d="M0 0 C5.78307332 4.21748993 9.6536426 9.48626986 11.12109375 16.546875 C12.16632303 24.94355018 11.10844391 31.61003305 6.12109375 38.546875 C2.39956201 42.58528964 -0.49564468 45.20105961 -5.87890625 46.546875 C-5.87890625 52.486875 -5.87890625 58.426875 -5.87890625 64.546875 C-3.58953125 64.65 -1.30015625 64.753125 1.05859375 64.859375 C9.89017171 65.33770965 18.45471636 66.84148638 27.12109375 68.546875 C27.1053833 67.83668213 27.08967285 67.12648926 27.07348633 66.39477539 C27.01058235 63.1330584 26.97192838 59.87146963 26.93359375 56.609375 C26.89588867 54.93391602 26.89588867 54.93391602 26.85742188 53.22460938 C26.76895896 43.16932479 28.14501297 35.72614947 35.15234375 28.2734375 C41.40948363 22.78602514 47.95530003 21.41165836 56.08203125 21.546875 C57.45442721 21.54803333 58.82682724 21.54665179 60.19921875 21.54296875 C62.34896841 21.53855146 64.49436025 21.54683361 66.64355469 21.59814453 C75.07331687 22.07459154 75.07331687 22.07459154 82.3137207 18.57983398 C83.91870313 16.22996887 83.91870313 16.22996887 85.0222168 13.76733398 C87.35286653 9.05787845 91.78626136 7.06597649 96.49609375 5.234375 C105.03799968 3.61435836 112.93069907 4.06820622 120.32421875 9.0234375 C126.79849828 14.27479757 129.94247689 19.66726074 131.05859375 27.921875 C131.47639652 35.66729567 129.82260433 41.88861549 124.87109375 47.921875 C119.26715798 53.79888391 113.21025984 56.66926079 105.05859375 56.921875 C97.27332326 56.83527577 91.72758802 54.87645381 85.984375 49.57421875 C82.9636068 46.29610315 81.09851486 43.91374945 80.12109375 39.546875 C75.55787134 39.62782602 70.99597783 39.7406679 66.43359375 39.859375 C65.14001953 39.88193359 63.84644531 39.90449219 62.51367188 39.92773438 C61.26650391 39.96318359 60.01933594 39.99863281 58.734375 40.03515625 C57.01408081 40.07443237 57.01408081 40.07443237 55.2590332 40.11450195 C51.80161069 40.5908962 49.87515106 41.42540929 47.12109375 43.546875 C46.02038615 46.8489978 45.91482303 49.48770779 45.8046875 52.96484375 C45.76279297 54.21845703 45.72089844 55.47207031 45.67773438 56.76367188 C45.61875977 58.72916992 45.61875977 58.72916992 45.55859375 60.734375 C45.51538383 62.06967478 45.47176875 63.40496152 45.42773438 64.74023438 C45.32152873 68.00900797 45.21948378 71.27785833 45.12109375 74.546875 C45.87237549 74.68552979 46.62365723 74.82418457 47.39770508 74.96704102 C71.14233357 80.02248635 94.84556308 97.22579354 112.12109375 113.546875 C113.45051323 114.67649733 114.78373093 115.80166812 116.12109375 116.921875 C136.59125303 134.9405182 150.77081844 159.63649738 161.12109375 184.546875 C161.52328125 185.48015625 161.92546875 186.4134375 162.33984375 187.375 C163.12109375 189.546875 163.12109375 189.546875 163.12109375 192.546875 C167.68431616 192.46592398 172.24620967 192.3530821 176.80859375 192.234375 C178.10216797 192.21181641 179.39574219 192.18925781 180.72851562 192.16601562 C181.97568359 192.13056641 183.22285156 192.09511719 184.5078125 192.05859375 C186.22810669 192.01931763 186.22810669 192.01931763 187.9831543 191.97924805 C191.44057681 191.5028538 193.36703644 190.66834071 196.12109375 188.546875 C197.22180135 185.2447522 197.32736447 182.60604221 197.4375 179.12890625 C197.47939453 177.87529297 197.52128906 176.62167969 197.56445312 175.33007812 C197.62342773 173.36458008 197.62342773 173.36458008 197.68359375 171.359375 C197.72680367 170.02407522 197.77041875 168.68878848 197.81445312 167.35351562 C197.92065877 164.08474203 198.02270372 160.81589167 198.12109375 157.546875 C197.33935791 157.24595947 196.55762207 156.94504395 195.75219727 156.63500977 C190.03844132 154.27199499 185.45983 149.90740448 182.62109375 144.421875 C179.74391882 136.84832484 179.80024482 128.56779957 183.12109375 121.171875 C186.91266003 114.64018519 191.76681275 110.08368796 198.93359375 107.546875 C206.26558494 105.74761336 213.16902907 106.2441929 219.93359375 109.671875 C226.491063 113.77762498 230.52557903 118.75756734 232.65234375 126.2265625 C234.24057373 134.08830092 233.25770191 141.72790428 228.83203125 148.52734375 C226.17271576 151.86215382 224.6371608 153.37044182 220.46484375 154.796875 C218.51227188 155.73916088 218.51227188 155.73916088 217.12109375 157.546875 C216.12198957 162.58675612 216.27406093 167.62144672 216.37109375 172.734375 C216.57037342 194.80076611 216.57037342 194.80076611 208.08984375 203.8203125 C202.26365144 208.92979068 195.87581261 210.68337867 188.26171875 210.64453125 C187.14667969 210.64130859 186.03164063 210.63808594 184.8828125 210.63476562 C183.72394531 210.62638672 182.56507813 210.61800781 181.37109375 210.609375 C179.60958984 210.60260742 179.60958984 210.60260742 177.8125 210.59570312 C174.91531303 210.58392594 172.01822921 210.56747826 169.12109375 210.546875 C169.32605469 211.5884375 169.53101563 212.63 169.7421875 213.703125 C171.64237103 223.69463975 172.66325839 233.38292997 173.12109375 243.546875 C179.06109375 243.546875 185.00109375 243.546875 191.12109375 243.546875 C191.78109375 241.896875 192.44109375 240.246875 193.12109375 238.546875 C197.41748033 231.99244433 202.48341277 228.31712467 210.12109375 226.546875 C218.01345365 225.59055841 224.63984225 226.51277995 231.25 230.98828125 C237.48330345 235.93589411 240.55796167 240.96673405 241.53125 248.8828125 C241.90842011 257.79950066 240.45872377 264.58807951 234.51171875 271.38671875 C228.9763747 276.57927774 223.14863104 278.67234338 215.62109375 278.921875 C206.34181863 278.6019 200.50352112 275.2227473 194.12109375 268.546875 C191.12109375 264.328125 191.12109375 264.328125 191.12109375 261.546875 C185.18109375 261.546875 179.24109375 261.546875 173.12109375 261.546875 C173.01796875 263.83625 172.91484375 266.125625 172.80859375 268.484375 C172.3302591 277.31595296 170.82648237 285.88049761 169.12109375 294.546875 C169.83128662 294.53116455 170.54147949 294.5154541 171.27319336 294.49926758 C174.53491035 294.4363636 177.79649912 294.39770963 181.05859375 294.359375 C182.73405273 294.32166992 182.73405273 294.32166992 184.44335938 294.28320312 C194.49864396 294.19474021 201.94181928 295.57079422 209.39453125 302.578125 C214.88790372 308.84206103 216.2493467 315.40884186 216.15625 323.54296875 C216.15996204 324.91992934 216.16588987 326.29688542 216.17382812 327.67382812 C216.18439177 329.83200503 216.18354945 331.98687177 216.14526367 334.14477539 C215.64866752 342.37804935 215.64866752 342.37804935 218.84570312 349.49707031 C220.89140518 350.73070205 222.91593602 351.63951447 225.12109375 352.546875 C230.66488506 358.00504791 233.09808444 364.17832023 233.43359375 371.921875 C233.18814206 379.95359968 230.60838497 386.00007543 225.06640625 391.8203125 C219.22408579 397.0056652 212.84982723 398.63101362 205.12109375 398.546875 C196.84141442 397.90152686 191.41478899 394.01860782 185.80859375 388.109375 C180.94710709 380.72711747 180.03146606 374.35819122 181.12109375 365.546875 C183.3128307 358.23093824 187.72631379 352.70411764 194.12109375 348.546875 C195.44689395 348.18473866 196.7799101 347.8470671 198.12109375 347.546875 C198.04014273 342.98365259 197.92730085 338.42175908 197.80859375 333.859375 C197.78603516 332.56580078 197.76347656 331.27222656 197.74023438 329.93945312 C197.68706055 328.06870117 197.68706055 328.06870117 197.6328125 326.16015625 C197.60662842 325.01329346 197.58044434 323.86643066 197.5534668 322.68481445 C197.07707255 319.22739194 196.24255946 317.30093231 194.12109375 314.546875 C190.81897095 313.4461674 188.18026096 313.34060428 184.703125 313.23046875 C183.44951172 313.18857422 182.19589844 313.14667969 180.90429688 313.10351562 C178.93879883 313.04454102 178.93879883 313.04454102 176.93359375 312.984375 C175.59829397 312.94116508 174.26300723 312.89755 172.92773438 312.85351562 C169.65896078 312.74730998 166.39011042 312.64526503 163.12109375 312.546875 C162.98243896 313.29815674 162.84378418 314.04943848 162.70092773 314.82348633 C157.51999178 339.15752447 139.88565716 362.90151141 123.12109375 380.546875 C121.94775652 381.91618718 120.78055409 383.29079287 119.62109375 384.671875 C102.04009974 404.6778337 77.4234638 418.44922716 53.12109375 428.546875 C52.1878125 428.9490625 51.25453125 429.35125 50.29296875 429.765625 C48.12109375 430.546875 48.12109375 430.546875 45.12109375 430.546875 C45.20204477 435.11009741 45.31488665 439.67199092 45.43359375 444.234375 C45.45615234 445.52794922 45.47871094 446.82152344 45.50195312 448.15429688 C45.55512695 450.02504883 45.55512695 450.02504883 45.609375 451.93359375 C45.64865112 453.65388794 45.64865112 453.65388794 45.6887207 455.40893555 C46.16511495 458.86635806 46.99962804 460.79281769 49.12109375 463.546875 C52.42321655 464.6475826 55.06192654 464.75314572 58.5390625 464.86328125 C59.79267578 464.90517578 61.04628906 464.94707031 62.33789062 464.99023438 C64.30338867 465.04920898 64.30338867 465.04920898 66.30859375 465.109375 C67.64389353 465.15258492 68.97918027 465.1962 70.31445312 465.24023438 C73.58322672 465.34644002 76.85207708 465.44848497 80.12109375 465.546875 C80.57246704 464.37427124 80.57246704 464.37427124 81.03295898 463.17797852 C83.39597376 457.46422257 87.76056427 452.88561125 93.24609375 450.046875 C100.47703617 447.28282875 108.79039338 447.26890267 115.99609375 450.109375 C121.74520492 453.11074921 125.77169302 457.20791374 128.99609375 462.796875 C132.03682921 472.93265987 131.34425398 480.45868346 126.43359375 489.734375 C121.19846984 496.1014176 115.2930163 499.93191895 106.96484375 500.76171875 C98.57895968 501.12070351 92.67713167 498.25245599 85.98046875 493.4375 C84.12109375 491.546875 84.12109375 491.546875 82.8359375 487.890625 C81.91009999 485.93977144 81.91009999 485.93977144 80.12109375 484.546875 C75.08150658 483.5471156 70.04635491 483.69984535 64.93359375 483.796875 C42.86720264 483.99615467 42.86720264 483.99615467 33.84765625 475.515625 C28.73817807 469.68943269 26.98459008 463.30159386 27.0234375 455.6875 C27.02666016 454.57246094 27.02988281 453.45742188 27.03320312 452.30859375 C27.04158203 451.14972656 27.04996094 449.99085938 27.05859375 448.796875 C27.06310547 447.62253906 27.06761719 446.44820313 27.07226562 445.23828125 C27.08404281 442.34109428 27.10049049 439.44401046 27.12109375 436.546875 C26.07953125 436.75183594 25.03796875 436.95679688 23.96484375 437.16796875 C13.973329 439.06815228 4.28503878 440.08903964 -5.87890625 440.546875 C-5.87890625 446.486875 -5.87890625 452.426875 -5.87890625 458.546875 C-4.22890625 459.206875 -2.57890625 459.866875 -0.87890625 460.546875 C5.19410609 464.62947734 9.33993557 469.37771333 11.12109375 476.546875 C12.14316988 484.42537848 11.34398252 491.70981699 7.12109375 498.546875 C2.11975623 504.29678582 -3.46679189 508.06741446 -11.078125 508.89453125 C-20.07983766 509.27406292 -26.844317 507.95080445 -33.71875 501.9375 C-38.85868933 496.45824927 -40.99107594 490.62298858 -41.31640625 483.171875 C-41.06547227 476.19397996 -39.48055443 470.43971683 -34.75 465.1796875 C-31.10101562 461.80122091 -28.77335104 459.7704862 -23.87890625 458.546875 C-23.87890625 452.606875 -23.87890625 446.666875 -23.87890625 440.546875 C-26.18890625 440.44375 -28.49890625 440.340625 -30.87890625 440.234375 C-39.37801053 439.7760203 -47.56402148 438.30494239 -55.87890625 436.546875 C-55.89348877 437.25706787 -55.90807129 437.96726074 -55.9230957 438.69897461 C-55.9982225 441.96128278 -56.09466758 445.22263898 -56.19140625 448.484375 C-56.22524414 450.15983398 -56.22524414 450.15983398 -56.25976562 451.86914062 C-56.58074902 461.81962596 -57.96227257 469.43082604 -64.91015625 476.8203125 C-71.17409228 482.31368497 -77.74087311 483.67512795 -85.875 483.58203125 C-87.25196059 483.58574329 -88.62891667 483.59167112 -90.00585938 483.59960938 C-92.16403628 483.61017302 -94.31890302 483.6093307 -96.47680664 483.57104492 C-104.7100806 483.07444877 -104.7100806 483.07444877 -111.82910156 486.27148438 C-113.0627333 488.31718643 -113.97154572 490.34171727 -114.87890625 492.546875 C-120.33707916 498.09066631 -126.51035148 500.52386569 -134.25390625 500.859375 C-141.57688188 500.64765632 -147.92901282 498.46055395 -153.30859375 493.40625 C-158.9871619 486.68237328 -161.40608495 478.96088256 -160.69140625 470.265625 C-159.47431848 462.86167439 -155.36404635 457.60850109 -149.87890625 452.671875 C-143.10507457 447.87374423 -135.91522031 447.78472757 -127.87890625 448.546875 C-121.30295472 450.19827937 -115.82431247 454.01674883 -111.87890625 459.546875 C-111.18536442 461.53771507 -110.51597507 463.53725121 -109.87890625 465.546875 C-105.31568384 465.46592398 -100.75379033 465.3530821 -96.19140625 465.234375 C-94.89783203 465.21181641 -93.60425781 465.18925781 -92.27148438 465.16601562 C-90.40073242 465.1128418 -90.40073242 465.1128418 -88.4921875 465.05859375 C-86.77189331 465.01931763 -86.77189331 465.01931763 -85.0168457 464.97924805 C-81.57884113 464.50552937 -79.65090423 463.60154804 -76.87890625 461.546875 C-75.45622763 458.70151775 -75.65918756 456.18468948 -75.5625 453.0078125 C-75.52060547 451.70585937 -75.47871094 450.40390625 -75.43554688 449.0625 C-75.39573326 447.68229455 -75.35602103 446.30208617 -75.31640625 444.921875 C-75.27321218 443.53384085 -75.2295976 442.14581972 -75.18554688 440.7578125 C-75.07918625 437.35427244 -74.97715911 433.95065722 -74.87890625 430.546875 C-75.50216797 430.37091797 -76.12542969 430.19496094 -76.76757812 430.01367188 C-101.38703446 422.87570687 -122.94502157 408.84109657 -141.671875 391.56640625 C-143.59372777 389.80782593 -145.55538114 388.13867725 -147.56640625 386.484375 C-151.42928131 383.17718034 -154.65150005 379.46766925 -157.87890625 375.546875 C-158.70390625 374.55945313 -159.52890625 373.57203125 -160.37890625 372.5546875 C-171.94161411 358.45748747 -192.87890625 331.80969688 -192.87890625 312.546875 C-197.44212866 312.62782602 -202.00402217 312.7406679 -206.56640625 312.859375 C-207.85998047 312.88193359 -209.15355469 312.90449219 -210.48632812 312.92773438 C-212.35708008 312.9809082 -212.35708008 312.9809082 -214.265625 313.03515625 C-215.41248779 313.06134033 -216.55935059 313.08752441 -217.7409668 313.11450195 C-221.19838931 313.5908962 -223.12484894 314.42540929 -225.87890625 316.546875 C-226.97961385 319.8489978 -227.08517697 322.48770779 -227.1953125 325.96484375 C-227.2581543 327.84526367 -227.2581543 327.84526367 -227.32226562 329.76367188 C-227.36158203 331.07400391 -227.40089844 332.38433594 -227.44140625 333.734375 C-227.48461617 335.06967478 -227.52823125 336.40496152 -227.57226562 337.74023438 C-227.67847127 341.00900797 -227.78051622 344.27785833 -227.87890625 347.546875 C-226.45505615 347.99824829 -226.45505615 347.99824829 -225.00244141 348.45874023 C-219.07971259 350.52202008 -215.2971506 355.1924786 -212.44140625 360.671875 C-209.59598941 367.89011859 -209.59598941 376.20363141 -212.44140625 383.421875 C-215.45387761 389.19224268 -219.55364527 393.23068954 -225.19140625 396.421875 C-233.6205152 398.99346756 -240.73462064 399.21978812 -248.87890625 395.546875 C-255.35148725 391.75260338 -259.44877767 387.33671574 -262.12890625 380.234375 C-263.99552313 371.056842 -262.73647761 363.75889509 -257.74609375 355.72265625 C-255.43881108 352.68957274 -253.89889709 351.55358174 -250.2578125 350.33203125 C-248.28883354 349.37359918 -248.28883354 349.37359918 -246.87890625 347.546875 C-245.8771198 342.50799695 -246.0318808 337.47191498 -246.12890625 332.359375 C-246.32818592 310.29298389 -246.32818592 310.29298389 -237.84765625 301.2734375 C-232.03108035 296.17239276 -225.59850308 294.50114632 -218.01953125 294.23046875 C-216.90449219 294.18857422 -215.78945312 294.14667969 -214.640625 294.10351562 C-213.48175781 294.06419922 -212.32289063 294.02488281 -211.12890625 293.984375 C-209.95457031 293.94119141 -208.78023437 293.89800781 -207.5703125 293.85351562 C-204.67329174 293.74752706 -201.7761869 293.64545862 -198.87890625 293.546875 C-199.08386719 292.49371094 -199.28882813 291.44054687 -199.5 290.35546875 C-201.31997517 280.71375964 -202.40302148 271.35010128 -202.87890625 261.546875 C-208.81890625 261.546875 -214.75890625 261.546875 -220.87890625 261.546875 C-221.53890625 263.196875 -222.19890625 264.846875 -222.87890625 266.546875 C-227.17529283 273.10130567 -232.24122527 276.77662533 -239.87890625 278.546875 C-247.77126615 279.50319159 -254.39765475 278.58097005 -261.0078125 274.10546875 C-267.24111595 269.15785589 -270.31577417 264.12701595 -271.2890625 256.2109375 C-271.66623261 247.29424934 -270.21653627 240.50567049 -264.26953125 233.70703125 C-258.79028052 228.56709192 -252.95501983 226.43470531 -245.50390625 226.109375 C-238.52601121 226.36030898 -232.77174808 227.94522682 -227.51171875 232.67578125 C-224.13325216 236.32476563 -222.10251745 238.65243021 -220.87890625 243.546875 C-214.93890625 243.546875 -208.99890625 243.546875 -202.87890625 243.546875 C-202.77578125 241.4225 -202.67265625 239.298125 -202.56640625 237.109375 C-202.064102 228.45728159 -200.53225323 220.04237487 -198.87890625 211.546875 C-199.58909912 211.53229248 -200.29929199 211.51770996 -201.03100586 211.50268555 C-204.29331403 211.42755875 -207.55467023 211.33111367 -210.81640625 211.234375 C-212.49186523 211.20053711 -212.49186523 211.20053711 -214.20117188 211.16601562 C-224.15165721 210.84503223 -231.76285729 209.46350868 -239.15234375 202.515625 C-244.63975611 196.25848512 -246.01412289 189.71266872 -245.87890625 181.5859375 C-245.87774792 180.21354154 -245.87912946 178.84114151 -245.8828125 177.46875 C-245.88722979 175.31900034 -245.87894764 173.1736085 -245.82763672 171.02441406 C-245.33769427 162.61490801 -245.33769427 162.61490801 -248.82617188 155.41357422 C-251.18746883 153.85625316 -251.18746883 153.85625316 -253.6875 152.65478516 C-256.6381035 151.16304733 -257.82989116 149.29475763 -259.37890625 146.421875 C-260.075 145.18050781 -260.075 145.18050781 -260.78515625 143.9140625 C-263.74908109 137.49928232 -263.71113555 130.65704642 -261.75390625 123.921875 C-259.02493349 116.66988258 -254.23182062 111.97255476 -247.36328125 108.4921875 C-240.32252571 105.81315788 -233.30818678 105.93210279 -226.234375 108.40625 C-219.40519742 111.7132481 -215.11376041 116.81837834 -211.87890625 123.546875 C-209.71982317 130.02412423 -209.86229326 137.96752616 -212.31640625 144.359375 C-214.95392813 149.47370955 -219.18140543 153.30493781 -223.87890625 156.546875 C-225.20287479 156.91565162 -226.53585494 157.25515242 -227.87890625 157.546875 C-227.79795523 162.11009741 -227.68511335 166.67199092 -227.56640625 171.234375 C-227.53256836 173.17473633 -227.53256836 173.17473633 -227.49804688 175.15429688 C-227.46259766 176.40146484 -227.42714844 177.64863281 -227.390625 178.93359375 C-227.36444092 180.08045654 -227.33825684 181.22731934 -227.3112793 182.40893555 C-226.83488505 185.86635806 -226.00037196 187.79281769 -223.87890625 190.546875 C-220.57678345 191.6475826 -217.93807346 191.75314572 -214.4609375 191.86328125 C-213.20732422 191.90517578 -211.95371094 191.94707031 -210.66210938 191.99023438 C-209.35177734 192.02955078 -208.04144531 192.06886719 -206.69140625 192.109375 C-205.35610647 192.15258492 -204.02081973 192.1962 -202.68554688 192.24023438 C-199.41677328 192.34644002 -196.14792292 192.44848497 -192.87890625 192.546875 C-192.70439941 191.92578857 -192.52989258 191.30470215 -192.35009766 190.66479492 C-190.67510627 184.87261978 -188.72371832 179.35801519 -186.25390625 173.859375 C-185.90763184 173.08754883 -185.56135742 172.31572266 -185.20458984 171.52050781 C-177.51728501 154.78385218 -167.00507532 139.50629883 -154.34375 126.1640625 C-152.3724733 124.07094778 -150.51278065 121.9555633 -148.69140625 119.734375 C-145.43518752 115.90946455 -141.75356493 112.73229151 -137.87890625 109.546875 C-136.86828125 108.71027344 -135.85765625 107.87367187 -134.81640625 107.01171875 C-120.60011342 95.43594851 -94.1678807 74.546875 -74.87890625 74.546875 C-74.94790123 70.48951281 -75.03592285 66.4330481 -75.14135742 62.37646484 C-75.17454818 60.99734833 -75.20259842 59.61809789 -75.2253418 58.23876953 C-75.25899267 56.25265194 -75.31285354 54.26690941 -75.3671875 52.28125 C-75.39337158 51.08725586 -75.41955566 49.89326172 -75.4465332 48.66308594 C-75.91113548 45.31459159 -76.49915263 43.90662479 -78.87890625 41.546875 C-82.18102905 40.4461674 -84.81973904 40.34060428 -88.296875 40.23046875 C-89.55048828 40.18857422 -90.80410156 40.14667969 -92.09570312 40.10351562 C-93.40603516 40.06419922 -94.71636719 40.02488281 -96.06640625 39.984375 C-97.40170603 39.94116508 -98.73699277 39.89755 -100.07226562 39.85351562 C-103.34103922 39.74730998 -106.60988958 39.64526503 -109.87890625 39.546875 C-110.17982178 40.4961084 -110.4807373 41.4453418 -110.79077148 42.42333984 C-112.85405133 48.34606866 -117.52450985 52.12863065 -123.00390625 54.984375 C-129.66276342 57.59346725 -136.85393992 57.76164231 -143.6875 55.69921875 C-150.6507043 52.57266583 -155.52013266 47.72833727 -159.25390625 41.109375 C-161.23190119 32.99959575 -161.54762516 25.74832715 -157.65234375 18.15625 C-153.70991041 11.78932556 -149.47484339 7.945295 -142.50390625 5.234375 C-134.86254288 3.78515091 -127.93428302 4.00045553 -120.87890625 7.546875 C-115.54853394 11.23069251 -112.70232549 14.71732138 -109.87890625 20.546875 C-108.98695557 20.56145752 -108.09500488 20.57604004 -107.17602539 20.59106445 C-103.82649235 20.65258161 -100.47771916 20.72681481 -97.12866211 20.80932617 C-95.68671055 20.84232093 -94.24463773 20.87042977 -92.80249023 20.89331055 C-81.56016612 21.07646106 -72.15238629 21.54197943 -63.60546875 29.578125 C-58.50442401 35.3947009 -56.83317757 41.82727817 -56.5625 49.40625 C-56.4996582 51.07880859 -56.4996582 51.07880859 -56.43554688 52.78515625 C-56.39623047 53.94402344 -56.35691406 55.10289063 -56.31640625 56.296875 C-56.27322266 57.47121094 -56.23003906 58.64554688 -56.18554688 59.85546875 C-56.07955831 62.75248951 -55.97748987 65.64959435 -55.87890625 68.546875 C-54.90953125 68.34191406 -53.94015625 68.13695313 -52.94140625 67.92578125 C-43.20576737 65.94363848 -33.80909002 64.99018678 -23.87890625 64.546875 C-23.87890625 58.606875 -23.87890625 52.666875 -23.87890625 46.546875 C-25.52890625 45.886875 -27.17890625 45.226875 -28.87890625 44.546875 C-35.43333692 40.25048842 -39.10865658 35.18455598 -40.87890625 27.546875 C-41.83522284 19.6545151 -40.9130013 13.0281265 -36.4375 6.41796875 C-27.49560516 -4.84757394 -12.52902997 -7.32403066 0 0 Z M-22.87890625 19.546875 C-22.87890625 23.09283058 -22.59979069 25.40863641 -20.69140625 28.421875 C-18.00287886 30.09061614 -16.04402986 30.48357253 -12.87890625 30.546875 C-9.10760507 28.53551437 -8.08718436 27.18328032 -6.75390625 23.109375 C-6.55848641 19.43526409 -6.55848641 19.43526409 -8.94140625 16.609375 C-11.71126234 14.37539847 -11.71126234 14.37539847 -14.87890625 13.921875 C-18.99179892 14.77872764 -20.47577557 16.12423433 -22.87890625 19.546875 Z M-140.87890625 25.546875 C-142.44320873 28.67547995 -142.23517909 31.10290425 -141.87890625 34.546875 C-139.29721174 37.50823046 -137.6900949 38.41443604 -133.81640625 39.046875 C-130.16585076 38.42550385 -129.04661002 37.51743202 -126.87890625 34.546875 C-125.62559608 31.28826856 -125.64610719 30.07373602 -127.06640625 26.859375 C-128.93278989 24.47812691 -130.04789985 23.52003345 -132.87890625 22.546875 C-136.4866814 22.546875 -137.94186169 23.5373182 -140.87890625 25.546875 Z M98.12109375 25.546875 C96.46249775 28.35583563 96.46249775 28.35583563 96.12109375 31.546875 C97.45235822 34.47565684 98.8541434 36.27992465 101.12109375 38.546875 C104.97616137 38.97521585 107.2490974 39.10584702 110.55859375 36.984375 C112.70989122 33.62835094 112.61056666 31.46265829 112.12109375 27.546875 C111.15005587 25.08500921 111.15005587 25.08500921 109.12109375 23.546875 C104.46547801 22.02873943 101.85367742 22.33270573 98.12109375 25.546875 Z M-48.87890625 85.546875 C-50.05042236 85.79630859 -50.05042236 85.79630859 -51.24560547 86.05078125 C-87.70603139 94.13148308 -123.40696358 114.48656965 -146.37890625 144.359375 C-146.85247559 144.97119629 -147.32604492 145.58301758 -147.81396484 146.21337891 C-149.17740073 147.98496232 -150.53050784 149.76382993 -151.87890625 151.546875 C-152.52085937 152.39378906 -153.1628125 153.24070312 -153.82421875 154.11328125 C-170.19839351 176.61825168 -180.03462432 203.10482095 -183.87890625 230.546875 C-183.97461914 231.22975586 -184.07033203 231.91263672 -184.16894531 232.61621094 C-189.7324573 276.8251933 -176.43776316 320.86696182 -149.91796875 356.15625 C-121.19161906 392.97287777 -80.01251975 416.24915451 -33.703125 422.109375 C12.69363118 426.98078787 57.52848743 412.76377492 93.6484375 383.73828125 C128.23030132 355.30483432 150.3615395 313.61259381 154.93798828 269.04785156 C158.45881572 220.95804316 144.05251069 176.66322704 112.87109375 140.046875 C86.98090818 110.22477826 52.54398272 92.30033686 14.12109375 84.546875 C12.30158203 84.175625 12.30158203 84.175625 10.4453125 83.796875 C-8.9078465 80.58250949 -29.73253116 81.459311 -48.87890625 85.546875 Z M-242.25390625 127.234375 C-244.09812432 129.85883917 -244.80059648 131.33617447 -244.87890625 134.546875 C-243.47949424 138.08656421 -242.39291145 139.27869837 -239.00390625 141.046875 C-235.86194911 141.84468056 -235.86194911 141.84468056 -233.12890625 140.296875 C-230.84272945 138.59338803 -230.84272945 138.59338803 -228.87890625 136.546875 C-228.4505654 132.69180738 -228.31993423 130.41887135 -230.44140625 127.109375 C-234.55389058 124.47316709 -238.24616185 124.38676714 -242.25390625 127.234375 Z M200.68359375 127.671875 C198.85272516 131.04067321 198.47858653 132.77214506 199.12109375 136.546875 C201.05749917 139.20046762 202.49967998 140.3078697 205.55859375 141.484375 C208.96819915 141.56753611 210.45891646 140.63344639 213.12109375 138.546875 C215.06773007 135.9808544 215.12880111 134.73570526 214.99609375 131.484375 C214.33760646 128.53659137 214.33760646 128.53659137 212.49609375 126.671875 C208.01869407 124.55100147 204.48415722 124.35856325 200.68359375 127.671875 Z M-252.87890625 249.546875 C-253.71223958 252.546875 -253.71223958 252.546875 -252.87890625 255.546875 C-250.96223958 258.63020833 -250.96223958 258.63020833 -247.87890625 260.546875 C-243.54922911 260.6987935 -241.64817867 260.21998837 -238.37890625 257.359375 C-236.64949974 254.62755298 -236.64949974 254.62755298 -236.81640625 251.484375 C-238.15125429 247.79391277 -239.51827098 246.53270493 -242.87890625 244.546875 C-247.82215572 243.43464387 -249.95540069 245.70455341 -252.87890625 249.546875 Z M208.12109375 248.546875 C206.95899156 250.94038995 206.95899156 250.94038995 207.12109375 253.546875 C208.74265004 257.03322101 209.88562667 258.38989694 213.12109375 260.546875 C218.01866764 260.37354372 218.01866764 260.37354372 222.05859375 257.859375 C223.48243325 254.7604302 223.67263202 252.92504688 223.12109375 249.546875 C220.8296295 246.53523627 219.36105557 244.82586641 215.62109375 243.984375 C212.22126568 244.74933632 210.54195123 246.05877148 208.12109375 248.546875 Z M-243.87890625 367.546875 C-245.21584967 371.24313035 -245.23211906 372.78999041 -243.56640625 376.359375 C-242.06312037 378.63603126 -242.06312037 378.63603126 -239.87890625 379.546875 C-236.04275668 379.90207403 -233.73260991 380.09412094 -230.44140625 377.984375 C-228.27494597 374.60469696 -228.31602623 372.48703513 -228.87890625 368.546875 C-230.78312456 365.86686405 -232.24137572 364.81530891 -235.25390625 363.546875 C-239.19127008 363.546875 -240.97589152 364.97374831 -243.87890625 367.546875 Z M203.37109375 364.796875 C199.88219137 367.35873645 199.88219137 367.35873645 198.74609375 371.359375 C199.21764622 375.36757103 200.08215116 376.89754044 203.12109375 379.546875 C206.81510494 380.07459088 209.11359743 380.0241101 212.49609375 378.421875 C214.77052693 375.79752902 215.05206326 373.99839938 215.12109375 370.546875 C213.73695447 366.96439687 212.66128739 365.82871516 209.24609375 364.046875 C206.10413661 363.24906944 206.10413661 363.24906944 203.37109375 364.796875 Z M-141.87890625 470.546875 C-142.52296151 474.55432994 -142.56627444 476.57946792 -140.19140625 479.921875 C-137.56694208 481.76609307 -136.08960678 482.46856523 -132.87890625 482.546875 C-129.33921704 481.14746299 -128.14708288 480.0608802 -126.37890625 476.671875 C-125.58110069 473.52991786 -125.58110069 473.52991786 -127.12890625 470.796875 C-129.6907677 467.30797262 -129.6907677 467.30797262 -133.69140625 466.171875 C-137.69960228 466.64342747 -139.22957169 467.50793241 -141.87890625 470.546875 Z M98.74609375 468.296875 C96.63881927 471.15725565 96.63881927 471.15725565 96.12109375 474.546875 C97.31212115 477.68115763 98.2822734 479.88160369 100.93359375 481.984375 C104.01978802 482.77796781 106.07772754 482.45340961 109.12109375 481.546875 C111.87915606 479.15655433 112.10265247 477.69440521 112.55859375 474.046875 C112.37849573 470.56296785 112.37849573 470.56296785 110.55859375 468.109375 C106.42998308 465.4628297 102.72387543 465.36587797 98.74609375 468.296875 Z M-20.87890625 477.546875 C-23.2241356 480.43200478 -23.2241356 480.43200478 -22.75390625 484.046875 C-22.16995963 487.50889548 -22.16995963 487.50889548 -20.19140625 489.484375 C-17.09246145 490.9082145 -15.25707813 491.09841327 -11.87890625 490.546875 C-8.79557292 488.63020833 -8.79557292 488.63020833 -6.87890625 485.546875 C-6.54797465 481.94657311 -6.54797465 481.94657311 -7.87890625 478.546875 C-10.12182037 476.0348311 -10.12182037 476.0348311 -12.87890625 474.546875 C-16.51217819 474.546875 -17.92626552 475.50273911 -20.87890625 477.546875 Z " fill="#000000" transform="translate(270.87890625,3.453125)"/>
<path d="M0 0 C2.94788491 2.61502953 5.75401121 5.3647884 8.5546875 8.13671875 C9.84246094 9.33361328 9.84246094 9.33361328 11.15625 10.5546875 C34.92774964 33.11185357 48.84777821 67.00652165 49.7578125 99.59765625 C50.02318285 119.66269732 48.28605812 140.2104153 39.48828125 158.578125 C34.61060705 168.82823076 32.67328081 177.25883837 32.76660156 188.68969727 C32.8409088 200.25718388 29.98044399 208.47981994 21.92578125 216.82421875 C15.06224787 223.19408732 6.80252627 226.29161347 -2.52734375 226.234375 C-3.45869141 226.23115234 -4.39003906 226.22792969 -5.34960938 226.22460938 C-6.30931641 226.21623047 -7.26902344 226.20785156 -8.2578125 226.19921875 C-9.23685547 226.19470703 -10.21589844 226.19019531 -11.22460938 226.18554688 C-13.63157361 226.17380559 -16.03841107 226.15738294 -18.4453125 226.13671875 C-18.42174683 227.01239502 -18.42174683 227.01239502 -18.39770508 227.90576172 C-18.33449222 230.6076447 -18.29605327 233.30937134 -18.2578125 236.01171875 C-18.23267578 236.92953125 -18.20753906 237.84734375 -18.18164062 238.79296875 C-18.06649145 249.69375702 -20.88324505 259.33418598 -28.5234375 267.3046875 C-36.70018061 274.93909561 -44.06960756 277.28043771 -55.19799805 277.29785156 C-55.9629509 277.30281647 -56.72790375 277.30778137 -57.51603699 277.31289673 C-60.03804437 277.32745892 -62.55998879 277.33431132 -65.08203125 277.33984375 C-66.84454854 277.34560121 -68.60706584 277.35135886 -70.36958313 277.3571167 C-74.06401866 277.36761058 -77.75843253 277.37346342 -81.45288086 277.37695312 C-86.16569611 277.38242666 -90.87822084 277.40643706 -95.59094524 277.43492508 C-99.23286245 277.45363625 -102.87471094 277.45876161 -106.51667213 277.460289 C-108.25285234 277.46329824 -109.98903183 277.47126772 -111.72516441 277.48447418 C-125.87452857 277.5844016 -136.57936324 276.69482255 -147.1328125 266.5078125 C-155.46803378 257.52661157 -156.61709432 247.54734257 -156.5078125 235.76171875 C-156.50330078 234.83488281 -156.49878906 233.90804688 -156.49414062 232.953125 C-156.48242824 230.68092166 -156.46602622 228.40885487 -156.4453125 226.13671875 C-157.02909668 226.1524292 -157.61288086 226.16813965 -158.21435547 226.18432617 C-160.91623845 226.24753903 -163.61796509 226.28597798 -166.3203125 226.32421875 C-167.69703125 226.36192383 -167.69703125 226.36192383 -169.1015625 226.40039062 C-180.50885905 226.52089024 -189.7879609 223.31960431 -198.19921875 215.5078125 C-204.48761609 208.71508254 -207.67042538 200.36634676 -207.4453125 191.13671875 C-207.37816814 177.8186347 -209.43543114 168.14376258 -215.15234375 156.171875 C-228.41290584 128.19657585 -227.68817665 91.694085 -218.14453125 62.69140625 C-211.11232901 43.02589892 -200.85812296 26.18145682 -186.4453125 11.13671875 C-185.64996094 10.26660156 -184.85460937 9.39648438 -184.03515625 8.5 C-136.82536977 -41.41562643 -51.79808614 -44.17353009 0 0 Z M-170.4453125 21.13671875 C-171.19554687 21.8225 -171.94578125 22.50828125 -172.71875 23.21484375 C-194.50450359 43.85397873 -205.86577002 74.26607474 -206.796875 103.90625 C-207.0184589 124.99365157 -201.22988428 144.25286645 -192.64453125 163.31640625 C-190.8633068 167.50547484 -190.32410724 170.94626218 -190.26953125 175.49609375 C-190.24568359 176.52992188 -190.22183594 177.56375 -190.19726562 178.62890625 C-190.15460987 180.78496077 -190.12319069 182.94126957 -190.10351562 185.09765625 C-189.89373539 192.96197585 -188.8674626 198.80231608 -183.0078125 204.51171875 C-178.56587043 207.32856006 -174.99160053 208.37806297 -169.734375 208.41015625 C-168.65414062 208.43078125 -167.57390625 208.45140625 -166.4609375 208.47265625 C-164.20840906 208.49860704 -161.95577867 208.5168906 -159.703125 208.52734375 C-153.07384641 208.66939972 -148.82953535 209.15804578 -143.4453125 213.13671875 C-139.96802349 216.96173667 -139.32911313 220.33429345 -139.234375 225.3984375 C-139.20601563 226.43548828 -139.17765625 227.47253906 -139.1484375 228.54101562 C-139.09682278 230.71012415 -139.05241694 232.87941756 -139.015625 235.04882812 C-138.80557549 242.13362312 -138.45962205 248.526398 -133.7265625 254.1953125 C-133.13875 254.65035156 -132.5509375 255.10539062 -131.9453125 255.57421875 C-131.06359375 256.28384766 -131.06359375 256.28384766 -130.1640625 257.0078125 C-126.37542679 259.49625732 -122.57533153 259.29080558 -118.22338867 259.29785156 C-117.49131699 259.30281647 -116.7592453 259.30778137 -116.00498962 259.31289673 C-113.58274393 259.32750308 -111.16056375 259.3343181 -108.73828125 259.33984375 C-107.05300393 259.34559685 -105.36772663 259.35135456 -103.68244934 259.3571167 C-100.14759008 259.36762261 -96.61275354 259.37346783 -93.07788086 259.37695312 C-88.55517949 259.38243433 -84.03277971 259.40645597 -79.51017284 259.43492508 C-76.0279707 259.45357817 -72.54584079 259.4587585 -69.06359291 259.460289 C-67.39667425 259.46331048 -65.72975671 259.47132195 -64.06288719 259.48447418 C-61.72683361 259.50158946 -59.39151131 259.49964128 -57.05541992 259.49316406 C-56.37104858 259.50237885 -55.68667725 259.51159363 -54.98156738 259.52108765 C-50.41071159 259.48152243 -47.32965696 258.52446695 -43.4453125 256.13671875 C-38.42813277 250.8914854 -36.21609374 246.66928842 -36.171875 239.42578125 C-36.15125 238.34554687 -36.130625 237.2653125 -36.109375 236.15234375 C-36.08342421 233.89981531 -36.06514065 231.64718492 -36.0546875 229.39453125 C-35.91345532 222.80369628 -35.66235562 218.34277525 -31.4453125 213.13671875 C-24.63966781 207.6278132 -17.08678376 208.61876128 -8.69335938 208.6484375 C-1.36870672 208.55142223 4.62848739 207.88692531 10.10693359 202.65405273 C13.8051942 198.43631491 14.66682353 195.22696592 14.73046875 189.76171875 C14.75431641 188.69308594 14.77816406 187.62445313 14.80273438 186.5234375 C14.8451049 184.29705886 14.87667393 182.07044366 14.89648438 179.84375 C15.09271105 172.20459976 16.53983414 166.13855331 19.5546875 159.13671875 C20.07624583 157.84925179 20.5971639 156.56152511 21.1171875 155.2734375 C21.5915625 154.13519531 22.0659375 152.99695313 22.5546875 151.82421875 C35.20547636 120.60907695 34.37532169 88.09549778 21.5546875 57.13671875 C16.8608725 46.95304896 10.60707306 37.82556947 3.5546875 29.13671875 C2.94753906 28.38777344 2.34039062 27.63882813 1.71484375 26.8671875 C-17.13403944 4.51352331 -46.17892857 -9.66129167 -75.06689453 -12.66479492 C-111.24543196 -15.68400565 -144.15731744 -3.69558929 -170.4453125 21.13671875 Z " fill="#000000" transform="translate(343.4453125,132.86328125)"/>
<path d="M0 0 C6.0617524 6.30070115 7.92929889 12.85408102 8.2578125 21.45703125 C7.94785791 32.9927327 3.91533907 41.8691022 -4.02734375 50.046875 C-13.14975112 58.6252024 -22.89869365 60.64990864 -35.0625 60.41796875 C-45.55578547 59.93203485 -53.8840328 54.83026766 -60.9296875 47.265625 C-67.87323342 38.67298692 -71.12070014 28.12301208 -70.1796875 17.14453125 C-68.73975436 9.26150745 -65.60614071 2.79992487 -59.36328125 -2.35546875 C-42.92021386 -13.51682359 -15.20695578 -12.94498924 0 0 Z M-50.1796875 14.14453125 C-52.64569074 17.89714488 -52.39790605 21.49852973 -51.78125 25.80078125 C-50.39447275 31.20380949 -47.56035097 35.00398317 -43.3046875 38.51953125 C-36.89399734 41.85309013 -31.17576087 43.13006125 -24.1796875 41.14453125 C-17.8008732 38.09334881 -14.08144482 34.55257866 -11.1796875 28.14453125 C-9.69961987 23.70432837 -9.5343221 19.87895077 -11.1796875 15.45703125 C-15.27471257 10.72215851 -20.31342461 9.02964485 -26.4296875 8.26953125 C-34.75736292 7.79465685 -43.81453737 8.28189298 -50.1796875 14.14453125 Z " fill="#000000" transform="translate(240.1796875,247.85546875)"/>
<path d="M0 0 C6.10634708 6.16301852 8.70605204 13.4071479 8.99609375 22.01171875 C8.74940738 32.63374362 4.79427398 42.11693149 -2.390625 49.96484375 C-11.86199296 58.89074026 -21.51382927 61.20854085 -34.1953125 60.9765625 C-44.93078698 60.48176076 -53.46592292 55.09756584 -60.56640625 47.32421875 C-67.82182345 38.35352629 -70.37280083 28.10828019 -69.31640625 16.69921875 C-67.52963803 8.37835653 -63.69795681 2.02481386 -56.7109375 -2.9140625 C-40.34183507 -12.39372214 -14.91135813 -12.30729558 0 0 Z M-49.31640625 14.69921875 C-51.93089151 18.14558568 -51.79129436 21.49306689 -51.31640625 25.69921875 C-49.1014632 32.48382587 -45.90290467 37.02587861 -39.70703125 40.63671875 C-34.12931823 43.11570232 -29.39078047 43.24745941 -23.56640625 41.51171875 C-17.82127132 39.28360555 -14.03498943 36.32582194 -11.11328125 30.7578125 C-9.03365751 25.38545117 -8.499115 20.57217787 -10.81640625 15.26171875 C-15.85457447 10.09759633 -21.36615039 9.16028939 -28.33984375 8.69921875 C-36.0097762 8.69921875 -43.45359593 9.45354636 -49.31640625 14.69921875 Z " fill="#000000" transform="translate(333.31640625,247.30078125)"/>
<path d="M0 0 C9.14051482 5.51452547 13.08821149 16.5881423 15.625 26.5 C16.77434068 34.68554828 15.83941863 41.76112808 11.18359375 48.625 C6.24126303 54.8631158 1.20428882 57.93697269 -6.7109375 58.91015625 C-15.62762566 59.28732636 -22.41620451 57.83763002 -29.21484375 51.890625 C-34.87759615 45.85404787 -37.09660221 38.98712779 -36.85546875 30.765625 C-35.30258532 20.21106771 -31.27058194 7.88911472 -22.640625 1.14453125 C-15.95946485 -2.90005537 -7.12341334 -3.0567904 0 0 Z M-12.375 16.5 C-17.04104213 25.57840212 -17.04104213 25.57840212 -18.375 35.5 C-15.98040961 38.98304057 -14.52322958 40.2607855 -10.375 41.125 C-6.22677042 40.2607855 -4.76959039 38.98304057 -2.375 35.5 C-2.27240711 29.44701925 -4.00266855 22.58825303 -7.375 17.5 C-9.93684975 16.64394506 -9.93684975 16.64394506 -12.375 16.5 Z " fill="#000000" transform="translate(266.375,308.5)"/>
</svg>
