<?xml version="1.0" encoding="UTF-8"?>
<svg version="1.1" xmlns="http://www.w3.org/2000/svg" width="835" height="835">
<path d="M0 0 C1.6715805 -0.00218016 1.6715805 -0.00218016 3.3769303 -0.00440437 C7.13172494 -0.00806979 10.88647912 -0.00457539 14.6412735 -0.0011425 C17.3521703 -0.00173974 20.06306548 -0.00384077 22.77396154 -0.00586975 C28.67864041 -0.00948428 34.58331014 -0.00937011 40.48798943 -0.00682259 C49.2683679 -0.00304463 58.04873865 -0.00497149 66.82911707 -0.00803089 C82.50963818 -0.01330103 98.19015522 -0.01283849 113.87067671 -0.00995198 C127.59280865 -0.00743832 141.3149391 -0.00677884 155.03707123 -0.00797462 C156.4013912 -0.0080892 156.4013912 -0.0080892 157.79327319 -0.00820609 C161.48524224 -0.00851742 165.17721129 -0.00883582 168.86918034 -0.00916586 C203.51617655 -0.01222617 238.16317016 -0.00944931 272.81016596 -0.00406896 C303.60482201 0.00067679 334.39947393 0.00025217 365.19412994 -0.00452995 C399.77698724 -0.00988237 434.35984225 -0.01200915 468.94269991 -0.00891769 C472.62801647 -0.00859696 476.31333303 -0.00828412 479.9986496 -0.00797462 C480.90609592 -0.00789555 481.81354225 -0.00781647 482.74848695 -0.007735 C496.46337537 -0.00659661 510.17826214 -0.0079295 523.89315033 -0.01045418 C539.48459671 -0.01330995 555.07603837 -0.01260606 570.66748416 -0.00717343 C579.39787168 -0.00423196 588.128249 -0.00405295 596.85863626 -0.00781961 C602.6855137 -0.01005673 608.51238293 -0.00867597 614.33925915 -0.00431484 C617.66228913 -0.00192926 620.98528204 -0.00168268 624.30831403 -0.00472082 C627.88413609 -0.00774057 631.45990176 -0.00466377 635.03572083 0 C636.07229861 -0.00234117 637.1088764 -0.00468233 638.17686564 -0.00709444 C642.90525767 0.00531784 647.36860077 0.13688585 652.01786041 1.12584114 C652.01786041 1.78584114 652.01786041 2.44584114 652.01786041 3.12584114 C652.96661041 3.20834114 653.91536041 3.29084114 654.89286041 3.37584114 C655.92411041 3.62334114 656.95536041 3.87084114 658.01786041 4.12584114 C659.14286041 6.12584114 659.14286041 6.12584114 660.01786041 8.12584114 C662.06786912 8.93113004 662.06786912 8.93113004 664.01786041 9.12584114 C664.34786041 10.44584114 664.67786041 11.76584114 665.01786041 13.12584114 C665.67786041 13.12584114 666.33786041 13.12584114 667.01786041 13.12584114 C667.01786041 14.11584114 667.01786041 15.10584114 667.01786041 16.12584114 C667.67786041 16.12584114 668.33786041 16.12584114 669.01786041 16.12584114 C669.91902581 19.97533488 670.14312714 23.54025821 670.14370155 27.48992348 C670.14761317 29.42829055 670.14761317 29.42829055 670.15160382 31.40581656 C670.14944181 32.83792287 670.14718516 34.27002905 670.14484406 35.70213509 C670.14599619 37.22493861 670.14758433 38.74774186 670.1495713 40.27054453 C670.15375194 44.45678298 670.15167961 48.64299868 670.14858508 52.82923722 C670.14632608 57.34326282 670.1498131 61.85728446 670.152565 66.37130928 C670.1570163 75.21496055 670.15604906 84.05860334 670.15315236 92.90225494 C670.15089583 100.08840242 670.1505869 107.27454753 670.15167618 114.46069527 C670.15190603 115.99367612 670.15190603 115.99367612 670.15214052 117.55762628 C670.15246024 119.63364295 670.15278445 121.70965963 670.15311311 123.7856763 C670.15596603 143.26168511 670.15268382 162.73768922 670.14731275 182.21369725 C670.14284488 198.93229835 670.14362086 215.65089251 670.14823151 232.36949348 C670.15358058 251.77486012 670.15569136 271.18022262 670.15261924 290.58558989 C670.15230069 292.65405559 670.15198632 294.7225213 670.15167618 296.79098701 C670.1515219 297.8087652 670.15136763 298.82654339 670.15120868 299.87516335 C670.15034452 307.05435045 670.15180422 314.23353494 670.15415573 321.41272163 C670.15695762 330.15933549 670.15620722 338.90594037 670.15087499 347.6525532 C670.14824325 352.11689983 670.14722403 356.58123148 670.15052414 361.045578 C670.1534979 365.1301508 670.15187617 369.21469469 670.14654659 373.29926485 C670.14542704 374.77900585 670.14600341 376.25874928 670.14842238 377.73848873 C670.15145342 379.74624375 670.1477532 381.75400559 670.14370155 383.7617588 C670.1435392 384.87808425 670.14337685 385.9944097 670.14320958 387.1445632 C670.02657808 389.9185019 669.64955345 392.42744818 669.01786041 395.12584114 C668.35786041 395.12584114 667.69786041 395.12584114 667.01786041 395.12584114 C667.01786041 396.11584114 667.01786041 397.10584114 667.01786041 398.12584114 C666.35786041 398.12584114 665.69786041 398.12584114 665.01786041 398.12584114 C664.68786041 399.44584114 664.35786041 400.76584114 664.01786041 402.12584114 C663.39911041 402.20834114 662.78036041 402.29084114 662.14286041 402.37584114 C661.44161041 402.62334114 660.74036041 402.87084114 660.01786041 403.12584114 C659.72911041 403.78584114 659.44036041 404.44584114 659.14286041 405.12584114 C658.77161041 405.78584114 658.40036041 406.44584114 658.01786041 407.12584114 C654.89286041 407.87584114 654.89286041 407.87584114 652.01786041 408.12584114 C652.01786041 408.78584114 652.01786041 409.44584114 652.01786041 410.12584114 C646.06112777 410.99008742 640.29606071 411.26814011 634.28185272 411.25282478 C633.331161 411.25438477 632.38046929 411.25594476 631.40096873 411.25755203 C628.23133915 411.26152472 625.06175789 411.2583869 621.89212799 411.25523567 C619.61337506 411.25659134 617.33462235 411.2583722 615.05587006 411.26054573 C608.87851366 411.26509958 602.70117399 411.26333911 596.5238173 411.26016665 C590.05858964 411.25763341 583.5933634 411.25998319 577.12813568 411.26155281 C565.57978714 411.26348773 554.03144716 411.26038275 542.48309996 411.25529347 C532.01429565 411.25082283 521.54550242 411.2516048 511.0766983 411.25621223 C498.91065837 411.26156416 486.74462713 411.26355578 474.5785858 411.26059997 C468.1415354 411.25904007 461.70449262 411.25883571 455.2674427 411.26213646 C449.21901627 411.26502144 443.17061082 411.26302788 437.12218666 411.2572422 C434.90056391 411.25591816 432.6789394 411.25630271 430.45731735 411.25850487 C427.42915999 411.26123017 424.40107021 411.25781826 421.37291718 411.25282478 C420.49023834 411.25505551 419.6075595 411.25728623 418.69813281 411.25958455 C414.6713228 411.246671 410.94698806 411.1352764 407.01786041 410.12584114 C407.01786041 409.46584114 407.01786041 408.80584114 407.01786041 408.12584114 C405.36786041 407.79584114 403.71786041 407.46584114 402.01786041 407.12584114 C402.01786041 406.46584114 402.01786041 405.80584114 402.01786041 405.12584114 C401.35786041 405.12584114 400.69786041 405.12584114 400.01786041 405.12584114 C399.68786041 403.47584114 399.35786041 401.82584114 399.01786041 400.12584114 C398.35786041 400.12584114 397.69786041 400.12584114 397.01786041 400.12584114 C396.34527375 397.79420736 395.67938597 395.46063724 395.01786041 393.12584114 C394.70848541 392.13584114 394.70848541 392.13584114 394.39286041 391.12584114 C393.83024031 388.12520057 393.95934386 385.16870197 394.01786041 382.12584114 C393.35786041 382.12584114 392.69786041 382.12584114 392.01786041 382.12584114 C391.51095458 380.06502753 391.01261422 378.00210588 390.51786041 375.93834114 C390.10020416 374.21550911 390.10020416 374.21550911 389.67411041 372.45787239 C389.10290656 369.55765285 388.88502262 367.06487729 389.01786041 364.12584114 C388.35786041 364.12584114 387.69786041 364.12584114 387.01786041 364.12584114 C386.68786041 359.83584114 386.35786041 355.54584114 386.01786041 351.12584114 C385.35786041 351.12584114 384.69786041 351.12584114 384.01786041 351.12584114 C384.01786041 349.14584114 384.01786041 347.16584114 384.01786041 345.12584114 C383.35786041 345.12584114 382.69786041 345.12584114 382.01786041 345.12584114 C381.03537518 341.07308954 380.93626467 337.28722377 381.01786041 333.12584114 C380.35786041 333.12584114 379.69786041 333.12584114 379.01786041 333.12584114 C379.01786041 331.47584114 379.01786041 329.82584114 379.01786041 328.12584114 C378.35786041 328.12584114 377.69786041 328.12584114 377.01786041 328.12584114 C376.68786041 324.49584114 376.35786041 320.86584114 376.01786041 317.12584114 C375.35786041 317.12584114 374.69786041 317.12584114 374.01786041 317.12584114 C374.01786041 315.47584114 374.01786041 313.82584114 374.01786041 312.12584114 C373.35786041 312.12584114 372.69786041 312.12584114 372.01786041 312.12584114 C371.68786041 309.48584114 371.35786041 306.84584114 371.01786041 304.12584114 C370.35786041 304.12584114 369.69786041 304.12584114 369.01786041 304.12584114 C368.68786041 301.48584114 368.35786041 298.84584114 368.01786041 296.12584114 C367.35786041 296.12584114 366.69786041 296.12584114 366.01786041 296.12584114 C366.01786041 294.80584114 366.01786041 293.48584114 366.01786041 292.12584114 C365.35786041 292.12584114 364.69786041 292.12584114 364.01786041 292.12584114 C363.68786041 290.14584114 363.35786041 288.16584114 363.01786041 286.12584114 C362.35786041 286.12584114 361.69786041 286.12584114 361.01786041 286.12584114 C361.01786041 285.46584114 361.01786041 284.80584114 361.01786041 284.12584114 C360.35786041 284.12584114 359.69786041 284.12584114 359.01786041 284.12584114 C358.68786041 282.47584114 358.35786041 280.82584114 358.01786041 279.12584114 C357.35786041 279.12584114 356.69786041 279.12584114 356.01786041 279.12584114 C355.68786041 277.47584114 355.35786041 275.82584114 355.01786041 274.12584114 C354.41973541 274.02271614 353.82161041 273.91959114 353.20536041 273.81334114 C350.70527756 273.02760081 349.64250959 272.15665261 348.01786041 270.12584114 C348.01786041 269.46584114 348.01786041 268.80584114 348.01786041 268.12584114 C347.02786041 268.12584114 346.03786041 268.12584114 345.01786041 268.12584114 C345.01786041 267.46584114 345.01786041 266.80584114 345.01786041 266.12584114 C343.36786041 265.79584114 341.71786041 265.46584114 340.01786041 265.12584114 C340.01786041 264.46584114 340.01786041 263.80584114 340.01786041 263.12584114 C339.02786041 263.12584114 338.03786041 263.12584114 337.01786041 263.12584114 C337.01786041 262.46584114 337.01786041 261.80584114 337.01786041 261.12584114 C325.79786041 261.12584114 314.57786041 261.12584114 303.01786041 261.12584114 C303.01786041 261.78584114 303.01786041 262.44584114 303.01786041 263.12584114 C301.36786041 263.12584114 299.71786041 263.12584114 298.01786041 263.12584114 C297.68786041 264.11584114 297.35786041 265.10584114 297.01786041 266.12584114 C296.02786041 266.12584114 295.03786041 266.12584114 294.01786041 266.12584114 C294.01786041 266.78584114 294.01786041 267.44584114 294.01786041 268.12584114 C292.55692291 269.63365364 292.55692291 269.63365364 290.64286041 271.25084114 C290.01637604 271.78966927 289.38989166 272.32849739 288.74442291 272.88365364 C287.01786041 274.12584114 287.01786041 274.12584114 285.01786041 274.12584114 C284.68786041 275.44584114 284.35786041 276.76584114 284.01786041 278.12584114 C282.69786041 278.45584114 281.37786041 278.78584114 280.01786041 279.12584114 C279.68786041 281.43584114 279.35786041 283.74584114 279.01786041 286.12584114 C278.35786041 286.12584114 277.69786041 286.12584114 277.01786041 286.12584114 C276.68786041 287.77584114 276.35786041 289.42584114 276.01786041 291.12584114 C275.35786041 291.12584114 274.69786041 291.12584114 274.01786041 291.12584114 C274.01786041 292.11584114 274.01786041 293.10584114 274.01786041 294.12584114 C273.35786041 294.12584114 272.69786041 294.12584114 272.01786041 294.12584114 C271.68786041 296.76584114 271.35786041 299.40584114 271.01786041 302.12584114 C270.35786041 302.12584114 269.69786041 302.12584114 269.01786041 302.12584114 C269.01786041 303.77584114 269.01786041 305.42584114 269.01786041 307.12584114 C268.35786041 307.12584114 267.69786041 307.12584114 267.01786041 307.12584114 C266.68786041 310.42584114 266.35786041 313.72584114 266.01786041 317.12584114 C265.35786041 317.12584114 264.69786041 317.12584114 264.01786041 317.12584114 C263.96887604 317.70591927 263.91989166 318.28599739 263.86942291 318.88365364 C263.42136636 323.56507206 262.71983942 327.70069573 261.01786041 332.12584114 C260.35786041 332.12584114 259.69786041 332.12584114 259.01786041 332.12584114 C258.68786041 335.75584114 258.35786041 339.38584114 258.01786041 343.12584114 C257.35786041 343.12584114 256.69786041 343.12584114 256.01786041 343.12584114 C256.01786041 345.10584114 256.01786041 347.08584114 256.01786041 349.12584114 C255.35786041 349.12584114 254.69786041 349.12584114 254.01786041 349.12584114 C254.04879791 350.70365364 254.04879791 350.70365364 254.08036041 352.31334114 C254.0288924 355.45289018 253.75268854 358.0946751 253.01786041 361.12584114 C252.35786041 361.12584114 251.69786041 361.12584114 251.01786041 361.12584114 C251.01786041 363.10584114 251.01786041 365.08584114 251.01786041 367.12584114 C250.35786041 367.12584114 249.69786041 367.12584114 249.01786041 367.12584114 C248.68786041 371.08584114 248.35786041 375.04584114 248.01786041 379.12584114 C247.35786041 379.12584114 246.69786041 379.12584114 246.01786041 379.12584114 C245.68786041 382.75584114 245.35786041 386.38584114 245.01786041 390.12584114 C244.35786041 390.12584114 243.69786041 390.12584114 243.01786041 390.12584114 C243.01786041 392.43584114 243.01786041 394.74584114 243.01786041 397.12584114 C242.35786041 397.12584114 241.69786041 397.12584114 241.01786041 397.12584114 C241.01786041 398.77584114 241.01786041 400.42584114 241.01786041 402.12584114 C240.02786041 402.45584114 239.03786041 402.78584114 238.01786041 403.12584114 C238.01786041 403.78584114 238.01786041 404.44584114 238.01786041 405.12584114 C237.35786041 405.12584114 236.69786041 405.12584114 236.01786041 405.12584114 C235.68786041 406.11584114 235.35786041 407.10584114 235.01786041 408.12584114 C234.35786041 408.12584114 233.69786041 408.12584114 233.01786041 408.12584114 C233.01786041 408.78584114 233.01786041 409.44584114 233.01786041 410.12584114 C227.73980141 411.21127748 222.66186822 411.26604561 217.30130768 411.25282478 C216.32852906 411.25438477 215.35575045 411.25594476 214.35349369 411.25755203 C211.09706923 411.26153754 207.84069146 411.25838184 204.58426666 411.25523567 C202.24831871 411.2565908 199.91237098 411.25837136 197.57642365 411.26054573 C191.23359784 411.26510681 184.89078828 411.26333593 178.54796219 411.26016665 C172.58487815 411.25789268 166.62179612 411.2596278 160.65871203 411.26109384 C148.12861409 411.26394429 135.59852347 411.26066843 123.06842673 411.25529347 C112.32077335 411.25082583 101.57313078 411.25160188 90.8254776 411.25621223 C78.33972082 411.26156567 65.85397046 411.26366964 53.3682127 411.26059997 C46.7606321 411.25904033 40.15305894 411.25883489 33.54547882 411.26213646 C27.33374159 411.26502339 21.12202478 411.26302428 14.91028976 411.2572422 C12.62942412 411.25591903 10.34855676 411.25630123 8.0676918 411.25850487 C4.95657566 411.2612337 1.8455251 411.2578139 -1.26558685 411.25282478 C-2.62230074 411.25617087 -2.62230074 411.25617087 -4.006423 411.25958455 C-8.44693701 411.24575459 -12.61075834 411.0248186 -16.98213959 410.12584114 C-16.98213959 409.46584114 -16.98213959 408.80584114 -16.98213959 408.12584114 C-17.93088959 408.04334114 -18.87963959 407.96084114 -19.85713959 407.87584114 C-21.40401459 407.50459114 -21.40401459 407.50459114 -22.98213959 407.12584114 C-24.10713959 405.12584114 -24.10713959 405.12584114 -24.98213959 403.12584114 C-27.0321483 402.32055225 -27.0321483 402.32055225 -28.98213959 402.12584114 C-29.31213959 400.80584114 -29.64213959 399.48584114 -29.98213959 398.12584114 C-30.64213959 398.12584114 -31.30213959 398.12584114 -31.98213959 398.12584114 C-31.98213959 397.13584114 -31.98213959 396.14584114 -31.98213959 395.12584114 C-32.64213959 395.12584114 -33.30213959 395.12584114 -33.98213959 395.12584114 C-34.88330499 391.2763474 -35.10740631 387.71142407 -35.10798073 383.7617588 C-35.11058848 382.46951409 -35.11319622 381.17726937 -35.11588299 379.84586573 C-35.11372099 378.41375941 -35.11146433 376.98165323 -35.10912323 375.5495472 C-35.11027536 374.02674367 -35.11186351 372.50394042 -35.11385047 370.98113775 C-35.11803112 366.7948993 -35.11595878 362.6086836 -35.11286426 358.42244506 C-35.11060525 353.90841946 -35.11409227 349.39439782 -35.11684418 344.880373 C-35.12129548 336.03672173 -35.12032824 327.19307894 -35.11743154 318.34942734 C-35.115175 311.16327986 -35.11486607 303.97713475 -35.11595535 296.79098701 C-35.11610859 295.76899978 -35.11626182 294.74701255 -35.1164197 293.694056 C-35.11673941 291.61803933 -35.11706363 289.54202265 -35.11739229 287.46600598 C-35.1202452 267.98999717 -35.116963 248.51399307 -35.11159192 229.03798503 C-35.10712405 212.31938393 -35.10790004 195.60078977 -35.11251068 178.8821888 C-35.11785976 159.47682217 -35.11997053 140.07145966 -35.11689842 120.6660924 C-35.11657986 118.59762669 -35.11626549 116.52916098 -35.11595535 114.46069527 C-35.11580108 113.44291708 -35.1156468 112.42513889 -35.11548785 111.37651893 C-35.1146237 104.19733183 -35.11608339 97.01814734 -35.11843491 89.83896065 C-35.12123679 81.09234679 -35.12048639 72.34574191 -35.11515416 63.59912908 C-35.11252243 59.13478245 -35.1115032 54.6704508 -35.11480331 50.20610428 C-35.11777707 46.12153149 -35.11615534 42.03698759 -35.11082576 37.95241743 C-35.10970621 36.47267643 -35.11028258 34.992933 -35.11270155 33.51319355 C-35.1157326 31.50543853 -35.11203237 29.4976767 -35.10798073 27.48992348 C-35.10781838 26.37359803 -35.10765602 25.25727258 -35.10748875 24.10711908 C-34.99085726 21.33318039 -34.61383262 18.8242341 -33.98213959 16.12584114 C-33.32213959 16.12584114 -32.66213959 16.12584114 -31.98213959 16.12584114 C-31.98213959 15.13584114 -31.98213959 14.14584114 -31.98213959 13.12584114 C-31.32213959 13.12584114 -30.66213959 13.12584114 -29.98213959 13.12584114 C-29.65213959 11.80584114 -29.32213959 10.48584114 -28.98213959 9.12584114 C-28.05401459 9.00209114 -28.05401459 9.00209114 -27.10713959 8.87584114 C-26.40588959 8.62834114 -25.70463959 8.38084114 -24.98213959 8.12584114 C-24.69338959 7.46584114 -24.40463959 6.80584114 -24.10713959 6.12584114 C-23.73588959 5.46584114 -23.36463959 4.80584114 -22.98213959 4.12584114 C-19.85713959 3.37584114 -19.85713959 3.37584114 -16.98213959 3.12584114 C-16.98213959 2.46584114 -16.98213959 1.80584114 -16.98213959 1.12584114 C-11.31389315 -0.0798653 -5.76444292 -0.0130193 0 0 Z M147.01786041 134.12584114 C147.01786041 134.78584114 147.01786041 135.44584114 147.01786041 136.12584114 C145.96598541 136.10521614 144.91411041 136.08459114 143.83036041 136.06334114 C140.69081138 136.11480916 138.04902645 136.39101301 135.01786041 137.12584114 C135.01786041 137.78584114 135.01786041 138.44584114 135.01786041 139.12584114 C134.02786041 139.12584114 133.03786041 139.12584114 132.01786041 139.12584114 C132.01786041 139.78584114 132.01786041 140.44584114 132.01786041 141.12584114 C131.29598541 141.06396614 130.57411041 141.00209114 129.83036041 140.93834114 C126.45586726 141.16330735 124.7119213 142.12453877 122.01786041 144.12584114 C122.01786041 144.78584114 122.01786041 145.44584114 122.01786041 146.12584114 C121.25473541 146.20834114 120.49161041 146.29084114 119.70536041 146.37584114 C116.44165999 147.28664126 115.88690915 148.40722479 114.01786041 151.12584114 C113.02786041 151.45584114 112.03786041 151.78584114 111.01786041 152.12584114 C111.01786041 152.78584114 111.01786041 153.44584114 111.01786041 154.12584114 C110.02786041 154.45584114 109.03786041 154.78584114 108.01786041 155.12584114 C108.01786041 155.78584114 108.01786041 156.44584114 108.01786041 157.12584114 C107.35786041 157.12584114 106.69786041 157.12584114 106.01786041 157.12584114 C106.01786041 158.11584114 106.01786041 159.10584114 106.01786041 160.12584114 C105.35786041 160.12584114 104.69786041 160.12584114 104.01786041 160.12584114 C103.68786041 161.44584114 103.35786041 162.76584114 103.01786041 164.12584114 C102.35786041 164.12584114 101.69786041 164.12584114 101.01786041 164.12584114 C101.01786041 165.11584114 101.01786041 166.10584114 101.01786041 167.12584114 C99.53286041 167.62084114 99.53286041 167.62084114 98.01786041 168.12584114 C98.01786041 169.44584114 98.01786041 170.76584114 98.01786041 172.12584114 C97.35786041 172.12584114 96.69786041 172.12584114 96.01786041 172.12584114 C95.68786041 174.10584114 95.35786041 176.08584114 95.01786041 178.12584114 C94.35786041 178.12584114 93.69786041 178.12584114 93.01786041 178.12584114 C93.01786041 179.77584114 93.01786041 181.42584114 93.01786041 183.12584114 C92.35786041 183.12584114 91.69786041 183.12584114 91.01786041 183.12584114 C89.91557345 187.53498897 89.94131506 191.60966515 90.01786041 196.12584114 C89.35786041 196.12584114 88.69786041 196.12584114 88.01786041 196.12584114 C88.01786041 202.39584114 88.01786041 208.66584114 88.01786041 215.12584114 C88.67786041 215.12584114 89.33786041 215.12584114 90.01786041 215.12584114 C89.99723541 216.34271614 89.97661041 217.55959114 89.95536041 218.81334114 C89.94961925 222.04561436 90.23019726 224.97518855 91.01786041 228.12584114 C91.67786041 228.12584114 92.33786041 228.12584114 93.01786041 228.12584114 C93.01786041 229.77584114 93.01786041 231.42584114 93.01786041 233.12584114 C93.67786041 233.12584114 94.33786041 233.12584114 95.01786041 233.12584114 C95.34786041 235.10584114 95.67786041 237.08584114 96.01786041 239.12584114 C96.67786041 239.12584114 97.33786041 239.12584114 98.01786041 239.12584114 C98.34786041 240.77584114 98.67786041 242.42584114 99.01786041 244.12584114 C99.67786041 244.12584114 100.33786041 244.12584114 101.01786041 244.12584114 C101.01786041 245.11584114 101.01786041 246.10584114 101.01786041 247.12584114 C101.67786041 247.12584114 102.33786041 247.12584114 103.01786041 247.12584114 C103.34786041 248.44584114 103.67786041 249.76584114 104.01786041 251.12584114 C104.67786041 251.12584114 105.33786041 251.12584114 106.01786041 251.12584114 C106.01786041 252.11584114 106.01786041 253.10584114 106.01786041 254.12584114 C106.67786041 254.12584114 107.33786041 254.12584114 108.01786041 254.12584114 C108.34786041 255.11584114 108.67786041 256.10584114 109.01786041 257.12584114 C109.67786041 257.12584114 110.33786041 257.12584114 111.01786041 257.12584114 C111.01786041 257.78584114 111.01786041 258.44584114 111.01786041 259.12584114 C112.66857437 260.15196063 114.33756047 261.14892257 116.01786041 262.12584114 C116.55411041 262.68271614 117.09036041 263.23959114 117.64286041 263.81334114 C119.06272764 265.47107901 119.06272764 265.47107901 122.01786041 265.12584114 C122.01786041 265.78584114 122.01786041 266.44584114 122.01786041 267.12584114 C124.92334923 269.16753599 126.41928087 270.12584114 130.01786041 270.12584114 C130.01786041 270.78584114 130.01786041 271.44584114 130.01786041 272.12584114 C131.66786041 272.12584114 133.31786041 272.12584114 135.01786041 272.12584114 C135.01786041 272.78584114 135.01786041 273.44584114 135.01786041 274.12584114 C139.07061201 275.10832638 142.85647779 275.20743688 147.01786041 275.12584114 C147.01786041 275.78584114 147.01786041 276.44584114 147.01786041 277.12584114 C155.92786041 277.12584114 164.83786041 277.12584114 174.01786041 277.12584114 C174.01786041 276.46584114 174.01786041 275.80584114 174.01786041 275.12584114 C177.64786041 274.79584114 181.27786041 274.46584114 185.01786041 274.12584114 C185.01786041 273.46584114 185.01786041 272.80584114 185.01786041 272.12584114 C186.66786041 272.12584114 188.31786041 272.12584114 190.01786041 272.12584114 C190.01786041 271.46584114 190.01786041 270.80584114 190.01786041 270.12584114 C191.66786041 269.79584114 193.31786041 269.46584114 195.01786041 269.12584114 C195.01786041 268.46584114 195.01786041 267.80584114 195.01786041 267.12584114 C196.00786041 267.12584114 196.99786041 267.12584114 198.01786041 267.12584114 C198.01786041 266.46584114 198.01786041 265.80584114 198.01786041 265.12584114 C199.66786041 264.79584114 201.31786041 264.46584114 203.01786041 264.12584114 C203.01786041 263.46584114 203.01786041 262.80584114 203.01786041 262.12584114 C203.67786041 262.12584114 204.33786041 262.12584114 205.01786041 262.12584114 C205.34786041 261.46584114 205.67786041 260.80584114 206.01786041 260.12584114 C207.00786041 259.79584114 207.99786041 259.46584114 209.01786041 259.12584114 C209.01786041 258.46584114 209.01786041 257.80584114 209.01786041 257.12584114 C210.33786041 256.79584114 211.65786041 256.46584114 213.01786041 256.12584114 C213.20348541 255.16677864 213.20348541 255.16677864 213.39286041 254.18834114 C213.59911041 253.50771614 213.80536041 252.82709114 214.01786041 252.12584114 C214.67786041 251.79584114 215.33786041 251.46584114 216.01786041 251.12584114 C216.01786041 250.46584114 216.01786041 249.80584114 216.01786041 249.12584114 C216.67786041 249.12584114 217.33786041 249.12584114 218.01786041 249.12584114 C218.34786041 247.47584114 218.67786041 245.82584114 219.01786041 244.12584114 C220.00786041 243.79584114 220.99786041 243.46584114 222.01786041 243.12584114 C222.01786041 241.80584114 222.01786041 240.48584114 222.01786041 239.12584114 C222.67786041 239.12584114 223.33786041 239.12584114 224.01786041 239.12584114 C224.01786041 238.13584114 224.01786041 237.14584114 224.01786041 236.12584114 C224.67786041 236.12584114 225.33786041 236.12584114 226.01786041 236.12584114 C226.34786041 233.48584114 226.67786041 230.84584114 227.01786041 228.12584114 C227.67786041 228.12584114 228.33786041 228.12584114 229.01786041 228.12584114 C229.01786041 226.47584114 229.01786041 224.82584114 229.01786041 223.12584114 C229.67786041 223.12584114 230.33786041 223.12584114 231.01786041 223.12584114 C231.86696762 217.24948014 232.17143231 211.55927188 232.14286041 205.62584114 C232.1467276 204.8227552 232.15059479 204.01966927 232.15457916 203.19224739 C232.1462996 198.08375758 231.74847521 193.18215944 231.01786041 188.12584114 C230.35786041 188.12584114 229.69786041 188.12584114 229.01786041 188.12584114 C229.01786041 186.47584114 229.01786041 184.82584114 229.01786041 183.12584114 C228.35786041 183.12584114 227.69786041 183.12584114 227.01786041 183.12584114 C226.68786041 180.48584114 226.35786041 177.84584114 226.01786041 175.12584114 C225.35786041 175.12584114 224.69786041 175.12584114 224.01786041 175.12584114 C224.01786041 174.13584114 224.01786041 173.14584114 224.01786041 172.12584114 C223.35786041 172.12584114 222.69786041 172.12584114 222.01786041 172.12584114 C221.68786041 170.47584114 221.35786041 168.82584114 221.01786041 167.12584114 C220.35786041 167.12584114 219.69786041 167.12584114 219.01786041 167.12584114 C218.68786041 165.47584114 218.35786041 163.82584114 218.01786041 162.12584114 C217.35786041 162.12584114 216.69786041 162.12584114 216.01786041 162.12584114 C216.01786041 161.46584114 216.01786041 160.80584114 216.01786041 160.12584114 C215.35786041 159.79584114 214.69786041 159.46584114 214.01786041 159.12584114 C213.39286041 157.06334114 213.39286041 157.06334114 213.01786041 155.12584114 C211.69786041 154.79584114 210.37786041 154.46584114 209.01786041 154.12584114 C209.01786041 153.46584114 209.01786041 152.80584114 209.01786041 152.12584114 C207.53286041 151.63084114 207.53286041 151.63084114 206.01786041 151.12584114 C205.52286041 150.13584114 205.52286041 150.13584114 205.01786041 149.12584114 C204.35786041 149.12584114 203.69786041 149.12584114 203.01786041 149.12584114 C203.01786041 148.46584114 203.01786041 147.80584114 203.01786041 147.12584114 C201.36786041 146.79584114 199.71786041 146.46584114 198.01786041 146.12584114 C198.01786041 145.46584114 198.01786041 144.80584114 198.01786041 144.12584114 C197.02786041 144.12584114 196.03786041 144.12584114 195.01786041 144.12584114 C195.01786041 143.46584114 195.01786041 142.80584114 195.01786041 142.12584114 C192.70786041 141.79584114 190.39786041 141.46584114 188.01786041 141.12584114 C188.01786041 140.46584114 188.01786041 139.80584114 188.01786041 139.12584114 C187.02786041 139.12584114 186.03786041 139.12584114 185.01786041 139.12584114 C185.01786041 138.46584114 185.01786041 137.80584114 185.01786041 137.12584114 C181.38786041 136.79584114 177.75786041 136.46584114 174.01786041 136.12584114 C174.01786041 135.46584114 174.01786041 134.80584114 174.01786041 134.12584114 C165.10786041 134.12584114 156.19786041 134.12584114 147.01786041 134.12584114 Z M461.01786041 134.12584114 C461.01786041 134.78584114 461.01786041 135.44584114 461.01786041 136.12584114 C457.38786041 136.45584114 453.75786041 136.78584114 450.01786041 137.12584114 C450.01786041 137.78584114 450.01786041 138.44584114 450.01786041 139.12584114 C449.02786041 139.12584114 448.03786041 139.12584114 447.01786041 139.12584114 C447.01786041 139.78584114 447.01786041 140.44584114 447.01786041 141.12584114 C444.70786041 141.45584114 442.39786041 141.78584114 440.01786041 142.12584114 C440.01786041 142.78584114 440.01786041 143.44584114 440.01786041 144.12584114 C439.02786041 144.12584114 438.03786041 144.12584114 437.01786041 144.12584114 C437.01786041 144.78584114 437.01786041 145.44584114 437.01786041 146.12584114 C435.36786041 146.45584114 433.71786041 146.78584114 432.01786041 147.12584114 C432.01786041 147.78584114 432.01786041 148.44584114 432.01786041 149.12584114 C431.35786041 149.12584114 430.69786041 149.12584114 430.01786041 149.12584114 C429.68786041 149.78584114 429.35786041 150.44584114 429.01786041 151.12584114 C428.02786041 151.45584114 427.03786041 151.78584114 426.01786041 152.12584114 C426.01786041 152.78584114 426.01786041 153.44584114 426.01786041 154.12584114 C424.69786041 154.45584114 423.37786041 154.78584114 422.01786041 155.12584114 C421.89411041 155.76521614 421.77036041 156.40459114 421.64286041 157.06334114 C421.33348541 158.08427864 421.33348541 158.08427864 421.01786041 159.12584114 C420.35786041 159.45584114 419.69786041 159.78584114 419.01786041 160.12584114 C419.01786041 160.78584114 419.01786041 161.44584114 419.01786041 162.12584114 C418.35786041 162.12584114 417.69786041 162.12584114 417.01786041 162.12584114 C416.68786041 163.77584114 416.35786041 165.42584114 416.01786041 167.12584114 C414.53286041 167.62084114 414.53286041 167.62084114 413.01786041 168.12584114 C413.01786041 169.44584114 413.01786041 170.76584114 413.01786041 172.12584114 C412.35786041 172.12584114 411.69786041 172.12584114 411.01786041 172.12584114 C411.01786041 173.11584114 411.01786041 174.10584114 411.01786041 175.12584114 C410.35786041 175.12584114 409.69786041 175.12584114 409.01786041 175.12584114 C408.68786041 177.76584114 408.35786041 180.40584114 408.01786041 183.12584114 C407.35786041 183.12584114 406.69786041 183.12584114 406.01786041 183.12584114 C406.01786041 184.77584114 406.01786041 186.42584114 406.01786041 188.12584114 C405.35786041 188.12584114 404.69786041 188.12584114 404.01786041 188.12584114 C403.1687532 194.00220214 402.86428851 199.6924104 402.89286041 205.62584114 C402.88899323 206.42892708 402.88512604 207.23201302 402.88114166 208.05943489 C402.88942122 213.1679247 403.28724561 218.06952284 404.01786041 223.12584114 C404.67786041 223.12584114 405.33786041 223.12584114 406.01786041 223.12584114 C406.01786041 224.77584114 406.01786041 226.42584114 406.01786041 228.12584114 C406.67786041 228.12584114 407.33786041 228.12584114 408.01786041 228.12584114 C408.34786041 230.76584114 408.67786041 233.40584114 409.01786041 236.12584114 C409.67786041 236.12584114 410.33786041 236.12584114 411.01786041 236.12584114 C411.14161041 236.70334114 411.26536041 237.28084114 411.39286041 237.87584114 C412.02434865 240.14919881 412.90644232 242.05119404 414.01786041 244.12584114 C414.67786041 244.12584114 415.33786041 244.12584114 416.01786041 244.12584114 C416.34786041 245.77584114 416.67786041 247.42584114 417.01786041 249.12584114 C417.67786041 249.12584114 418.33786041 249.12584114 419.01786041 249.12584114 C419.01786041 249.78584114 419.01786041 250.44584114 419.01786041 251.12584114 C419.67786041 251.12584114 420.33786041 251.12584114 421.01786041 251.12584114 C421.34786041 252.77584114 421.67786041 254.42584114 422.01786041 256.12584114 C423.33786041 256.45584114 424.65786041 256.78584114 426.01786041 257.12584114 C426.01786041 257.78584114 426.01786041 258.44584114 426.01786041 259.12584114 C427.50286041 259.62084114 427.50286041 259.62084114 429.01786041 260.12584114 C429.51286041 261.11584114 429.51286041 261.11584114 430.01786041 262.12584114 C430.67786041 262.12584114 431.33786041 262.12584114 432.01786041 262.12584114 C432.01786041 262.78584114 432.01786041 263.44584114 432.01786041 264.12584114 C433.66786041 264.45584114 435.31786041 264.78584114 437.01786041 265.12584114 C437.01786041 265.78584114 437.01786041 266.44584114 437.01786041 267.12584114 C438.00786041 267.12584114 438.99786041 267.12584114 440.01786041 267.12584114 C440.01786041 267.78584114 440.01786041 268.44584114 440.01786041 269.12584114 C441.66786041 269.45584114 443.31786041 269.78584114 445.01786041 270.12584114 C445.01786041 270.78584114 445.01786041 271.44584114 445.01786041 272.12584114 C446.66786041 272.12584114 448.31786041 272.12584114 450.01786041 272.12584114 C450.01786041 272.78584114 450.01786041 273.44584114 450.01786041 274.12584114 C453.64786041 274.45584114 457.27786041 274.78584114 461.01786041 275.12584114 C461.01786041 275.78584114 461.01786041 276.44584114 461.01786041 277.12584114 C469.92786041 277.12584114 478.83786041 277.12584114 488.01786041 277.12584114 C488.01786041 276.46584114 488.01786041 275.80584114 488.01786041 275.12584114 C489.06973541 275.14646614 490.12161041 275.16709114 491.20536041 275.18834114 C494.34490945 275.13687312 496.98669437 274.86066927 500.01786041 274.12584114 C500.01786041 273.46584114 500.01786041 272.80584114 500.01786041 272.12584114 C501.66786041 272.12584114 503.31786041 272.12584114 505.01786041 272.12584114 C505.01786041 271.46584114 505.01786041 270.80584114 505.01786041 270.12584114 C505.59536041 270.00209114 506.17286041 269.87834114 506.76786041 269.75084114 C509.04121808 269.1193529 510.94321331 268.23725923 513.01786041 267.12584114 C513.01786041 266.46584114 513.01786041 265.80584114 513.01786041 265.12584114 C513.78098541 265.04334114 514.54411041 264.96084114 515.33036041 264.87584114 C518.59406084 263.96504102 519.14881167 262.84445749 521.01786041 260.12584114 C522.00786041 259.79584114 522.99786041 259.46584114 524.01786041 259.12584114 C524.01786041 258.46584114 524.01786041 257.80584114 524.01786041 257.12584114 C525.00786041 256.79584114 525.99786041 256.46584114 527.01786041 256.12584114 C527.01786041 255.46584114 527.01786041 254.80584114 527.01786041 254.12584114 C527.67786041 254.12584114 528.33786041 254.12584114 529.01786041 254.12584114 C529.01786041 253.13584114 529.01786041 252.14584114 529.01786041 251.12584114 C529.67786041 251.12584114 530.33786041 251.12584114 531.01786041 251.12584114 C531.34786041 249.80584114 531.67786041 248.48584114 532.01786041 247.12584114 C532.67786041 247.12584114 533.33786041 247.12584114 534.01786041 247.12584114 C534.01786041 246.13584114 534.01786041 245.14584114 534.01786041 244.12584114 C535.00786041 243.79584114 535.99786041 243.46584114 537.01786041 243.12584114 C537.01786041 241.80584114 537.01786041 240.48584114 537.01786041 239.12584114 C537.67786041 239.12584114 538.33786041 239.12584114 539.01786041 239.12584114 C539.34786041 237.14584114 539.67786041 235.16584114 540.01786041 233.12584114 C540.67786041 233.12584114 541.33786041 233.12584114 542.01786041 233.12584114 C542.01786041 231.47584114 542.01786041 229.82584114 542.01786041 228.12584114 C542.67786041 228.12584114 543.33786041 228.12584114 544.01786041 228.12584114 C545.12014737 223.71669331 545.09440577 219.64201713 545.01786041 215.12584114 C545.67786041 215.12584114 546.33786041 215.12584114 547.01786041 215.12584114 C547.01786041 208.85584114 547.01786041 202.58584114 547.01786041 196.12584114 C546.35786041 196.12584114 545.69786041 196.12584114 545.01786041 196.12584114 C545.03848541 194.90896614 545.05911041 193.69209114 545.08036041 192.43834114 C545.08610157 189.20606792 544.80552356 186.27649373 544.01786041 183.12584114 C543.35786041 183.12584114 542.69786041 183.12584114 542.01786041 183.12584114 C542.01786041 181.47584114 542.01786041 179.82584114 542.01786041 178.12584114 C541.35786041 178.12584114 540.69786041 178.12584114 540.01786041 178.12584114 C539.68786041 176.14584114 539.35786041 174.16584114 539.01786041 172.12584114 C538.35786041 172.12584114 537.69786041 172.12584114 537.01786041 172.12584114 C536.68786041 170.47584114 536.35786041 168.82584114 536.01786041 167.12584114 C535.35786041 167.12584114 534.69786041 167.12584114 534.01786041 167.12584114 C534.01786041 166.13584114 534.01786041 165.14584114 534.01786041 164.12584114 C533.35786041 164.12584114 532.69786041 164.12584114 532.01786041 164.12584114 C531.68786041 162.80584114 531.35786041 161.48584114 531.01786041 160.12584114 C530.35786041 160.12584114 529.69786041 160.12584114 529.01786041 160.12584114 C529.01786041 159.13584114 529.01786041 158.14584114 529.01786041 157.12584114 C528.35786041 157.12584114 527.69786041 157.12584114 527.01786041 157.12584114 C526.52286041 155.64084114 526.52286041 155.64084114 526.01786041 154.12584114 C525.35786041 154.12584114 524.69786041 154.12584114 524.01786041 154.12584114 C524.01786041 153.46584114 524.01786041 152.80584114 524.01786041 152.12584114 C522.36714645 151.09972165 520.69816035 150.10275971 519.01786041 149.12584114 C518.48161041 148.56896614 517.94536041 148.01209114 517.39286041 147.43834114 C515.97299319 145.78060327 515.97299319 145.78060327 513.01786041 146.12584114 C513.01786041 145.46584114 513.01786041 144.80584114 513.01786041 144.12584114 C509.59954126 141.58651834 507.26009143 140.76222134 503.01786041 141.12584114 C503.01786041 140.46584114 503.01786041 139.80584114 503.01786041 139.12584114 C502.02786041 139.12584114 501.03786041 139.12584114 500.01786041 139.12584114 C500.01786041 138.46584114 500.01786041 137.80584114 500.01786041 137.12584114 C495.96510882 136.14335591 492.17924304 136.0442454 488.01786041 136.12584114 C488.01786041 135.46584114 488.01786041 134.80584114 488.01786041 134.12584114 C479.10786041 134.12584114 470.19786041 134.12584114 461.01786041 134.12584114 Z " fill="#000000" transform="translate(99.98213958740234,211.87415885925293)"/>
</svg>
