<?xml version="1.0" encoding="UTF-8"?>
<svg version="1.1" xmlns="http://www.w3.org/2000/svg" width="512" height="512">
<path d="M0 0 C10.23906578 7.73254248 18.72711365 17.59665562 20.6875 30.6875 C21.89083975 45.37541939 20.86991031 58.18372237 11.73046875 70.3046875 C5.40336348 77.68429402 -1.36000082 82.89697375 -10.3125 86.6875 C-8.66305179 104.18033232 -4.49945723 115.9759361 9.2265625 127.78125 C12.6975765 130.46990847 16.38379363 132.73949593 20.1171875 135.04296875 C26.56456794 139.16811642 32.12703565 144.53295236 36.6875 150.6875 C36.6875 151.3475 36.6875 152.0075 36.6875 152.6875 C37.50442967 152.68196924 37.50442967 152.68196924 38.33786297 152.67632675 C51.64461374 152.58764391 64.95131211 152.52188625 78.25829601 152.48025131 C84.6937129 152.45943556 91.12891543 152.43122781 97.56420898 152.38574219 C103.78230693 152.34207009 110.00019954 152.31831774 116.2184391 152.30799103 C118.58294211 152.30063793 120.94743473 152.28627966 123.31184959 152.26457977 C147.01936347 152.05578311 147.01936347 152.05578311 157.6875 156.6875 C159.51474609 157.44740234 159.51474609 157.44740234 161.37890625 158.22265625 C177.55929747 166.8301841 188.26193502 179.43233112 194.6875 196.6875 C196.21897727 202.06834548 196.98032886 206.93916257 196.95492554 212.54740906 C196.95945665 213.29644574 196.96398776 214.04548241 196.96865618 214.81721717 C196.98122644 217.30488553 196.97968462 219.79233288 196.97802734 222.2800293 C196.98401729 224.07290424 196.99082391 225.86577661 196.99838257 227.65864563 C197.0160043 232.51427569 197.02073639 237.3698352 197.02201414 242.22549415 C197.0234387 245.2642723 197.02771411 248.30303268 197.03300858 251.34180641 C197.05149762 261.95794431 197.05968077 272.57403208 197.05810547 283.19018555 C197.05690503 293.06153627 197.07799111 302.93266802 197.1095928 312.80396336 C197.13581089 321.29853546 197.14647042 329.79303629 197.14519465 338.2876485 C197.14468656 343.35233792 197.15028474 348.4168327 197.17155075 353.48148155 C197.19102606 358.24963639 197.19099451 363.01741279 197.17651749 367.78558159 C197.17443963 369.52653308 197.17906861 371.26750884 197.1912384 373.00841904 C197.31550702 392.03128631 192.29747464 408.43387994 179.01733398 422.57470703 C166.74668853 434.95983687 150.80344547 440.87631347 133.63050812 440.95964891 C132.33420482 440.95586958 131.03790151 440.95209026 129.70231628 440.94819641 C128.29241732 440.9512208 126.88252 440.95511172 125.47262555 440.95978898 C121.61676029 440.97004078 117.7609883 440.96789437 113.90511549 440.96360838 C109.73935094 440.96113601 105.57360855 440.9701617 101.40785217 440.97764587 C93.25355095 440.99038095 85.09928268 440.99218803 76.94497319 440.98984561 C70.31485198 440.98806086 63.68474076 440.98981545 57.05462074 440.99407005 C55.63788655 440.99496284 55.63788655 440.99496284 54.19253147 440.99587366 C52.27364005 440.99708544 50.35474863 440.99829957 48.43585721 440.99951603 C30.4489514 441.0103871 12.46206434 441.0082312 -5.52484252 441.00213119 C-21.96703053 440.99696311 -38.40915928 441.00821536 -54.85133556 441.02722941 C-71.74762945 441.0466183 -88.64389533 441.05486191 -105.54020041 441.05110615 C-115.02076047 441.04919562 -124.5012701 441.05166724 -133.98182106 441.06582069 C-142.05329776 441.0777489 -150.12469299 441.07912328 -158.19617084 441.06703053 C-162.31108943 441.06115179 -166.4258591 441.06001445 -170.54076767 441.07203293 C-174.31414391 441.08292542 -178.0872475 441.07974873 -181.86061116 441.06577124 C-183.85850562 441.06189238 -185.85641235 441.07264388 -187.85427791 441.08406812 C-206.14832265 440.97508177 -221.80621973 434.47936885 -234.72265625 421.54296875 C-244.78211757 410.45176781 -251.64826939 395.91574164 -251.57992554 380.82759094 C-251.58445665 380.07855426 -251.58898776 379.32951759 -251.59365618 378.55778283 C-251.60622644 376.07011447 -251.60468462 373.58266712 -251.60302734 371.0949707 C-251.60901729 369.30209576 -251.61582391 367.50922339 -251.62338257 365.71635437 C-251.6410043 360.86072431 -251.64573639 356.0051648 -251.64701414 351.14950585 C-251.6484387 348.1107277 -251.65271411 345.07196732 -251.65800858 342.03319359 C-251.67649762 331.41705569 -251.68468077 320.80096792 -251.68310547 310.18481445 C-251.68190503 300.31346373 -251.70299111 290.44233198 -251.7345928 280.57103664 C-251.76081089 272.07646454 -251.77147042 263.58196371 -251.77019465 255.0873515 C-251.76968656 250.02266208 -251.77528474 244.9581673 -251.79655075 239.89351845 C-251.81602606 235.12536361 -251.81599451 230.35758721 -251.80151749 225.58941841 C-251.79943963 223.84846692 -251.80406861 222.10749116 -251.8162384 220.36658096 C-251.94050702 201.34371369 -246.92247464 184.94112006 -233.64233398 170.80029297 C-221.4062047 158.45000133 -205.58840459 152.52587856 -188.49728394 152.35830688 C-187.09975333 152.35525008 -185.70222069 152.35302187 -184.3046875 152.3515625 C-182.85075757 152.34512479 -181.39682891 152.33839572 -179.94290161 152.33139038 C-176.90868118 152.3194704 -173.8745742 152.31570449 -170.84033203 152.31689453 C-166.96218302 152.31709837 -163.08476148 152.28970719 -159.2067852 152.25535011 C-156.20924562 152.23307199 -153.21188161 152.22905712 -150.21426773 152.23011398 C-148.78458251 152.22776283 -147.3548921 152.21896667 -145.92528915 152.20344925 C-143.92538728 152.18375793 -141.92526921 152.19215786 -139.92529297 152.20166016 C-138.22274857 152.1973851 -138.22274857 152.1973851 -136.48580933 152.19302368 C-131.46247549 152.97577738 -128.37424479 155.5698739 -124.9375 159.1875 C-122.53946425 164.35250009 -122.55868465 169.0877288 -123.3125 174.6875 C-125.47209488 179.33893513 -128.54715556 182.68310559 -133.3125 184.6875 C-137.31579498 185.27339483 -141.28390815 185.24483364 -145.32421875 185.2265625 C-146.48822708 185.23835541 -147.65223541 185.25014832 -148.85151672 185.26229858 C-152.56781362 185.29753653 -156.28354985 185.30672051 -160 185.3125 C-163.6984275 185.32891278 -167.39660707 185.35114559 -171.09492493 185.38412476 C-173.39221349 185.40354306 -175.68961456 185.41311301 -177.98698425 185.41104126 C-187.07091625 185.47062556 -195.76449264 186.45311884 -204.3125 189.6875 C-204.3125 190.3475 -204.3125 191.0075 -204.3125 191.6875 C-203.65894531 191.89503906 -203.00539062 192.10257813 -202.33203125 192.31640625 C-198.14096871 194.21946311 -194.68435108 196.88788496 -191 199.625 C-189.37737834 200.81397019 -187.75366042 202.00144559 -186.12890625 203.1875 C-185.31695801 203.78046875 -184.50500977 204.3734375 -183.66845703 204.984375 C-180.29667567 207.42184099 -176.87490798 209.78137252 -173.4375 212.125 C-167.45215587 216.21207723 -161.49734092 220.33987721 -155.5625 224.5 C-154.72219238 225.089021 -153.88188477 225.67804199 -153.01611328 226.28491211 C-151.30293991 227.48615703 -149.58988714 228.68757396 -147.87695312 229.88916016 C-143.69076875 232.82474984 -139.50150408 235.75593609 -135.3125 238.6875 C-133.64581803 239.85414481 -131.97915138 241.0208115 -130.3125 242.1875 C-129.4875 242.765 -128.6625 243.3425 -127.8125 243.9375 C-120.3125 249.1875 -120.3125 249.1875 -117.8112793 250.93847656 C-116.14883463 252.10210662 -114.48623757 253.26551899 -112.82348633 254.42871094 C-108.59093083 257.39004815 -104.36129903 260.3554194 -100.13671875 263.328125 C-95.20552888 266.79600947 -90.26450156 270.24939907 -85.3125 273.6875 C-84.25409912 274.42323242 -84.25409912 274.42323242 -83.17431641 275.17382812 C-61.45350518 290.20126452 -38.20589891 298.61808512 -11.51171875 293.96875 C-7.36435316 293.10628543 -3.35297579 291.95832885 0.6875 290.6875 C1.70457031 290.37167969 2.72164062 290.05585938 3.76953125 289.73046875 C13.65604438 286.1193894 22.12331906 279.66798685 30.6875 273.6875 C31.4928418 273.12820801 32.29818359 272.56891602 33.12792969 271.99267578 C38.15030177 268.50375342 43.15603718 264.99169716 48.15527344 261.46972656 C52.3267145 258.53379138 56.50752909 255.61127148 60.6875 252.6875 C62.35421255 251.52089889 64.0208792 250.35423219 65.6875 249.1875 C95.6875 228.1875 95.6875 228.1875 98.18823242 226.43701172 C99.85248828 225.27201636 101.51671361 224.1069774 103.1809082 222.94189453 C107.38420923 219.99929589 111.58806181 217.05749096 115.79296875 214.1171875 C116.6348877 213.52824707 117.47680664 212.93930664 118.34423828 212.33251953 C120.01541653 211.1636943 121.68695901 209.99538965 123.35888672 208.82763672 C127.47146533 205.95218189 131.5719134 203.06155794 135.65234375 200.140625 C136.43778564 199.58004395 137.22322754 199.01946289 138.0324707 198.44189453 C139.51955407 197.37916893 141.00390788 196.31261031 142.48510742 195.24169922 C147.46477129 191.6875 147.46477129 191.6875 149.6875 191.6875 C149.6875 191.0275 149.6875 190.3675 149.6875 189.6875 C148.16879302 189.201636 146.64739301 188.72418799 145.125 188.25 C144.27808594 187.98316406 143.43117188 187.71632812 142.55859375 187.44140625 C136.5714856 185.86928125 130.62000101 185.53061704 124.45727539 185.48217773 C123.66621399 185.47227814 122.87515259 185.46237854 122.06011963 185.45217896 C119.46849468 185.42081553 116.87685147 185.39590701 114.28515625 185.37109375 C112.47911629 185.35050244 110.67308091 185.32950542 108.86705017 185.30812073 C104.13084645 185.25312474 99.39460087 185.20361705 94.6583252 185.15527344 C89.81840319 185.10489356 84.97854142 185.04929384 80.13867188 184.99414062 C70.65499946 184.88683424 61.17127458 184.78532901 51.6875 184.6875 C51.84884933 185.29571091 52.01019867 185.90392181 52.17643738 186.53056335 C56.92812406 206.58502771 50.81142961 227.47780448 40.6875 244.6875 C38.58616963 247.95137194 36.30489515 250.82456079 33.6875 253.6875 C32.88699219 254.57953125 32.08648437 255.4715625 31.26171875 256.390625 C17.85776167 270.58989646 -0.90801617 280.31071223 -20.64453125 281.12109375 C-22.80455799 281.1447833 -24.9649417 281.14561186 -27.125 281.125 C-28.26501465 281.11597656 -29.4050293 281.10695313 -30.57958984 281.09765625 C-48.86325861 280.72308685 -66.6949734 274.16403166 -80.3125 261.6875 C-81.21613281 260.86378906 -82.11976563 260.04007812 -83.05078125 259.19140625 C-98.32010506 244.62459531 -107.1610781 225.69943822 -107.79399109 204.5852356 C-107.8616416 200.08793947 -107.86720797 195.59359132 -107.83398438 191.09594727 C-107.81234763 187.60038427 -107.83397624 184.10683269 -107.859375 180.61132812 C-107.85673488 178.37499549 -107.85161646 176.1386641 -107.84375 173.90234375 C-107.85184692 172.86480453 -107.85994385 171.82726532 -107.86828613 170.75828552 C-107.79020866 164.73811976 -107.29895937 161.28320551 -103.3125 156.6875 C-98.66601746 152.27334159 -94.42456934 152.21991739 -88.3125 152.15625 C-80.58871162 153.52400419 -75.34580528 160.35306596 -70.0625 165.6875 C-69.2478125 166.49445313 -68.433125 167.30140625 -67.59375 168.1328125 C-66.81515625 168.91398438 -66.0365625 169.69515625 -65.234375 170.5 C-64.52893555 171.20769531 -63.82349609 171.91539062 -63.09667969 172.64453125 C-58.92462881 177.4217236 -58.86646738 181.62174947 -59.015625 187.796875 C-59.55543408 193.05291079 -61.98620095 195.53507552 -65.875 198.9140625 C-71.1267181 203.23344258 -71.1267181 203.23344258 -73.69140625 209.203125 C-73.20909409 211.91773148 -72.41724086 214.16237805 -71.3125 216.6875 C-70.9928125 217.5125 -70.673125 218.3375 -70.34375 219.1875 C-65.0164861 231.36410321 -55.10160072 240.21227823 -42.875 245.0625 C-31.08339742 248.64666528 -17.40565549 248.16920549 -6.3125 242.6875 C5.5852427 235.97327678 13.4185477 226.29868017 17.796875 213.42578125 C20.71331996 201.18438729 19.33333096 188.30565387 13.3671875 177.23828125 C7.97649409 168.56309431 1.13680671 162.79137209 -7.5078125 157.53515625 C-12.2358647 154.42043662 -16.22960245 150.58800006 -20.3125 146.6875 C-21.25222656 145.85992187 -21.25222656 145.85992187 -22.2109375 145.015625 C-33.64715286 134.56261367 -40.93615482 117.84570181 -43.3125 102.6875 C-43.34068365 101.3205931 -43.34455799 99.95303616 -43.328125 98.5859375 C-43.29166453 94.44412289 -43.3763106 90.74432073 -44.3125 86.6875 C-46.8084389 84.32745614 -49.08697486 83.31648038 -52.2578125 82.0234375 C-62.53587115 77.52842975 -69.59514683 67.49220645 -73.6875 57.375 C-77.37856293 45.26273047 -77.1007694 30.04272262 -71.3125 18.6875 C-64.3244171 6.73511069 -54.17526503 -3.21802728 -40.46875 -6.83984375 C-26.09954114 -8.99166834 -12.33514878 -8.18655614 0 0 Z M-40.6875 32.3125 C-42.89157893 36.89020239 -43.1096639 40.69302411 -42.3125 45.6875 C-39.98281069 50.52608548 -37.15108548 53.35781069 -32.3125 55.6875 C-27.31802411 56.4846639 -23.51520239 56.26657893 -18.9375 54.0625 C-15.35342287 50.81976355 -12.71714759 48.22274104 -11.9296875 43.2890625 C-11.67366081 37.60527006 -12.37623068 34.03811345 -16.3125 29.6875 C-20.66311345 25.75123068 -24.23027006 25.04866081 -29.9140625 25.3046875 C-34.84774104 26.09214759 -37.44476355 28.72842287 -40.6875 32.3125 Z M-219.3125 221.6875 C-219.35929624 241.70700174 -219.39452615 261.72649232 -219.41612434 281.74603748 C-219.42642093 291.04221746 -219.44045025 300.33836337 -219.46337891 309.63452148 C-219.4833624 317.7404874 -219.49622818 325.84642864 -219.50067699 333.95241851 C-219.50327599 338.24134387 -219.50935084 342.53019867 -219.52396011 346.81910133 C-219.53762252 350.8631242 -219.54170529 354.90704801 -219.53871536 358.95109177 C-219.53926168 360.42841698 -219.54318724 361.9057458 -219.55091095 363.38305092 C-219.6134481 375.97112258 -219.44684716 387.50655804 -211.3125 397.6875 C-200.50208076 408.29809633 -188.82072082 408.83956431 -174.39630127 408.82121277 C-172.43886651 408.8246111 -172.43886651 408.8246111 -170.44188762 408.82807809 C-166.83042982 408.83418105 -163.21899523 408.83406427 -159.60753345 408.83288372 C-155.70829221 408.83267933 -151.80905835 408.83820212 -147.90982056 408.84294128 C-140.27428922 408.85124025 -132.6387656 408.85399579 -125.00323012 408.85455366 C-118.79496592 408.8550292 -112.58670426 408.85708583 -106.37844086 408.86025429 C-88.76750981 408.86905896 -71.15658485 408.87367398 -53.54565158 408.87292381 C-52.59666078 408.87288386 -51.64766998 408.8728439 -50.66992188 408.87280273 C-49.71976907 408.87276185 -48.76961627 408.87272097 -47.79067096 408.87267885 C-32.39527067 408.87227248 -16.99989485 408.88184028 -1.60450163 408.8959411 C14.2125584 408.91031353 30.02960652 408.9172108 45.84667325 408.91634732 C54.72303631 408.91601565 63.59937372 408.91874999 72.4757309 408.92952538 C80.03380212 408.9386418 87.59183607 408.94079626 95.14991042 408.93401595 C99.00340496 408.93075646 102.85682802 408.93067338 106.7103157 408.9393692 C110.89471982 408.94871435 115.07895926 408.94244326 119.2633667 408.93473816 C121.07579774 408.9424535 121.07579774 408.9424535 122.92484355 408.95032471 C134.35199766 408.90391256 144.51766325 408.01399648 153.6875 400.6875 C162.42627596 391.78415199 164.81771339 382.24061392 164.80775452 369.96131897 C164.80912918 368.64750244 164.81050385 367.33368591 164.81192017 365.98005676 C164.8083819 364.54147316 164.80474711 363.10288978 164.80102539 361.66430664 C164.80074305 360.13619997 164.80090216 358.60809316 164.8014679 357.07998657 C164.80175405 352.94622343 164.7958867 348.81248948 164.78889394 344.67873311 C164.78263014 340.35324201 164.78205421 336.02775019 164.78086853 331.70225525 C164.77776413 323.51785189 164.76956276 315.33346194 164.75951904 307.14906448 C164.74833022 297.82864602 164.74284048 288.5082269 164.73782361 279.18780339 C164.7273794 260.021028 164.70979723 240.85426508 164.6875 221.6875 C160.19243453 223.3716582 156.67318334 225.73574088 152.875 228.625 C147.65305597 232.52556683 142.38586394 236.32889959 137 240 C130.95177574 244.12828285 124.93364199 248.29636931 118.9375 252.5 C118.09743408 253.08885986 117.25736816 253.67771973 116.3918457 254.28442383 C114.67842421 255.48582583 112.96512729 256.6874055 111.25195312 257.88916016 C107.06576875 260.82474984 102.87650408 263.75593609 98.6875 266.6875 C97.02081803 267.85414481 95.35415138 269.0208115 93.6875 270.1875 C90.35416667 272.52083333 87.02083333 274.85416667 83.6875 277.1875 C82.86233887 277.76516113 82.03717773 278.34282227 81.18701172 278.93798828 C79.52215618 280.10328959 77.85711741 281.26832915 76.19189453 282.43310547 C71.99596763 285.36853096 67.80343386 288.30859469 63.6171875 291.2578125 C58.65323379 294.75263116 53.67342877 298.22413004 48.6875 301.6875 C47.50728271 302.51241943 47.50728271 302.51241943 46.30322266 303.35400391 C23.64095311 319.1397721 0.87334895 328.12606911 -27.0625 328 C-27.72335602 327.99751251 -28.38421204 327.99502502 -29.06509399 327.99246216 C-61.13639063 327.80593071 -84.83918043 314.87700233 -110.40527344 296.74658203 C-113.93951899 294.24340543 -117.48815806 291.76130387 -121.03881836 289.28149414 C-123.50016983 287.56238139 -125.95939383 285.8402683 -128.41796875 284.1171875 C-133.38154579 280.63881431 -138.34690013 277.16298462 -143.3125 273.6875 C-144.97917431 272.52084425 -146.64584098 271.35417759 -148.3125 270.1875 C-149.1375 269.61 -149.9625 269.0325 -150.8125 268.4375 C-159.97916667 262.02083333 -169.14583333 255.60416667 -178.3125 249.1875 C-179.13878906 248.60911377 -179.96507812 248.03072754 -180.81640625 247.43481445 C-182.47011335 246.27718713 -184.12375996 245.11947339 -185.77734375 243.96166992 C-190.14177971 240.90596145 -194.50749596 237.85210327 -198.875 234.80078125 C-199.78507812 234.16462891 -200.69515625 233.52847656 -201.6328125 232.87304688 C-203.37721744 231.65374342 -205.12199019 230.43496594 -206.8671875 229.21679688 C-207.65351563 228.66701172 -208.43984375 228.11722656 -209.25 227.55078125 C-209.93964844 227.06907471 -210.62929687 226.58736816 -211.33984375 226.09106445 C-212.73336245 225.0995621 -214.0985169 224.0676103 -215.44140625 223.00854492 C-217.2030626 221.49524576 -217.2030626 221.49524576 -219.3125 221.6875 Z " fill="#000000" transform="translate(283.3125,39.3125)"/>
</svg>
