<?xml version="1.0" encoding="UTF-8"?>
<svg version="1.1" xmlns="http://www.w3.org/2000/svg" width="512" height="512">
<path d="M0 0 C0.97839389 -0.00525911 0.97839389 -0.00525911 1.97655332 -0.01062447 C4.15943343 -0.01991899 6.34204561 -0.01502028 8.52493668 -0.01015663 C10.10691363 -0.01389388 11.68888873 -0.0184957 13.27086091 -0.02388728 C17.61622421 -0.03612353 21.96151055 -0.03585607 26.30688715 -0.03349853 C30.99414539 -0.03309052 35.68137891 -0.04412802 40.36862564 -0.05361366 C49.55137593 -0.07022825 58.73410054 -0.07572342 67.9168646 -0.07683842 C75.38136169 -0.07778871 82.84585029 -0.08189806 90.3103447 -0.08823967 C111.47385438 -0.10585361 132.63734378 -0.11507834 153.80086085 -0.11357872 C155.51234082 -0.11345885 155.51234082 -0.11345885 157.25839615 -0.11333656 C158.40077611 -0.1132548 159.54315607 -0.11317304 160.7201536 -0.1130888 C179.23318323 -0.11227594 197.7461315 -0.13141333 216.2591376 -0.1596133 C235.26845025 -0.18834075 254.27772321 -0.20215365 273.28705812 -0.20042574 C283.95921785 -0.19976178 294.63129228 -0.20525695 305.30343246 -0.22678185 C314.3902732 -0.24499183 323.47698999 -0.24934248 332.56384107 -0.235763 C337.19901832 -0.22923235 341.83395776 -0.22911965 346.4691124 -0.2464695 C350.71564563 -0.26220103 354.96175251 -0.25933584 359.20827535 -0.24190123 C360.74124011 -0.2388315 362.2742367 -0.24246275 363.80716392 -0.25362138 C374.85495972 -0.32868989 384.37951706 0.72585081 392.76132584 8.55414391 C398.29215386 14.70577916 401.53765191 21.61705148 401.54984474 29.96797466 C401.55629363 31.08905725 401.56274253 32.21013983 401.56938684 33.36519462 C401.56474103 35.19742561 401.56474103 35.19742561 401.56000137 37.06667137 C401.56453249 38.37218458 401.5690636 39.6776978 401.57373202 41.02277201 C401.58595314 44.64036952 401.58570261 48.25787449 401.58334327 51.87548792 C401.58293488 55.77949103 401.59397636 59.68346455 401.6034584 63.58745384 C401.62006441 71.23381799 401.62556777 78.8801513 401.62668316 86.52653197 C401.62763381 92.74246839 401.63174494 98.95839465 401.63808441 105.17432785 C401.6556956 122.80130224 401.66492345 140.42825229 401.66342346 158.05523554 C401.66334355 159.0053172 401.66326364 159.95539885 401.6631813 160.93427086 C401.66309954 161.88551378 401.66301778 162.83675671 401.66293354 163.81682517 C401.66212064 179.23307122 401.68125971 194.64921957 401.70945804 210.06543735 C401.73818971 225.89828148 401.75199818 241.73107795 401.75027049 257.56394881 C401.74960669 266.45147273 401.75509443 275.33889422 401.77662659 284.22639465 C401.79484209 291.79336487 401.7991827 299.36018623 401.78560774 306.92716888 C401.77907996 310.78656262 401.77895376 314.64567078 401.79631424 318.50503731 C401.81495676 322.6925459 401.80248563 326.87939399 401.78705215 331.06691551 C401.79733928 332.28171068 401.80762641 333.49650584 401.81822526 334.74811298 C401.73265246 345.25125793 398.59568632 353.58565285 391.29257584 361.25726891 C384.99519671 366.21960366 378.63117747 368.50475678 370.58235836 368.51453781 C369.92979617 368.51804389 369.27723398 368.52154996 368.60489717 368.52516228 C366.42100779 368.53445683 364.23738621 368.52955809 362.05348587 368.52469444 C360.47079623 368.52843168 358.88810843 368.5330335 357.30542356 368.53842509 C352.95812965 368.55066131 348.61091267 368.55039389 344.26360548 368.54803634 C339.57432136 368.54762833 334.88506195 368.55866576 330.19578934 368.56815147 C321.00936404 368.58476573 311.82296442 368.59026121 302.63652536 368.59137623 C295.169636 368.59232648 287.70275513 368.5964356 280.23586845 368.60277748 C259.06729311 368.62039084 237.89873804 368.62961617 216.73015531 368.62811653 C215.01828125 368.62799666 215.01828125 368.62799666 213.27182388 368.62787437 C212.12918161 368.62779261 210.98653934 368.62771085 209.80927155 368.62762661 C191.28909985 368.62681363 172.76900946 368.64595425 154.24886128 368.67415111 C135.2339034 368.70287296 116.21898519 368.71669179 97.20400506 368.71496356 C86.52796483 368.71429943 75.85200985 368.71980184 65.17598915 368.74131966 C56.08655798 368.75952221 46.99725071 368.76388636 37.90780922 368.75030081 C33.27073064 368.74376658 28.63388982 368.74367041 23.9968338 368.76100731 C19.74973599 368.77672288 15.50306474 368.77388999 11.25597743 368.75643905 C9.72168458 368.75336581 8.18736001 368.75701377 6.65310457 368.7681592 C-1.54310959 368.8237441 -8.51104482 368.57929719 -15.70742416 364.25726891 C-16.51695541 363.78805016 -17.32648666 363.31883141 -18.16054916 362.83539391 C-24.87609448 357.87172998 -28.34875663 352.23571337 -30.70742416 344.25726891 C-30.96042383 341.47173524 -30.96042383 341.47173524 -30.96469307 338.54935646 C-30.97114196 337.42889057 -30.97759085 336.30842469 -30.98423517 335.15400529 C-30.98113796 333.93320008 -30.97804076 332.71239487 -30.9748497 331.45459557 C-30.97938081 330.14978792 -30.98391193 328.84498027 -30.98858035 327.500633 C-31.00080149 323.88496609 -31.00055093 320.26939178 -30.9981916 316.65370893 C-30.9977832 312.75173171 -31.00882477 308.84978408 -31.01830673 304.94782066 C-31.03491313 297.30513152 -31.04041613 289.66247323 -31.04153149 282.01976755 C-31.04248219 275.8062234 -31.04659358 269.59268942 -31.05293274 263.37914848 C-31.07054462 245.75723975 -31.07977176 228.13535537 -31.07827179 210.51343778 C-31.07819188 209.56361885 -31.07811197 208.61379992 -31.07802963 207.63519859 C-31.07794787 206.68421798 -31.07786611 205.73323737 -31.07778187 204.75343916 C-31.07696911 189.34433517 -31.0961043 173.93532896 -31.12430637 158.52625325 C-31.15304477 142.69905436 -31.16684612 126.87190314 -31.16511881 111.0446775 C-31.16445521 102.16103406 -31.16993424 93.27749313 -31.19147491 84.39387321 C-31.20969935 76.82949342 -31.21402375 69.26526257 -31.20045607 61.70087031 C-31.19393259 57.84337788 -31.19378648 53.98617111 -31.21116257 50.12870598 C-31.2298293 45.9415475 -31.21732261 41.75504841 -31.20190048 37.56787682 C-31.21218761 36.35599449 -31.22247473 35.14411217 -31.23307359 33.89550614 C-31.15437509 24.21907214 -29.15150179 16.00610455 -22.41054916 8.78851891 C-15.86355055 2.90222657 -8.83545321 0.01074198 0 0 Z M-10.64492416 22.00726891 C-18.60617511 34.5522704 -14.70742416 50.02112838 -14.70742416 64.25726891 C117.29257584 64.25726891 249.29257584 64.25726891 385.29257584 64.25726891 C387.63977094 41.63149816 387.63977094 41.63149816 379.54257584 20.31976891 C374.17013952 16.91033816 369.00406421 16.00770726 362.70918846 16.00279331 C360.77377353 15.99404502 360.77377353 15.99404502 358.79925931 15.98512 C357.37972346 15.98875267 355.9601881 15.99257701 354.54065323 15.99657249 C353.02309763 15.99355042 351.50554356 15.98966065 349.98799217 15.98497993 C345.82537766 15.97469841 341.66284927 15.97688214 337.50022769 15.98116052 C333.00796629 15.98362746 328.51572564 15.97461397 324.02347183 15.96712303 C315.2255376 15.95437311 306.42763389 15.95258271 297.62969197 15.95492329 C290.47842563 15.95670629 283.32716855 15.95495721 276.17590332 15.95069885 C274.64922432 15.94980607 274.64922432 15.94980607 273.09170332 15.94889525 C271.02406964 15.9476835 268.95643595 15.94646936 266.88880228 15.94525287 C247.49802363 15.9343762 228.10726237 15.93654043 208.71648274 15.94263772 C190.97883733 15.94780694 173.24124684 15.9365515 155.50361229 15.9175395 C137.28867214 15.89816563 119.07375797 15.88990431 100.85880744 15.89366275 C90.63328296 15.89557549 80.40780521 15.89308018 70.18228912 15.87894821 C61.47717215 15.8670392 52.77213069 15.86562415 44.06701268 15.87773838 C39.62641566 15.88363043 35.18595681 15.88471747 30.74536896 15.87273598 C26.67785921 15.86188874 22.61060317 15.86496669 18.54310535 15.87899766 C17.07411989 15.88164778 15.60511462 15.87926812 14.13614859 15.8712618 C0.61109835 15.51088551 0.61109835 15.51088551 -10.64492416 22.00726891 Z M-14.70742416 80.25726891 C-14.76929916 122.31164391 -14.83117416 164.36601891 -14.89492416 207.69476891 C-14.92223618 220.97783287 -14.94954819 234.26089684 -14.97768784 247.94647789 C-14.9877206 259.84425047 -14.9877206 259.84425047 -14.99375534 271.74202538 C-14.9965524 277.04500418 -15.00755458 282.34789105 -15.02415085 287.65083885 C-15.04529011 294.41541492 -15.05089763 301.17983699 -15.04664099 307.9444524 C-15.04753109 310.42684508 -15.05348004 312.90924233 -15.06506956 315.39160812 C-15.08000551 318.7466466 -15.07638904 322.10117797 -15.06818771 325.45622826 C-15.07692571 326.42581506 -15.0856637 327.39540186 -15.09466648 328.39437008 C-15.0528093 334.77146037 -14.57807352 341.67643386 -10.43246621 346.8476457 C-5.22246653 351.60582293 1.06382175 352.50642676 7.87596321 352.5117445 C9.16623983 352.51757669 10.45651645 352.52340889 11.78589237 352.52941781 C13.20542821 352.52578514 14.62496357 352.5219608 16.04449844 352.51796532 C17.56205404 352.52098739 19.07960812 352.52487716 20.5971595 352.52955788 C24.75977401 352.5398394 28.92230241 352.53765567 33.08492398 352.53337729 C37.57718538 352.53091035 42.06942604 352.53992384 46.56167984 352.54741478 C55.35961407 352.5601647 64.15751779 352.5619551 72.9554597 352.55961452 C80.10672604 352.55783152 87.25798312 352.55958061 94.40924835 352.56383896 C95.42703435 352.56443415 96.44482035 352.56502934 97.49344835 352.56564256 C99.56108204 352.56685431 101.62871572 352.56806845 103.6963494 352.56928494 C123.08712804 352.58016161 142.4778893 352.57799738 161.86866893 352.57190009 C179.60631434 352.56673087 197.34390483 352.57798631 215.08153938 352.59699831 C233.29647953 352.61637218 251.5113937 352.6246335 269.72634423 352.62087506 C279.95186872 352.61896233 290.17734646 352.62145763 300.40286255 352.6355896 C309.10797952 352.64749861 317.81302098 352.64891366 326.51813899 352.63679943 C330.95873601 352.63090738 335.39919487 352.62982034 339.83978271 352.64180183 C343.90729246 352.65264907 347.9745485 352.64957112 352.04204632 352.63554015 C353.51103178 352.63289003 354.98003705 352.63526969 356.44900309 352.64327601 C368.85405384 352.96692612 368.85405384 352.96692612 379.86652744 347.98236352 C385.77009807 341.59584635 385.58177242 333.84914064 385.53308487 325.69673729 C385.53479691 324.6478936 385.53650894 323.59904991 385.53827286 322.51842308 C385.54157809 318.9997429 385.53054444 315.48125391 385.51962662 311.96259117 C385.51901386 309.39858792 385.51928108 306.83458434 385.52035713 304.27058125 C385.52076284 298.10100215 385.51219997 291.93149348 385.49935447 285.7619296 C385.48493651 278.62296399 385.48336399 271.48401869 385.48178482 264.34503746 C385.47129046 245.50327204 385.44336816 226.66151959 385.41757584 207.81976891 C385.37632584 165.72414391 385.33507584 123.62851891 385.29257584 80.25726891 C253.29257584 80.25726891 121.29257584 80.25726891 -14.70742416 80.25726891 Z " fill="#000000" transform="translate(46.70742416381836,95.74273109436035)"/>
<path d="M0 0 C4.09539624 2.91840001 7.20319527 6.01719661 10.03515625 10.171875 C10.93886963 11.49457397 10.93886963 11.49457397 11.86083984 12.84399414 C14.84094418 17.30148619 17.78386462 21.78115736 20.69921875 26.28125 C22.02470029 28.32033804 23.35022225 30.35939981 24.67578125 32.3984375 C25.34512695 33.42936523 26.01447266 34.46029297 26.70410156 35.52246094 C29.82130003 40.32108511 32.94769919 45.1136958 36.07421875 49.90625 C36.68861816 50.84839355 37.30301758 51.79053711 37.93603516 52.76123047 C44.7956202 63.27855132 51.66877729 73.78699379 58.54199219 84.29541016 C60.68058917 87.56526588 62.81887789 90.83532293 64.95703125 94.10546875 C66.0080603 95.7128894 66.0080603 95.7128894 67.08032227 97.3527832 C68.48985788 99.50874417 69.89920118 101.66483088 71.30834961 103.82104492 C74.93238536 109.36573171 78.5603929 114.90775809 82.1953125 120.4453125 C86.37786053 126.81864861 90.54635105 133.20102288 94.69921875 139.59375 C95.52268799 140.86025391 95.52268799 140.86025391 96.36279297 142.15234375 C97.77613066 144.33523088 99.17796789 146.5249064 100.57421875 148.71875 C100.96085693 149.31510254 101.34749512 149.91145508 101.74584961 150.52587891 C107.87700811 160.26582192 109.53983883 170.073647 107.078125 181.46875 C103.84373387 190.66879589 97.33391596 197.28656871 88.77734375 201.71875 C84.08909692 203.69274866 79.65413761 203.74213105 74.61679077 203.74092102 C73.79555115 203.74459771 72.97431154 203.7482744 72.12818587 203.7520625 C69.37239753 203.76308803 66.61664692 203.76694128 63.86083984 203.77075195 C61.88635132 203.7770175 59.91186398 203.78366438 57.93737793 203.79066467 C51.44914571 203.8116981 44.96091328 203.82206697 38.47265625 203.83203125 C36.23788058 203.83607919 34.00310504 203.84019613 31.76832962 203.84438133 C21.26794009 203.86343209 10.76755759 203.87766289 0.2671541 203.8859933 C-11.84715689 203.89576312 -23.96128503 203.92207657 -36.0755316 203.96249419 C-45.4429962 203.99267316 -54.81040844 204.00746391 -64.1779207 204.01077431 C-69.77075143 204.01312292 -75.3633868 204.02205884 -80.95616531 204.04723549 C-86.22080074 204.07055197 -91.48511266 204.07473495 -96.74978638 204.06447411 C-98.67744397 204.06397949 -100.60511769 204.07027781 -102.53272629 204.08403015 C-115.92376756 204.17418812 -126.120941 203.50842673 -136.3203125 193.88671875 C-141.93269305 187.38875547 -144.44951781 180.00385307 -144.61328125 171.53125 C-144.65066406 170.28214844 -144.68804687 169.03304687 -144.7265625 167.74609375 C-144.18840232 157.82256423 -137.95593738 149.43452516 -132.67578125 141.40625 C-131.94781503 140.28616192 -131.22052716 139.16563268 -130.49389648 138.04467773 C-126.44649129 131.82241166 -122.36453203 125.62241997 -118.22436523 119.46142578 C-114.17624113 113.43588842 -110.20788356 107.35871603 -106.23828125 101.28125 C-105.87533966 100.72559357 -105.51239807 100.16993713 -105.13845825 99.59744263 C-103.27144019 96.73888166 -101.40488914 93.88001616 -99.53857422 91.02099609 C-95.25343726 84.45720845 -90.96189768 77.89760257 -86.67089844 71.33764648 C-83.16193721 65.97253639 -79.65582023 60.6056162 -76.15625 55.234375 C-72.65028956 49.85404252 -69.12810421 44.48451969 -65.60302734 39.11669922 C-63.53145278 35.95424409 -61.48213939 32.77773929 -59.43476868 29.59957886 C-57.66666796 26.86173743 -55.88541487 24.13260503 -54.10171509 21.40490723 C-53.2470371 20.09184403 -52.39771419 18.77527661 -51.55429077 17.45495605 C-45.54358228 8.05450071 -39.16520034 -0.79145758 -27.8828125 -3.97265625 C-18.09139365 -5.61690359 -8.55960106 -5.23167467 0 0 Z M-30.8671875 18.43920898 C-35.33528704 24.14679147 -39.28302461 30.06914128 -43.11328125 36.21875 C-44.35164311 38.1856654 -45.59122868 40.15181088 -46.83203125 42.1171875 C-47.72728516 43.53596191 -47.72728516 43.53596191 -48.640625 44.98339844 C-50.75150588 48.30244821 -52.91643638 51.58117948 -55.11328125 54.84375 C-59.58567197 61.49506996 -63.98033304 68.19567611 -68.36328125 74.90625 C-68.72604156 75.46163452 -69.08880188 76.01701904 -69.46255493 76.5892334 C-71.32975496 79.44806977 -73.19649366 82.30720695 -75.06298828 85.16650391 C-78.63913474 90.64429054 -82.2203017 96.11879515 -85.80078125 101.59375 C-87.21486127 103.75649896 -88.62892374 105.9192594 -90.04296875 108.08203125 C-92.9019753 112.45466816 -95.76139122 116.82703699 -98.62109375 121.19921875 C-102.14844064 126.59229614 -105.67467031 131.98610256 -109.20019531 137.38037109 C-110.62884144 139.56584766 -112.05789308 141.75105918 -113.48730469 143.93603516 C-115.59279781 147.15462037 -117.69693442 150.37408852 -119.80078125 153.59375 C-120.44225098 154.5736792 -121.0837207 155.5536084 -121.74462891 156.56323242 C-122.33034668 157.46017822 -122.91606445 158.35712402 -123.51953125 159.28125 C-124.03451172 160.06886719 -124.54949219 160.85648438 -125.08007812 161.66796875 C-128.09347432 166.42190259 -127.85466166 171.07834934 -127.30078125 176.59375 C-124.98417565 181.49426184 -122.01883387 183.99400672 -117.30078125 186.59375 C-113.09919774 187.72737258 -108.94415942 187.73945969 -104.62286377 187.73419189 C-103.47441896 187.73864858 -103.47441896 187.73864858 -102.30277324 187.7431953 C-99.74122571 187.75185614 -97.17972506 187.75338833 -94.61816406 187.75488281 C-92.77983501 187.75951283 -90.94150691 187.76453774 -89.10317993 187.76992798 C-84.11129574 187.78303614 -79.11942499 187.78949384 -74.12752628 187.79393864 C-71.00722384 187.79687188 -67.88692505 187.80097717 -64.76662445 187.80544281 C-54.99933237 187.81911349 -45.23204866 187.82878228 -35.46474767 187.8326447 C-24.19831397 187.83712471 -12.93200163 187.8546718 -1.66560483 187.8836453 C7.0487921 187.9052763 15.76315492 187.91534974 24.4775784 187.91668582 C29.67964678 187.91773281 34.88160099 187.92361828 40.08364105 187.94150543 C44.97890299 187.95801063 49.87396526 187.9601297 54.76924515 187.95136642 C56.56186331 187.95059737 58.35449231 187.9549214 60.14708328 187.96482468 C74.9357109 188.47572153 74.9357109 188.47572153 87.63671875 181.90625 C90.32681799 177.58578759 92.30072142 173.73235049 91.30712891 168.54785156 C89.29378016 162.37887165 86.27603731 157.45497199 82.57421875 152.15625 C81.30594448 150.29779365 80.03908067 148.43837417 78.7734375 146.578125 C77.77449463 145.11729492 77.77449463 145.11729492 76.75537109 143.62695312 C73.23264576 138.43028493 69.81275391 133.16695582 66.38671875 127.90625 C64.94279934 125.69395102 63.49878816 123.48171193 62.0546875 121.26953125 C61.33458496 120.16561035 60.61448242 119.06168945 59.87255859 117.92431641 C56.31873488 112.47820731 52.7587092 107.03615634 49.19921875 101.59375 C47.78252138 99.42710341 46.36585473 97.26043673 44.94921875 95.09375 C44.24796875 94.02125 43.54671875 92.94875 42.82421875 91.84375 C36.44921875 82.09375 36.44921875 82.09375 34.32299805 78.84179688 C32.9105057 76.68157177 31.49790854 74.52141518 30.08520508 72.36132812 C26.10975959 66.28236799 22.13725565 60.2015056 18.16807556 54.11845398 C14.99731517 49.26029104 11.81681922 44.40853993 8.63574219 39.55712891 C6.80569895 36.7566921 4.98922657 33.94792107 3.17578125 31.13671875 C2.12139695 29.51803163 1.06673001 27.89952856 0.01171875 26.28125 C-0.44501221 25.56453125 -0.90174316 24.8478125 -1.37231445 24.109375 C-4.56433349 19.24579744 -7.98891793 15.24968166 -13.30078125 12.59375 C-20.7811467 11.77306242 -25.77208837 12.4364262 -30.8671875 18.43920898 Z " fill="#000000" transform="translate(250.30078125,212.40625)"/>
<path d="M0 0 C6.54540509 4.88920207 12.32794259 11.36337985 13.55200195 19.71826172 C13.69452758 21.96631454 13.72072789 24.1812223 13.69140625 26.43359375 C13.68455811 27.2548877 13.67770996 28.07618164 13.6706543 28.92236328 C13.2392352 45.904441 8.81185535 67.82470548 -3.390625 80.375 C-8.09229709 84.3902966 -11.18113392 85.04848536 -17.21484375 84.953125 C-22.6023689 84.37945334 -25.5590671 81.12747218 -28.80859375 77.12109375 C-40.31808356 60.69609266 -44.65788237 37.45332546 -42.74609375 17.68359375 C-40.41716433 8.42467924 -33.38243348 2.59266966 -25.55859375 -2.31640625 C-16.80259866 -4.6130607 -7.95197365 -4.62445914 0 0 Z M-23.74609375 17.68359375 C-27.78737352 23.84173435 -26.39422606 32.80605529 -25.0234375 39.73828125 C-22.98329623 48.79039134 -19.90075179 57.37427767 -15.74609375 65.68359375 C-15.08609375 65.68359375 -14.42609375 65.68359375 -13.74609375 65.68359375 C-6.85541606 51.8457574 -2.41455305 37.2425556 -3.74609375 21.68359375 C-4.91924868 18.29785646 -6.72001454 16.43605184 -9.62109375 14.30859375 C-15.55394712 12.56363688 -19.01758866 13.81481686 -23.74609375 17.68359375 Z " fill="#000000" transform="translate(246.74609375,251.31640625)"/>
<path d="M0 0 C5.23988008 3.17773373 9.18170384 7.85847691 12 13.25 C13.45595008 21.66215601 13.40727994 28.75225744 9.12109375 36.3046875 C5.56988826 41.30663608 1.42164424 44.6230447 -4.4375 46.5 C-12.28153876 47.30595858 -20.04684916 47.61823937 -26.4375 42.5 C-32.84619509 36.51175607 -35.4454926 31.48455614 -35.8125 22.6875 C-35.65902166 15.79802772 -34.28358505 10.60157911 -29.56640625 5.4609375 C-21.52951389 -1.92267249 -10.41997604 -4.61747958 0 0 Z M-16.8125 17.125 C-18.92456506 20.21186432 -19.04945145 21.8282913 -18.4375 25.5 C-16.9375 28 -16.9375 28 -14.4375 29.5 C-10.7657913 30.11195145 -9.14936432 29.98706506 -6.0625 27.875 C-3.95043494 24.78813568 -3.82554855 23.1717087 -4.4375 19.5 C-5.9375 17 -5.9375 17 -8.4375 15.5 C-12.1092087 14.88804855 -13.72563568 15.01293494 -16.8125 17.125 Z " fill="#000000" transform="translate(243.4375,345.5)"/>
<path d="M0 0 C0.87269531 -0.0038269 1.74539062 -0.00765381 2.64453125 -0.01159668 C4.48699092 -0.0143149 6.32948924 -0.00695994 8.171875 0.00976562 C10.99045934 0.03117752 13.80649485 0.00996199 16.625 -0.015625 C18.41667229 -0.01298171 20.20834299 -0.00785669 22 0 C22.84175781 -0.00809692 23.68351562 -0.01619385 24.55078125 -0.02453613 C30.38715618 0.06889601 30.38715618 0.06889601 33.52929688 2.43945312 C35.12144695 4.7039853 35.542797 5.7922417 35.5 8.53125 C35.5103125 9.19125 35.520625 9.85125 35.53125 10.53125 C34.72011424 13.58493756 33.53019712 14.62236769 31 16.53125 C28.00263779 17.13239553 25.04890723 17.09182764 22 17.0625 C21.12730469 17.0663269 20.25460938 17.07015381 19.35546875 17.07409668 C17.51300908 17.0768149 15.67051076 17.06945994 13.828125 17.05273438 C11.00954066 17.03132248 8.19350515 17.05253801 5.375 17.078125 C3.58332771 17.07548171 1.79165701 17.07035669 0 17.0625 C-0.84175781 17.07059692 -1.68351563 17.07869385 -2.55078125 17.08703613 C-8.38715618 16.99360399 -8.38715618 16.99360399 -11.52929688 14.62304688 C-13.12144695 12.3585147 -13.542797 11.2702583 -13.5 8.53125 C-13.51546875 7.54125 -13.51546875 7.54125 -13.53125 6.53125 C-11.69061453 -0.39820116 -5.94975317 -0.05723107 0 0 Z " fill="#000000" transform="translate(173,127.46875)"/>
<path d="M0 0 C0.87269531 -0.0038269 1.74539062 -0.00765381 2.64453125 -0.01159668 C4.48699092 -0.0143149 6.32948924 -0.00695994 8.171875 0.00976562 C10.99045934 0.03117752 13.80649485 0.00996199 16.625 -0.015625 C18.41667229 -0.01298171 20.20834299 -0.00785669 22 0 C22.84175781 -0.00809692 23.68351562 -0.01619385 24.55078125 -0.02453613 C30.38715618 0.06889601 30.38715618 0.06889601 33.52929688 2.43945312 C35.12144695 4.7039853 35.542797 5.7922417 35.5 8.53125 C35.5103125 9.19125 35.520625 9.85125 35.53125 10.53125 C34.72011424 13.58493756 33.53019712 14.62236769 31 16.53125 C28.00263779 17.13239553 25.04890723 17.09182764 22 17.0625 C21.12730469 17.0663269 20.25460938 17.07015381 19.35546875 17.07409668 C17.51300908 17.0768149 15.67051076 17.06945994 13.828125 17.05273438 C11.00954066 17.03132248 8.19350515 17.05253801 5.375 17.078125 C3.58332771 17.07548171 1.79165701 17.07035669 0 17.0625 C-0.84175781 17.07059692 -1.68351562 17.07869385 -2.55078125 17.08703613 C-8.38715618 16.99360399 -8.38715618 16.99360399 -11.52929688 14.62304688 C-13.12144695 12.3585147 -13.542797 11.2702583 -13.5 8.53125 C-13.51546875 7.54125 -13.51546875 7.54125 -13.53125 6.53125 C-11.69061453 -0.39820116 -5.94975317 -0.05723107 0 0 Z " fill="#000000" transform="translate(117,127.46875)"/>
<path d="M0 0 C0.87269531 -0.0038269 1.74539062 -0.00765381 2.64453125 -0.01159668 C4.48699092 -0.0143149 6.32948924 -0.00695994 8.171875 0.00976562 C10.99045934 0.03117752 13.80649485 0.00996199 16.625 -0.015625 C18.41667229 -0.01298171 20.20834299 -0.00785669 22 0 C22.84175781 -0.00809692 23.68351562 -0.01619385 24.55078125 -0.02453613 C30.38715618 0.06889601 30.38715618 0.06889601 33.52929688 2.43945312 C35.12144695 4.7039853 35.542797 5.7922417 35.5 8.53125 C35.5103125 9.19125 35.520625 9.85125 35.53125 10.53125 C34.72011424 13.58493756 33.53019712 14.62236769 31 16.53125 C28.00263779 17.13239553 25.04890723 17.09182764 22 17.0625 C21.12730469 17.0663269 20.25460938 17.07015381 19.35546875 17.07409668 C17.51300908 17.0768149 15.67051076 17.06945994 13.828125 17.05273438 C11.00954066 17.03132248 8.19350515 17.05253801 5.375 17.078125 C3.58332771 17.07548171 1.79165701 17.07035669 0 17.0625 C-0.84175781 17.07059692 -1.68351562 17.07869385 -2.55078125 17.08703613 C-8.38715618 16.99360399 -8.38715618 16.99360399 -11.52929688 14.62304688 C-13.12144695 12.3585147 -13.542797 11.2702583 -13.5 8.53125 C-13.51546875 7.54125 -13.51546875 7.54125 -13.53125 6.53125 C-11.69061453 -0.39820116 -5.94975317 -0.05723107 0 0 Z " fill="#000000" transform="translate(61,127.46875)"/>
<path d="M0 0 C2.85695513 1.71417308 3.01592889 3.05628208 3.9375 6.3125 C4.02669951 11.57527118 1.61691981 14.23335319 -1.7980957 17.96459961 C-3.8787177 20.11103387 -5.99319895 22.21692813 -8.125 24.3125 C-8.85332031 25.04017578 -9.58164062 25.76785156 -10.33203125 26.51757812 C-16.72305318 32.85543998 -16.72305318 32.85543998 -21.3125 33.375 C-25 33 -25 33 -27.9375 30.9375 C-30 28 -30 28 -30.75 24.6875 C-29.65634546 19.31036519 -26.82174048 16.79621967 -23 13 C-21.99994841 11.96615146 -21.00134514 10.93090071 -20.00390625 9.89453125 C-18.94151273 8.80331437 -17.87770743 7.71347021 -16.8125 6.625 C-16.30170898 6.10075439 -15.79091797 5.57650879 -15.26464844 5.03637695 C-10.03749449 -0.19845896 -7.37892622 -1.74410983 0 0 Z " fill="#000000" transform="translate(474,67)"/>
<path d="M0 0 C1.04269043 -0.00574036 1.04269043 -0.00574036 2.10644531 -0.01159668 C3.57228041 -0.0143118 5.03816428 -0.00697835 6.50390625 0.00976562 C8.74328975 0.03118581 10.97946587 0.00995557 13.21875 -0.015625 C14.64584039 -0.01298165 16.07292879 -0.0078565 17.5 0 C19.44132812 0.00676758 19.44132812 0.00676758 21.421875 0.01367188 C25.25919979 0.61043894 26.44070951 1.47408051 28.75 4.53125 C29.28125 6.53125 29.28125 6.53125 29.25 8.53125 C29.2603125 9.19125 29.270625 9.85125 29.28125 10.53125 C28.48927074 13.51281897 27.16446325 14.62735121 24.75 16.53125 C21.421875 17.04882812 21.421875 17.04882812 17.5 17.0625 C16.80487305 17.0663269 16.10974609 17.07015381 15.39355469 17.07409668 C13.92771959 17.0768118 12.46183572 17.06947835 10.99609375 17.05273438 C8.75671025 17.03131419 6.52053413 17.05254443 4.28125 17.078125 C2.85415961 17.07548165 1.42707121 17.0703565 0 17.0625 C-1.29421875 17.05798828 -2.5884375 17.05347656 -3.921875 17.04882812 C-7.75919979 16.45206106 -8.94070951 15.58841949 -11.25 12.53125 C-11.78125 10.53125 -11.78125 10.53125 -11.75 8.53125 C-11.76546875 7.54125 -11.76546875 7.54125 -11.78125 6.53125 C-10.16044839 0.42940865 -5.57509951 0.01943511 0 0 Z " fill="#000000" transform="translate(467.25,111.46875)"/>
<path d="M0 0 C0.66 -0.0103125 1.32 -0.020625 2 -0.03125 C4.98156897 0.76072926 6.09610121 2.08553675 8 4.5 C8.51757812 7.828125 8.51757812 7.828125 8.53125 11.75 C8.5350769 12.44512695 8.53890381 13.14025391 8.54284668 13.85644531 C8.5455618 15.32228041 8.53822835 16.78816428 8.52148438 18.25390625 C8.50006419 20.49328975 8.52129443 22.72946587 8.546875 24.96875 C8.54423165 26.39584039 8.5391065 27.82292879 8.53125 29.25 C8.52673828 30.54421875 8.52222656 31.8384375 8.51757812 33.171875 C7.92081106 37.00919979 7.05716949 38.19070951 4 40.5 C2 41.03125 2 41.03125 0 41 C-0.99 41.01546875 -0.99 41.01546875 -2 41.03125 C-4.98156897 40.23927074 -6.09610121 38.91446325 -8 36.5 C-8.51757812 33.171875 -8.51757812 33.171875 -8.53125 29.25 C-8.5350769 28.55487305 -8.53890381 27.85974609 -8.54284668 27.14355469 C-8.5455618 25.67771959 -8.53822835 24.21183572 -8.52148438 22.74609375 C-8.50006419 20.50671025 -8.52129443 18.27053413 -8.546875 16.03125 C-8.54423165 14.60415961 -8.5391065 13.17707121 -8.53125 11.75 C-8.52673828 10.45578125 -8.52222656 9.1615625 -8.51757812 7.828125 C-7.7418101 2.83979026 -5.19836111 -0.08122439 0 0 Z " fill="#000000" transform="translate(424,47.5)"/>
</svg>
