<svg xmlns="http://www.w3.org/2000/svg" viewBox="0 0 500 500"><g id="freepik--background-simple--inject-290"><path d="M44.88,110.16l.78,0a17.54,17.54,0,0,0,15.28-9.8A16.53,16.53,0,0,0,61.85,98a18.42,18.42,0,0,0-3.56-17c-2.31-2.72-5.52-4.91-6.68-8.27-1.52-4.39.94-9,3.31-13s4.81-8.58,3.27-13a11.43,11.43,0,0,0-6-6.07c-6.94-3.41-15.59-2.08-21.93,2.22S19.74,54.11,17.41,61.38c-3.27,10.2-3.07,21.74,1.84,31.35S34.09,109.63,44.88,110.16Z" style="fill:#f5f5f5"></path><path d="M456.63,320.51l-.77-.1a17.55,17.55,0,0,0-16.73,7.06,17.18,17.18,0,0,0-1.3,2.14,18.43,18.43,0,0,0,.61,17.39c1.82,3.08,4.6,5.78,5.18,9.29.75,4.58-2.46,8.72-5.47,12.21s-6.21,7.63-5.44,12.21c.48,2.86,2.51,5.28,4.87,7,6.26,4.54,15,4.7,22,1.54s12.28-9.22,15.82-16c5-9.49,6.73-20.9,3.53-31.21S467.18,322.88,456.63,320.51Z" style="fill:#f5f5f5"></path><circle cx="459.45" cy="281.91" r="24.25" transform="translate(-64.77 407.45) rotate(-45)" style="fill:#f5f5f5"></circle><circle cx="42.2" cy="147.69" r="24.25" transform="translate(-111.25 154.37) rotate(-76.55)" style="fill:#f5f5f5"></circle></g><g id="freepik--Floor--inject-290"><path d="M471.31,487.86c0,.14-99.09.26-221.3.26S28.69,488,28.69,487.86s99.07-.26,221.32-.26S471.31,487.71,471.31,487.86Z" style="fill:#263238"></path></g><g id="freepik--Wall--inject-290"><rect x="78.7" y="12.77" width="343.13" height="474.18" style="fill:#fafafa"></rect><rect x="230.42" y="41.3" width="37.07" height="14.42" style="fill:#f5f5f5"></rect><path d="M267.5,55.72a1.67,1.67,0,0,1,0-.27c0-.2,0-.45,0-.76l0-2.88c0-2.51-.06-6.09-.1-10.51l.18.18-37.07.08c-.24.23.31-.32.25-.26h0v7.39c0,2.41,0,4.76,0,7l-.25-.25,26.51.12,7.74.07,2.09,0,.54,0h.2a5.47,5.47,0,0,1-.68,0l-2,0-7.68.07L230.42,56h-.25V48.71c0-1.21,0-2.43,0-3.67V41.32h0c0,.05.5-.5.27-.26l37.07.08h.18v.18c0,4.47-.08,8.08-.1,10.62l0,2.84c0,.3,0,.53,0,.73S267.5,55.73,267.5,55.72Z" style="fill:#263238"></path><path d="M335.68,195.63s0-.09,0-.27,0-.45,0-.75l0-2.88c0-2.52-.06-6.1-.1-10.52l.18.18-37.07.08.26-.26h0v7.4c0,2.41,0,4.76,0,7l-.25-.25,26.5.12,7.74.07,2.09,0,.55,0h.19a5.47,5.47,0,0,1-.68,0l-2,0-7.69.07-26.67.11h-.25v-.25c0-2.25,0-4.6,0-7v-7.4h0l.26-.26,37.07.08h.19v.18c0,4.47-.07,8.08-.09,10.63,0,1.2,0,2.15,0,2.83,0,.3,0,.54,0,.73S335.69,195.64,335.68,195.63Z" style="fill:#263238"></path><polygon points="298.61 195.63 301.96 200.59 337.8 200.59 335.68 181.21 335.68 195.63 298.61 195.63" style="opacity:0.2"></polygon><path d="M225.14,113.34s0-.1,0-.27,0-.45,0-.76l-.05-2.88c0-2.51-.05-6.09-.1-10.52l.18.19-37.07.08.26-.26h0v7.39q0,3.61,0,7l-.25-.25,26.5.12,7.74.07,2.09,0H225a.76.76,0,0,1,.19,0,5.47,5.47,0,0,1-.68,0l-2,0-7.69.07-26.67.12h-.25v-.25c0-2.26,0-4.6,0-7V98.94h0c-.06,0,.49-.5.26-.27l37.07.08h.19v.18c0,4.48-.07,8.09-.09,10.63l0,2.84c0,.29,0,.53,0,.72S225.15,113.35,225.14,113.34Z" style="fill:#263238"></path><polygon points="188.07 113.34 191.42 118.3 227.26 118.3 225.14 98.92 225.14 113.34 188.07 113.34" style="opacity:0.2"></polygon><path d="M336.7,48.54a1.52,1.52,0,0,1,0-.27c0-.2,0-.45,0-.76l0-2.88c0-2.51-.06-6.09-.1-10.51l.18.18-37.07.08c-.24.23.31-.32.25-.26h0v7.39c0,2.41,0,4.76,0,7l-.25-.25,26.51.12,7.74.07,2.09,0,.54,0h.2a5.47,5.47,0,0,1-.68,0l-2,0-7.68.07-26.68.12h-.25V41.53c0-1.21,0-2.43,0-3.67V34.14h0c-.05.05.5-.5.27-.26l37.07.08h.18v.18c0,4.47-.08,8.08-.1,10.62,0,1.21,0,2.15,0,2.84,0,.3,0,.54,0,.73S336.7,48.55,336.7,48.54Z" style="fill:#263238"></path><polygon points="299.62 48.54 302.98 53.5 338.82 53.5 336.7 34.12 336.7 48.54 299.62 48.54" style="opacity:0.2"></polygon><path d="M214.19,350.36a1.67,1.67,0,0,1,0-.27c0-.21,0-.45,0-.76,0-.7,0-1.66,0-2.88,0-2.52-.06-6.09-.1-10.52l.18.18-37.07.08c-.24.23.31-.32.25-.26h0v7.4q0,3.63,0,7l-.25-.25,26.51.11,7.74.07,2.09,0,.54,0,.2,0a5.47,5.47,0,0,1-.68,0l-2,0-7.68.07-26.68.12h-.25v-7.27c0-1.2,0-2.43,0-3.66v-3.74h0c0,.06.5-.49.27-.26l37.07.08h.18v.18c0,4.47-.08,8.09-.1,10.63l0,2.84c0,.29,0,.53,0,.72S214.19,350.36,214.19,350.36Z" style="fill:#263238"></path><polygon points="177.11 350.36 180.47 355.31 216.31 355.31 214.19 335.93 214.19 350.36 177.11 350.36" style="opacity:0.2"></polygon><path d="M131.7,103.31a1.39,1.39,0,0,1,0-.27c0-.2,0-.45,0-.76l0-2.87c0-2.52-.06-6.1-.1-10.52l.18.18-37.07.08c-.24.23.31-.32.26-.26h0v1.87c0,.62,0,1.25,0,1.86V96.3c0,2.41,0,4.76,0,7l-.25-.25,26.51.12,7.74.07,2.09,0,.54,0h.2a5.47,5.47,0,0,1-.68,0l-2,0-7.68.07-26.68.11h-.24v-.25c0-2.25,0-4.6,0-7V92.63c0-.61,0-1.24,0-1.86V88.9h0c0,.06.5-.49.27-.26l37.07.08h.18v.18c0,4.47-.07,8.08-.1,10.62l0,2.84c0,.3,0,.54,0,.73S131.71,103.32,131.7,103.31Z" style="fill:#263238"></path><path d="M150.24,88.89a.91.91,0,0,1,0-.27c0-.2,0-.45,0-.76,0-.7,0-1.66,0-2.88,0-2.51-.05-6.09-.09-10.51l.18.18-37.08.08.26-.26h0v7.39c0,2.41,0,4.75,0,7l-.25-.25,26.51.12,7.74.07,2.08,0H150l.2,0a5.77,5.77,0,0,1-.69,0l-2,0-7.68.07-26.68.12h-.25v-.25q0-3.39,0-7V74.49h0c-.06,0,.5-.5.26-.27l37.08.08h.18v.19c0,4.47-.08,8.08-.1,10.62,0,1.2,0,2.15,0,2.84,0,.29,0,.53,0,.72S150.24,88.9,150.24,88.89Z" style="fill:#263238"></path><rect x="115.03" y="103.31" width="37.07" height="14.42" style="fill:#ebebeb"></rect><rect x="206.61" y="386.82" width="37.07" height="14.42" style="fill:#ebebeb"></rect><rect x="350" y="436.53" width="37.07" height="14.42" style="fill:#ebebeb"></rect><rect x="135.7" y="441.01" width="37.07" height="14.42" style="fill:#ebebeb"></rect><rect x="354.22" y="55.72" width="37.07" height="14.42" style="fill:#f5f5f5"></rect><rect x="273.3" y="125.8" width="37.07" height="14.42" style="fill:#f5f5f5"></rect><rect x="108.96" y="342.73" width="37.07" height="14.42" style="fill:#f5f5f5"></rect><rect x="354.22" y="349.94" width="37.07" height="14.42" style="fill:#ebebeb"></rect><rect x="256.55" y="251.97" width="37.07" height="14.42" style="fill:#ebebeb"></rect><rect x="115.03" y="251.32" width="37.07" height="14.42" style="fill:#ebebeb"></rect><rect x="176.6" y="209.81" width="37.07" height="14.42" style="fill:#ebebeb"></rect><rect x="159.08" y="31.29" width="37.07" height="14.42" style="fill:#f5f5f5"></rect><rect x="354.22" y="253.34" width="37.07" height="14.42" style="fill:#ebebeb"></rect><path d="M256.45,70.14a1.39,1.39,0,0,1,0-.27c0-.2,0-.45,0-.75,0-.7,0-1.66,0-2.88,0-2.52-.06-6.09-.1-10.52l.18.18L219.38,56c-.24.23.31-.32.26-.26h0V70.14l-.25-.25,26.5.12,7.74.07,2.09,0,.54,0h.2a3,3,0,0,1-.68,0l-2,0-7.68.07-26.67.11h-.25v-.26c0-2.25,0-4.6,0-7V59.47c0-.62,0-1.24,0-1.87V55.73h0c-.05.06.5-.49.27-.26l37.07.08h.18v.18c0,4.47-.07,8.09-.1,10.63l0,2.84c0,.29,0,.53,0,.72S256.46,70.15,256.45,70.14Z" style="fill:#263238"></path><rect x="341.48" y="83.34" width="37.07" height="14.42" style="fill:#f5f5f5"></rect><path d="M378.55,97.76s0-.09,0-.27,0-.45,0-.75c0-.7,0-1.66,0-2.88,0-2.52-.05-6.09-.1-10.52l.18.18-37.07.08.26-.26h0v7.4c0,2.41,0,4.76,0,7l-.25-.25,26.5.12,7.74.07,2.09,0,.55,0h.19a3,3,0,0,1-.68,0l-2,0-7.69.07L341.48,98h-.25v-.26c0-2.25,0-4.6,0-7v-7.4h0l.26-.26,37.07.08h.19v.18c0,4.47-.07,8.09-.09,10.63l-.05,2.84c0,.29,0,.53,0,.72S378.56,97.77,378.55,97.76Z" style="fill:#263238"></path><path d="M395.6,112.19a1.67,1.67,0,0,1,0-.27c0-.2,0-.45,0-.76,0-.7,0-1.66,0-2.88,0-2.51-.06-6.09-.1-10.52l.18.19L358.53,98c-.24.23.31-.32.26-.26h0v3.72c0,1.24,0,2.46,0,3.67v7l-.25-.25,26.5.12,7.74.07,2.09,0h.54l.2,0a5.47,5.47,0,0,1-.68,0l-2,0-7.68.07-26.67.12h-.25v-.25q0-3.39,0-7V97.79h0c-.06,0,.49-.5.26-.27l37.07.08h.18v.18c0,4.48-.07,8.09-.1,10.63,0,1.2,0,2.15,0,2.84,0,.29,0,.53,0,.72S395.61,112.2,395.6,112.19Z" style="fill:#263238"></path><rect x="128.65" y="162.49" width="37.07" height="14.42" style="fill:#ebebeb"></rect><path d="M165.72,176.92a1.67,1.67,0,0,1,0-.27c0-.2,0-.45,0-.76,0-.7,0-1.66,0-2.88,0-2.52-.06-6.09-.1-10.52l.18.18-37.07.08.26-.26h0v3.74c0,1.23,0,2.46,0,3.66v7l-.25-.25,26.5.11,7.74.07,2.09,0h.54l.2,0a5.47,5.47,0,0,1-.68,0l-2,0-7.68.07-26.67.12h-.25v-.25q0-3.39,0-7v-7.4h0l.26-.26,37.07.08h.18v.18c0,4.47-.07,8.09-.1,10.63l0,2.84c0,.29,0,.53,0,.72A1.1,1.1,0,0,1,165.72,176.92Z" style="fill:#263238"></path><path d="M182.77,191.34a.91.91,0,0,1,0-.27c0-.2,0-.45,0-.76l0-2.88c0-2.51-.05-6.09-.09-10.51l.18.18-37.08.08.26-.26h0v7.39c0,2.41,0,4.76,0,7l-.25-.25,26.51.12,7.74.07,2.08,0,.55,0h.2a5.77,5.77,0,0,1-.69,0l-2,0-7.68.07-26.68.12h-.25v-.25c0-2.25,0-4.6,0-7v-7.39h0l.26-.26,37.08.08H183v.18c0,4.47-.08,8.08-.1,10.62l0,2.84c0,.3,0,.53,0,.73A1.66,1.66,0,0,1,182.77,191.34Z" style="fill:#263238"></path><rect x="371.27" y="190.9" width="37.07" height="14.42" style="fill:#f5f5f5"></rect><path d="M408.34,205.32s0-.09,0-.27,0-.45,0-.75c0-.7,0-1.66,0-2.88,0-2.52-.06-6.09-.1-10.52l.18.18-37.07.08.26-.26h0v3.74c0,1.23,0,2.46,0,3.66v7l-.25-.25,26.5.12,7.74.07,2.09,0,.55,0h.19a4.12,4.12,0,0,1-.68,0l-2,0-7.68.07-26.67.11H371v-.26c0-2.25,0-4.6,0-7v-7.4h0l.26-.26,37.07.08h.18v.18c0,4.47-.07,8.08-.1,10.63,0,1.2,0,2.15,0,2.83,0,.3,0,.54,0,.73S408.35,205.33,408.34,205.32Z" style="fill:#263238"></path><path d="M278.52,335.93a1.52,1.52,0,0,1,0-.27c0-.2,0-.45,0-.76,0-.69,0-1.66,0-2.88,0-2.51-.06-6.09-.1-10.51l.18.18-37.07.08c-.24.23.31-.32.25-.26h0v7.39c0,2.41,0,4.76,0,7l-.25-.25,26.51.12,7.74.07,2.09,0,.54,0h.2a5.67,5.67,0,0,1-.68,0l-2,0-7.68.07-26.68.12h-.25v-7.26c0-1.21,0-2.43,0-3.67v-3.72h0c-.05.05.5-.5.27-.26l37.07.08h.18v.18c0,4.47-.08,8.08-.1,10.62,0,1.21,0,2.15,0,2.84,0,.3,0,.54,0,.73S278.52,335.94,278.52,335.93Z" style="fill:#263238"></path><path d="M295.56,350.36s0-.1,0-.27,0-.45,0-.76c0-.7,0-1.66,0-2.88,0-2.52-.06-6.09-.1-10.52l.18.18-37.07.08.26-.26h0v7.4q0,3.63,0,7l-.25-.25,26.5.11,7.74.07,2.09,0,.55,0,.19,0a5.47,5.47,0,0,1-.68,0l-2,0-7.69.07-26.67.12h-.25v-.25c0-2.26,0-4.6,0-7v-7.4h0l.26-.26,37.07.08h.19v.18c0,4.47-.07,8.09-.09,10.63l0,2.84c0,.29,0,.53,0,.72A.64.64,0,0,1,295.56,350.36Z" style="fill:#263238"></path><path d="M144.57,386.82a.91.91,0,0,1,0-.27c0-.2,0-.45,0-.76l-.05-2.88c0-2.52,0-6.09-.09-10.52l.18.18-37.08.08c-.23.24.32-.31.26-.26h0v7.38c0,2.42,0,4.76,0,7l-.25-.25,26.51.11,7.74.07,2.08,0h.55l.2,0a5.77,5.77,0,0,1-.69,0l-2,0-7.68.07-26.68.12h-.25v-.25q0-3.39,0-7v-7.38h0l.26-.26,37.08.08h.18v.18c0,4.47-.08,8.09-.1,10.63,0,1.2,0,2.15-.05,2.84,0,.29,0,.53,0,.72S144.57,386.82,144.57,386.82Z" style="fill:#263238"></path><path d="M161.61,401.24s0-.1,0-.27,0-.45,0-.76c0-.69,0-1.66,0-2.88,0-2.51-.06-6.09-.1-10.51l.18.18-37.07.08.26-.26h0v7.39c0,2.41,0,4.76,0,7l-.25-.25,26.5.12,7.74.07,2.09,0,.55,0h.19a5.47,5.47,0,0,1-.68,0l-2,0-7.69.07-26.67.12h-.25v-.25c0-2.25,0-4.6,0-7v-7.39h0c-.06.05.49-.5.26-.26l37.07.08h.18v.18c0,4.47-.07,8.08-.09,10.62l0,2.84c0,.3,0,.53,0,.73S161.62,401.25,161.61,401.24Z" style="fill:#263238"></path><path d="M260,441s0-.1,0-.27,0-.45,0-.76l-.05-2.88c0-2.52-.06-6.09-.1-10.52l.18.18-37.07.08.26-.26h0V434q0,3.63,0,7l-.25-.25,26.5.11,7.74.07,2.09,0,.55,0,.19,0a5.47,5.47,0,0,1-.68,0l-2,0-7.69.07-26.67.12h-.25V441c0-2.26,0-4.6,0-7v-7.4h0l.26-.26,37.07.08h.19v.18c0,4.47-.07,8.09-.09,10.63l0,2.84c0,.29,0,.53,0,.72A.64.64,0,0,1,260,441Z" style="fill:#263238"></path><path d="M277.05,455.43a1.67,1.67,0,0,1,0-.27c0-.2,0-.45,0-.76l0-2.88c0-2.51-.06-6.09-.1-10.51l.18.18-37.07.08c-.24.23.31-.32.26-.26h0v3.72c0,1.24,0,2.46,0,3.67v7l-.25-.25,26.5.12,7.74.07,2.09,0h.54l.2,0a5.47,5.47,0,0,1-.68,0l-2,0-7.68.07-26.67.12h-.25v-.25c0-2.25,0-4.6,0-7V441h0l.26-.26,37.07.08h.18V441c0,4.47-.07,8.08-.1,10.62,0,1.2,0,2.15,0,2.84,0,.29,0,.53,0,.73S277.06,455.44,277.05,455.43Z" style="fill:#263238"></path><path d="M387.08,313.88a1.67,1.67,0,0,1,0-.27c0-.2,0-.45,0-.76L387,310c0-2.51-.05-6.09-.09-10.52l.18.18-37.07.08c-.24.24.31-.31.25-.26h0v7.39q0,3.61,0,7l-.25-.25,26.51.12,7.74.07,2.08,0h.55l.2,0a5.67,5.67,0,0,1-.68,0l-2,0-7.68.07-26.68.12h-.25v-7.26c0-1.21,0-2.43,0-3.67v-3.72h0c-.05.06.5-.49.27-.26l37.07.08h.18v.18c0,4.47-.08,8.09-.1,10.63,0,1.2,0,2.15,0,2.84,0,.29,0,.53,0,.72S387.08,313.88,387.08,313.88Z" style="fill:#263238"></path><path d="M330.43,394s0-.1,0-.27,0-.45,0-.76l0-2.88c0-2.51-.06-6.09-.1-10.52l.18.19-37.07.08.26-.26h0v3.72c0,1.24,0,2.46,0,3.67v7l-.25-.25,26.5.12,7.74.07,2.09,0h.55l.19,0a5.47,5.47,0,0,1-.68,0l-2,0-7.68.07-26.67.12h-.25V394q0-3.39,0-7v-7.39h0c-.06.05.49-.5.26-.27l37.07.08h.18v.17c0,4.48-.07,8.09-.1,10.63l0,2.84c0,.29,0,.53,0,.72S330.44,394,330.43,394Z" style="fill:#263238"></path><polygon points="93.65 279.15 96.01 282.68 107.36 282.68 110.69 293.58 115.03 297.19 152.1 297.19 147.77 279.15 93.65 279.15" style="opacity:0.2"></polygon><rect x="93.65" y="264.73" width="37.07" height="14.42" style="fill:#ebebeb"></rect><path d="M130.72,279.15s0-.09,0-.27,0-.45,0-.75l0-2.88c0-2.52-.06-6.1-.1-10.52l.18.18L93.65,265l.26-.26h0v7.4c0,2.41,0,4.76,0,7l-.25-.25,26.5.12,7.74.07,2.09,0,.55,0h.19a5.47,5.47,0,0,1-.68,0l-2,0-7.69.07-26.67.11H93.4v-.25c0-2.25,0-4.6,0-7v-7.4h0l.26-.26,37.07.08h.18v.18c0,4.47-.07,8.08-.1,10.63l0,2.83c0,.3,0,.54,0,.73S130.73,279.16,130.72,279.15Z" style="fill:#263238"></path><rect x="110.69" y="279.15" width="37.07" height="14.42" style="fill:#ebebeb"></rect><path d="M147.77,293.58a1.67,1.67,0,0,1,0-.27c0-.2,0-.45,0-.76,0-.7,0-1.66,0-2.88,0-2.52-.06-6.09-.1-10.52l.18.18-37.07.08c-.24.24.31-.31.25-.26h0v7.39q0,3.62,0,7l-.25-.25,26.51.12,7.74.06,2.09,0h.54l.2,0a5.47,5.47,0,0,1-.68,0l-2,0-7.68.07-26.68.12h-.25v-7.26c0-1.21,0-2.43,0-3.67v-3.72h0c-.05.06.5-.49.27-.26l37.07.08H148v.18c0,4.47-.08,8.09-.1,10.63,0,1.2,0,2.15,0,2.84,0,.29,0,.53,0,.72S147.77,293.58,147.77,293.58Z" style="fill:#263238"></path><polygon points="293.36 394.03 296.71 398.99 332.55 398.99 330.43 379.61 330.43 394.03 293.36 394.03" style="opacity:0.2"></polygon><path d="M421.41,485.68c-.14,0-.26-105.2-.26-234.95s.12-235,.26-235,.26,105.18.26,235S421.56,485.68,421.41,485.68Z" style="fill:#263238"></path><path d="M78.28,17.31c.15,0,.26,104.66.26,233.73s-.11,233.76-.26,233.76S78,380.16,78,251,78.14,17.31,78.28,17.31Z" style="fill:#263238"></path></g><g id="freepik--Plants--inject-290"><path d="M205.12,448.73a7.37,7.37,0,0,1,3.81,4.32,13,13,0,0,1,.51,5.86c-.43,3.8-2.59,7.64-4.92,10.68-3.2-2.8-3.93-7.67-4.15-10.17-.35-3.94,1.42-11.28,4.75-10.69" style="fill:#FFCD11"></path><path d="M208.24,475.86a6.28,6.28,0,0,1,2-6c1.64-1.47,5-2,7.17-1.85,1,.08,1.1.3,1.68,1.14a2.65,2.65,0,0,1,0,2.72,5.41,5.41,0,0,1-2,2c-2.78,1.74-5.78,2.91-8.92,2" style="fill:#FFCD11"></path><path d="M204.14,487.52a4,4,0,0,1,.11-.78l.39-2.11a22,22,0,0,1,2.18-6.75,13.45,13.45,0,0,1,4.84-5.14,8.87,8.87,0,0,1,2-.87,3.77,3.77,0,0,1,.57-.15c.13,0,.2,0,.2,0a15.84,15.84,0,0,0-2.64,1.22,13.89,13.89,0,0,0-4.7,5.11,23.75,23.75,0,0,0-2.23,6.65c-.19.88-.35,1.6-.47,2.09A4,4,0,0,1,204.14,487.52Z" style="fill:#263238"></path><path d="M204.26,454.44a1.73,1.73,0,0,1,0,.34c0,.25,0,.58.06,1,0,.85.09,2.08.14,3.6.1,3.05.18,7.26.16,11.91s-.14,8.86-.26,11.91c-.06,1.52-.12,2.75-.18,3.6,0,.4-.05.73-.06,1a1.38,1.38,0,0,1,0,.34,1.8,1.8,0,0,1,0-.34c0-.26,0-.58,0-1,0-.89.06-2.11.09-3.61.08-3,.16-7.25.18-11.9s0-8.86-.07-11.9c0-1.5-.05-2.72-.06-3.61,0-.4,0-.73,0-1A1.23,1.23,0,0,1,204.26,454.44Z" style="fill:#263238"></path><path d="M202.71,478.18a14.71,14.71,0,0,0-8-10.77c-1.07-.52-2.47-.85-3.35-.06s-.68,2.23-.25,3.34a12.57,12.57,0,0,0,11.55,7.8" style="fill:#FFCD11"></path><path d="M195.2,471a3.8,3.8,0,0,1,.68.3,6.64,6.64,0,0,1,.76.41,10.68,10.68,0,0,1,1,.61c.35.25.74.51,1.12.84s.78.69,1.19,1.08a16.37,16.37,0,0,1,2.26,2.91,16,16,0,0,1,1.49,3.36,17.19,17.19,0,0,1,.57,3,9.73,9.73,0,0,1,.05,1.16,5.78,5.78,0,0,1,0,.87,3.37,3.37,0,0,1-.08.73c-.06,0,.05-1.05-.14-2.74a11.22,11.22,0,0,0-.22-1.36,15.13,15.13,0,0,0-.4-1.53,16.09,16.09,0,0,0-1.48-3.3,17.07,17.07,0,0,0-2.2-2.87c-.4-.39-.77-.77-1.16-1.08a12.27,12.27,0,0,0-1.08-.86C196.13,471.5,195.17,471.07,195.2,471Z" style="fill:#263238"></path><path d="M436.27,471.76a78.93,78.93,0,0,1,4.63,7.8,80.13,80.13,0,0,1,4.17,8.06,80.41,80.41,0,0,1-4.63-7.8A82.74,82.74,0,0,1,436.27,471.76Z" style="fill:#263238"></path><path d="M447.38,463.52c.15,0,.88,5.36,1.65,12s1.28,12.05,1.14,12.07-.88-5.36-1.65-12S447.24,463.53,447.38,463.52Z" style="fill:#263238"></path><path d="M459.45,470.52A13.76,13.76,0,0,1,459,473c-.33,1.53-.77,3.65-1.17,6s-.68,4.5-.87,6.06a13.84,13.84,0,0,1-.38,2.52,11.16,11.16,0,0,1,0-2.55,62.27,62.27,0,0,1,2.06-12.12A11.23,11.23,0,0,1,459.45,470.52Z" style="fill:#263238"></path><path d="M318.13,472.56a58.5,58.5,0,0,1,2.21,7.47,57.14,57.14,0,0,1,1.71,7.61,58.5,58.5,0,0,1-2.21-7.47A57.14,57.14,0,0,1,318.13,472.56Z" style="fill:#263238"></path><path d="M330.41,464.21a25.45,25.45,0,0,1-.48,3.47c-.34,2.13-.78,5.08-1.14,8.35s-.56,6.25-.69,8.4a27.29,27.29,0,0,1-.27,3.49,3,3,0,0,1-.09-.94c0-.6,0-1.48,0-2.56,0-2.17.19-5.16.54-8.45s.86-6.24,1.29-8.36c.22-1.06.41-1.91.57-2.5A3.58,3.58,0,0,1,330.41,464.21Z" style="fill:#263238"></path><path d="M67,469.86a81.14,81.14,0,0,1,.76,9,76.14,76.14,0,0,1,.24,9.05,81.14,81.14,0,0,1-.76-9A78.78,78.78,0,0,1,67,469.86Z" style="fill:#263238"></path><path d="M76.63,475.2a43.83,43.83,0,0,1-1.95,6.43,43.45,43.45,0,0,1-2.45,6.26,88.7,88.7,0,0,1,4.4-12.69Z" style="fill:#263238"></path><path d="M55.66,473.53a54.66,54.66,0,0,1,2.27,7.28,55.32,55.32,0,0,1,1.77,7.43A56.32,56.32,0,0,1,57.43,481,58.94,58.94,0,0,1,55.66,473.53Z" style="fill:#263238"></path></g><g id="freepik--speech-bubble--inject-290"><path d="M300.2,142.7l7.91.36a21.35,21.35,0,0,0,9.66,6.55,20.89,20.89,0,0,0,26.53-14,22,22,0,0,0-13.92-27.34,20.89,20.89,0,0,0-26.53,14,22.16,22.16,0,0,0,.38,14h0Z" style="fill:#fff"></path><path d="M300.2,142.7l.28-.43c.19-.29.46-.69.8-1.22l3-4.69h-.16a.1.1,0,0,0,.14,0,.11.11,0,0,0,0-.12,22.22,22.22,0,0,1-1.07-10.58,21.29,21.29,0,0,1,2-6.56,20.8,20.8,0,0,1,11.85-10.57,20.55,20.55,0,0,1,9.05-1,21.23,21.23,0,0,1,9.07,3.33,21.55,21.55,0,0,1,3.87,3.23,23.16,23.16,0,0,1,3,4.16,23.59,23.59,0,0,1,2,4.69,23.19,23.19,0,0,1,.82,4.93,22.06,22.06,0,0,1-1.55,9.46,20.91,20.91,0,0,1-12.25,11.89,20.6,20.6,0,0,1-14.29-.11,21.34,21.34,0,0,1-8.7-6.14.11.11,0,0,0-.07,0l-5.86-.21-1.53,0h-.53l.49,0,1.49.09,5.93.34-.08,0a21.37,21.37,0,0,0,8.76,6.3,20.9,20.9,0,0,0,14.51.18,21.21,21.21,0,0,0,12.53-12.09,22.44,22.44,0,0,0,1.59-9.65,23.61,23.61,0,0,0-.84-5,23.31,23.31,0,0,0-2-4.78,22.36,22.36,0,0,0-3.09-4.24,21.89,21.89,0,0,0-13.21-6.69,21,21,0,0,0-16.61,5.55A21.39,21.39,0,0,0,305,119a21.67,21.67,0,0,0-2,6.67,22.35,22.35,0,0,0,1.18,10.69l.18-.09h0a.11.11,0,0,0-.14,0,.05.05,0,0,0,0,0q-1.93,3.13-3,4.82c-.32.52-.57.92-.74,1.21S300.2,142.7,300.2,142.7Z" style="fill:#263238"></path><polygon points="330.79 125.47 324.48 117.47 318.18 125.37 330.79 125.47" style="fill:#FFCD11"></polygon><polygon points="321.38 140.09 327.12 140.13 327.3 124.17 321.56 124.13 321.38 140.09" style="fill:#FFCD11"></polygon></g><g id="freepik--Character--inject-290"><path d="M338.91,225.69a3.57,3.57,0,0,0-3.59-3.44l-12.26.28c-.47-1.83-2.05-7.92-3-10.78l1.95-9.64.88-3.62s1.49-4,1.8-4.61a15.13,15.13,0,0,0-.23-5.24,2.63,2.63,0,0,0-1.34-1.29s-1.81-5.83-2.84-6.58-2.28.75-2.28.75v-1.07c-.42-1.72-.93-2-1.87-1.24a3.84,3.84,0,0,0-1.14,2s-.25-1.56-.45-2.63-1.45-.43-1.87,0,1.22,10.26,1.22,10.26l-.61,1.5a19.77,19.77,0,0,1-.31-2.79c-.11-1.83-2.66-7.42-2.66-7.42L311.2,192l1.46,3.55,2.22,2.95c-.35.87-1.83,4.48-2.68,6.62-2.6-7.52-8.32-24.16-8.66-25.88a11.28,11.28,0,0,0-2.06-4.26l-15.18-7.77-3.74-6.06h0l0-5.83a9.17,9.17,0,0,0,1.89-3.78c.2-.87.48-2,.78-3.18,1.23,0,2.79-.48,3.18-3s-.65-3.34-1.67-3.66c0-.25.09-.52.12-.74l.15-1.25a7.8,7.8,0,0,0,1.25-.84,5.38,5.38,0,0,0,1.64-3.44,16,16,0,0,0-.13-3.91,1.48,1.48,0,0,0,1.95-.85,3.5,3.5,0,0,1-1.88-1.44,1.53,1.53,0,0,0,1,.13c.31-.1.54-.53.33-.79a.9.9,0,0,0-.5-.24,3.55,3.55,0,0,1-1.91-1.72,3.4,3.4,0,0,0-.3-.77,4.55,4.55,0,0,0-.43-.65,6.11,6.11,0,0,0-1.22-1.87,4.08,4.08,0,0,0-3.15-1.06,6,6,0,0,0-2.11.58c-.08-.09-.17-.16-.25-.24a6.86,6.86,0,0,0-4.84-3.63,8.5,8.5,0,0,0-6.37,1.56c-1.28.9-2.35,2.11-3.64,3a5,5,0,0,1-4.39,1c-.26.56.75,1,.61,1.64a.7.7,0,0,1-.66.47,7.42,7.42,0,0,1-1.23-.17,1,1,0,0,0-1.06.49,1.22,1.22,0,0,0,0,.63,11.42,11.42,0,0,0,1.85,5.29,6.38,6.38,0,0,0,2.33,2c0,1.34,0,2.69-.05,4l-.08.34c0,.1,0,.19,0,.3-1.24-.18-2.95.12-3.2,2.93-.3,3.25,2,3.84,3.21,3.87q0,.56.09,1.14a16.41,16.41,0,0,0,1.24,4.75l.37,7.22-.85-.08L260.44,163l-8.72-2.64-10.53-5.52-8.25-8-6.27-8-.21.13-11.53-23,2.59-3.43,1.59-3.88-.69-6.94s-1.13.12-1.24,2.12a23.38,23.38,0,0,1-.34,3l-.67-1.64a23.37,23.37,0,0,1-1.5-2.89c-1.59-6.54-1.55.57-1.37-.61,0-.31-4-5.24-4-5.24s.7,2.13-.32,1.24,1.42,1,1,2.91v1.18s-1.36-1.65-2.49-.83a4.24,4.24,0,0,0-1.36,2.59,2.89,2.89,0,0,0-1.48,1.41c-.34.94-.58,5-.24,5.73s2,5.06,2,5.06l.46,2.69s4.11,17.54,7.63,27.74l-.55.33a15.88,15.88,0,0,0,3.71,8.56l22.24,26.24,1.95,16.22-.53,25.53h-.4l-.16,7.23.1,0-.93,5.13.54,4.21-.41,3.55s-6.6,2.94-14.44,6.35l-.22-.48-6.47,2.62s.07.24.19.68l-1.47.63c-6.39,2.74-12.44,5.27-15.46,6.36-7.65,2.76-14.64,9-15.23,12.29s1.43,21,2.31,27.17c.95,6.56,3.9,30.82,3.9,30.82L209,335.29l-.1-49.71,0-.6s12.52-1.87,20.51-3.55a11.38,11.38,0,0,0,1.22.72l8.66-2.23-.49-1.09c7.39-2.18,19.6-5.4,19.6-5.4l5.36,2.62,2,1.14,3.69,5.7c-.3.61,2.83,9.16,3.08,9l.25-.06c4.31,11.53,11.36,30.42,12.17,32.6,1.17,3.16,13,36.13,15.5,41.12,1,1.93,5.06,12.51,5.64,14.06l14.88,0s-5-36.86-8.19-42.45-8.91-25-8.91-25l-3.76-26.75.34-.08a34.74,34.74,0,0,0-2.15-8.8l-.32.07,0-.07-3.3-15.13,42.53-1.41a3.59,3.59,0,0,0,3.4-3.85Zm-49.57,6.57h0Zm8.58,44.17-3.76-15.07Zm-5.06-53.21a3.44,3.44,0,0,0-2.59,1.3l3.12-13.8q.86-2.9,1.62-5.82l.06.2-.26,1.35c.17-.22.33-.45.49-.67l5.22,15.73a17.81,17.81,0,0,0,1.2,1.51Zm25-.57a19.17,19.17,0,0,0,.66-3.49h0l.32-1.55c.35,2.16.51,4.14.57,5Z" style="opacity:0.2"></path><path d="M304.06,375s-.44-1.7-1.35-4.16" style="opacity:0.30000000000000004"></path><path d="M283.25,249c0-7.15.26-22.9.37-29.83a3.52,3.52,0,0,1,3.44-3.46l42.45-.93a3.5,3.5,0,0,1,3.59,3.31l1.65,29.3a3.51,3.51,0,0,1-3.39,3.71l-44.48,1.42A3.51,3.51,0,0,1,283.25,249Z" style="fill:#455a64"></path><polygon points="305.34 226.14 291.15 225.94 291.01 218.54 305.19 218.27 305.34 226.14" style="fill:#fff"></polygon><path d="M303.7,220.77a43.49,43.49,0,0,1-5.29.16,44.51,44.51,0,0,1-5.28-.17,44.75,44.75,0,0,1,5.28-.15A43.49,43.49,0,0,1,303.7,220.77Z" style="fill:#263238"></path><path d="M303.81,222.69a42.31,42.31,0,0,1-5.28.15,43.49,43.49,0,0,1-5.29-.16,42.41,42.41,0,0,1,5.29-.15A43.38,43.38,0,0,1,303.81,222.69Z" style="fill:#263238"></path><path d="M303.92,224.61a47.5,47.5,0,0,1-5.28.15,43.49,43.49,0,0,1-5.29-.16,43.49,43.49,0,0,1,5.29-.16A44.51,44.51,0,0,1,303.92,224.61Z" style="fill:#263238"></path><polygon points="317.43 226.02 299.73 226.2 299.56 216.97 317.25 216.64 317.43 226.02" style="fill:#ebebeb"></polygon><path d="M315.38,219.75a65.71,65.71,0,0,1-6.59.15c-3.64,0-6.59-.07-6.59-.16a65.71,65.71,0,0,1,6.59-.15C312.43,219.59,315.38,219.66,315.38,219.75Z" style="fill:#263238"></path><path d="M315.52,222.14c0,.09-2.95.16-6.59.16s-6.59-.08-6.59-.17,3-.15,6.59-.15S315.52,222.05,315.52,222.14Z" style="fill:#263238"></path><path d="M315.66,224.54c0,.08-3,.15-6.59.15s-6.59-.08-6.59-.16,2.95-.16,6.59-.16A65.36,65.36,0,0,1,315.66,224.54Z" style="fill:#263238"></path><path d="M330.36,225.56s0,.1,0,.31,0,.54,0,.95c0,.85.06,2.08.09,3.66.08,3.21.18,7.83.3,13.54,0,.36,0,.72,0,1.09a2.06,2.06,0,0,1-.21,1.13,2,2,0,0,1-.86.83,2.52,2.52,0,0,1-1.17.2l-4.86.13-10.71.28-11.83.31-6.26.16-3.2.08-.81,0a4,4,0,0,1-.84,0,2,2,0,0,1-1.36-1,1.74,1.74,0,0,1-.2-.73c0-.26,0-.47,0-.71,0-.47,0-.93,0-1.39,0-.93,0-1.85,0-2.76,0-1.83,0-3.63,0-5.41,0-3.55,0-7-.06-10.26v-.15h.15c12.22.41,22.69.32,30.09.14,3.7-.08,6.64-.19,8.66-.26l2.32-.08h.78l-.21,0-.6,0-2.29.13c-2,.1-4.95.23-8.65.35-7.41.22-17.88.35-30.11,0l.16-.15c0,3.28,0,6.71.07,10.26,0,1.78,0,3.58,0,5.41,0,.91,0,1.83,0,2.75,0,.47,0,.93,0,1.4A2.7,2.7,0,0,0,289,247a1.67,1.67,0,0,0,1.14.88,3.86,3.86,0,0,0,.77,0l.81,0,3.2-.08,6.26-.15,11.84-.29,10.71-.25,4.85-.11a2.24,2.24,0,0,0,1.08-.18,1.68,1.68,0,0,0,.75-.72,1.83,1.83,0,0,0,.19-1c0-.37,0-.73,0-1.08-.08-5.69-.13-10.29-.18-13.49,0-1.59,0-2.83,0-3.69,0-.41,0-.73,0-1S330.36,225.56,330.36,225.56Z" style="fill:#263238"></path><path d="M318.69,244.73s.26,0,.74-.12a3.76,3.76,0,0,0,1.81-1.07,3.86,3.86,0,0,0,.94-3.11c0-1.34-.06-2.85-.11-4.53,0-.84,0-1.71-.05-2.63a3.75,3.75,0,0,0-.83-2.57,3.51,3.51,0,0,0-2.56-1.27c-1,0-2.13,0-3.23.06l-14.42.28a3.5,3.5,0,0,0-3,1.77,3.39,3.39,0,0,0-.47,1.69c0,.62,0,1.22,0,1.82,0,1.21,0,2.4.07,3.56l0,1.72a14.94,14.94,0,0,0,.07,1.66,3.51,3.51,0,0,0,1.72,2.47,3.59,3.59,0,0,0,1.41.45c.48,0,1,0,1.49,0l5.48-.08,7.94-.1h2.92s-.07,0-.19,0l-.57,0-2.15.07-7.94.2-5.49.12c-.5,0-1,.05-1.52,0a3.8,3.8,0,0,1-3.39-3.15,13.91,13.91,0,0,1-.08-1.7c0-.56,0-1.14,0-1.72,0-1.16-.05-2.34-.07-3.55l0-1.83a3.77,3.77,0,0,1,.5-1.85,3.84,3.84,0,0,1,3.25-1.93l14.42-.26c1.12,0,2.18-.05,3.25,0a3.82,3.82,0,0,1,2.75,1.38,4,4,0,0,1,.87,2.74c0,.91,0,1.79,0,2.63,0,1.67,0,3.19.06,4.52,0,.34,0,.66,0,1a3.53,3.53,0,0,1-.2.88,3.62,3.62,0,0,1-2.71,2.39A2.83,2.83,0,0,1,318.69,244.73Z" style="fill:#263238"></path><path d="M305.59,226.06c.2,0,11.4-10.41,11.4-10.41l10.33,10Z" style="fill:#fff"></path><path d="M322.83,225.82a36.81,36.81,0,0,1-3.94-2.95,38,38,0,0,1-3.73-3.2,77.05,77.05,0,0,1,7.67,6.15Z" style="fill:#263238"></path><path d="M319.19,226a43.05,43.05,0,0,1-5.72-4.58,43.05,43.05,0,0,1,5.72,4.58Z" style="fill:#263238"></path><path d="M315.34,226a8.57,8.57,0,0,1-1.88-1.31,8,8,0,0,1-1.68-1.55,8.84,8.84,0,0,1,1.88,1.31A8.28,8.28,0,0,1,315.34,226Z" style="fill:#263238"></path><path d="M311.67,226.14c-.06.07-.46-.16-.89-.5s-.75-.69-.69-.76.45.16.89.51S311.72,226.07,311.67,226.14Z" style="fill:#263238"></path><g style="opacity:0.30000000000000004"><path d="M289.86,248.08a67.8,67.8,0,0,0,38.87-1Z"></path></g><path d="M313.55,234l-5,.1a1.42,1.42,0,0,1-1.44-1.4h0a1.41,1.41,0,0,1,1.39-1.44l5-.1a1.42,1.42,0,0,1,1.45,1.4h0A1.42,1.42,0,0,1,313.55,234Z" style="fill:#e0e0e0"></path><polygon points="312.18 355.82 318.19 377.64 306.48 381.12 300.42 359.27 312.18 355.82" style="fill:#455a64"></polygon><path d="M312.18,378.53c-.1,0-1.43-4.74-3-10.65s-2.72-10.73-2.63-10.75,1.44,4.74,3,10.66S312.28,378.51,312.18,378.53Z" style="fill:#263238"></path><polygon points="317.77 376.13 306.06 379.57 306.48 381.12 318.19 377.64 317.77 376.13" style="fill:#263238"></polygon><path d="M304.55,374.13s0-.21.17-.55a8.63,8.63,0,0,1,2.3-3.21,6.49,6.49,0,0,1,7.71-.62,5.69,5.69,0,0,1,1.21,1c.24.29.35.47.33.49A11.06,11.06,0,0,0,314.6,370a6.5,6.5,0,0,0-4.91-.62,7.46,7.46,0,0,0-4,3C304.91,373.39,304.61,374.16,304.55,374.13Z" style="fill:#263238"></path><g style="opacity:0.30000000000000004"><polygon points="314.7 364.61 315.38 367.64 303.49 370.32 302.73 367.6 314.7 364.61"></polygon></g><path d="M189.31,311.91l4.29,15.27S177.17,333,177,336.07l31.88.25v-4.93l-3.54-20.53Z" style="fill:#455a64"></path><path d="M203.27,325.83a1.3,1.3,0,0,1,.91,1.49,1.26,1.26,0,0,1-1.48.92,1.4,1.4,0,0,1-1-1.59,1.31,1.31,0,0,1,1.65-.78" style="fill:#fff"></path><path d="M208.87,336.32v-2.05l-31,.39a2.4,2.4,0,0,0-1.09,1.59Z" style="fill:#263238"></path><path d="M193.31,327.29c0,.15.79.22,1.57.73s1.19,1.16,1.33,1.1-.09-1-1-1.57S193.28,327.14,193.31,327.29Z" style="fill:#263238"></path><path d="M189.94,328.69c0,.16.64.42,1.18,1.09s.69,1.36.85,1.35.25-.89-.43-1.7S189.94,328.54,189.94,328.69Z" style="fill:#263238"></path><path d="M188,332.74c.15,0,.36-.75,0-1.61s-1.15-1.2-1.21-1.07.39.59.71,1.3S187.88,332.73,188,332.74Z" style="fill:#263238"></path><path d="M193.58,323.49c.07.15.79-.07,1.68,0s1.58.34,1.66.2-.59-.69-1.63-.74S193.5,323.37,193.58,323.49Z" style="fill:#263238"></path><path d="M193,320a3,3,0,0,0,1.61,0,7.05,7.05,0,0,0,1.68-.52,8.33,8.33,0,0,0,.93-.49,2.21,2.21,0,0,0,.48-.38.67.67,0,0,0,.07-.84.85.85,0,0,0-.69-.36,2.11,2.11,0,0,0-.6.09,6.9,6.9,0,0,0-1,.34,5.84,5.84,0,0,0-1.49,1c-.74.69-1,1.28-.94,1.31s.43-.44,1.19-1a6.42,6.42,0,0,1,1.44-.81,5.2,5.2,0,0,1,.92-.29c.34-.09.63-.09.72.06s0,.08,0,.18a2.38,2.38,0,0,1-.36.28c-.29.18-.57.34-.85.49a8.93,8.93,0,0,1-1.56.6A9.86,9.86,0,0,0,193,320Z" style="fill:#263238"></path><g style="opacity:0.30000000000000004"><polygon points="207.05 320.28 207.54 323.59 192.93 324.81 191.99 321.45 207.05 320.28"></polygon></g><path d="M210.66,115.59l-1.54-3.21,2.59-3.31,1.59-3.74-.68-6.68s-1.14.11-1.25,2a20.06,20.06,0,0,1-.34,2.94l-.67-1.58s0-4.65-.46-5.11-1.82-1.13-2,0-.44,3-.44,3-.24-2.71-1.26-3.57-1.59-.51-2,1.3v1.14s-1.36-1.59-2.5-.8a4.09,4.09,0,0,0-1.36,2.5,2.84,2.84,0,0,0-1.47,1.36c-.34.91-.59,4.84-.25,5.52s2,4.87,2,4.87l.47,2.6Z" style="fill:#ffbf9d"></path><path d="M201,114.81s6,24.61,9.68,31.73L223.47,140l-14.35-27.63Z" style="fill:#ffbf9d"></path><path d="M305.79,199.79c.11-.45,3.37-8.1,3.37-8.1l7.38,2.12-3.79,18Z" style="fill:#ffbf9d"></path><path d="M307.81,195l1.41-2.93-2.37-3-1.45-3.42.62-6.11s1,.1,1.14,1.86a20.23,20.23,0,0,0,.31,2.69l.61-1.45s0-4.24.43-4.66,1.66-1,1.86,0,.4,2.7.4,2.7.22-2.48,1.16-3.26,1.45-.47,1.86,1.19v1s1.24-1.45,2.28-.72a3.7,3.7,0,0,1,1.24,2.27,2.63,2.63,0,0,1,1.35,1.25,14,14,0,0,1,.22,5c-.31.62-1.8,4.45-1.8,4.45l-.88,3.49Z" style="fill:#ffbf9d"></path><path d="M276,119.27l-.34-.13a6.75,6.75,0,0,0-5.07-4,8.7,8.7,0,0,0-6.36,1.5c-1.29.87-2.36,2-3.64,2.9a5.12,5.12,0,0,1-4.4.93c-.25.54.76,1,.62,1.58a.7.7,0,0,1-.66.45,7.54,7.54,0,0,1-1.24-.17,1,1,0,0,0-1.06.48,1.26,1.26,0,0,0,0,.61,10.79,10.79,0,0,0,1.85,5.1,5.67,5.67,0,0,0,4.68,2.4,8.91,8.91,0,0,0,4-1.64l7.09-4.34a14.66,14.66,0,0,0,3.07-2.28A4.94,4.94,0,0,0,276,119.27Z" style="fill:#263238"></path><path d="M274.59,119.46a7,7,0,0,1,3.19-1.1,4.18,4.18,0,0,1,3.15,1,9.51,9.51,0,0,1,1.66,2.67,3.92,3.92,0,0,0,2.2,2.16.86.86,0,0,1,.49.23c.21.25,0,.66-.33.76a1.48,1.48,0,0,1-1-.13,3.4,3.4,0,0,0,1.88,1.39,1.49,1.49,0,0,1-1.94.82,15.94,15.94,0,0,1,.13,3.78,5.17,5.17,0,0,1-1.65,3.31c-1.06.9-2.66,1.27-3.23,2.54" style="fill:#263238"></path><path d="M260,162.51l16.79,1.89-.08-14.51s1.18-.1,2-6.3,2.46-16.71,2.46-16.71h0a21.75,21.75,0,0,0-22,0l-1,.59Z" style="fill:#ffbf9d"></path><path d="M259.17,135.35c-.1-.06-4.11-1.79-4.51,2.47s4,3.78,4,3.66S259.17,135.35,259.17,135.35Z" style="fill:#ffbf9d"></path><path d="M279.21,137c.12,0,4-.58,3.36,3.65s-4.78,2.69-4.77,2.56S279.21,137,279.21,137Z" style="fill:#ffbf9d"></path><path d="M257.85,134.71c.19,3.63-.17,5.49.11,7.94a12.63,12.63,0,0,0,5.12,9.29c3.15,2.31,7.73,2.85,11,.66a10,10,0,0,0,4.56-6c.64-2.63,2.06-7.55,2.41-10.24.64-4.84,1-9.2,1-9.2l-13.53-4.25-8.47,3.7Z" style="fill:#263238"></path><path d="M269.81,155a4.57,4.57,0,0,1-2.45-.09,4.65,4.65,0,0,1-2.23-1c.05-.1,1,.34,2.32.65S269.81,154.85,269.81,155Z" style="fill:#263238"></path><path d="M257.76,140.84c.05-3.7.31-7.9.22-11.81a25,25,0,0,1,0-5c.31-1.44.65-1,1.46-2.18,1-1.55,4.23-2.27,6.07-2.4s2.27-1.67,3.5-.28A4.52,4.52,0,0,1,277,122a3.15,3.15,0,0,1,4.76,3.78,3.07,3.07,0,0,1,1.47,4.93c-.76.9-2,1.3-2.81,2.16a3.57,3.57,0,0,0-.7,3.8" style="fill:#263238"></path><path d="M275.69,142.32a8.12,8.12,0,0,1-3.45,6.52,23.37,23.37,0,0,0,2.16-3A23.73,23.73,0,0,0,275.69,142.32Z" style="fill:#455a64"></path><path d="M277.94,139.46a6.59,6.59,0,0,1-2,6.26,19.22,19.22,0,0,0,1.45-3A19,19,0,0,0,277.94,139.46Z" style="fill:#455a64"></path><path d="M262.35,122.59a9.62,9.62,0,0,1,4.8-3.32,5.6,5.6,0,0,1,5.48,1.4" style="fill:#263238"></path><path d="M261.52,132a3.53,3.53,0,0,0,0-1.27,15.18,15.18,0,0,1,0-3,6.4,6.4,0,0,1,1-2.73c.41-.63.79-.93.74-1s-.5.16-1,.79a5.73,5.73,0,0,0-1.19,2.87,10.45,10.45,0,0,0,.09,3.09C261.32,131.57,261.45,132,261.52,132Z" style="fill:#455a64"></path><path d="M264.2,133.8a6.81,6.81,0,0,0-.3-2,7.17,7.17,0,0,0-.44-2,3.32,3.32,0,0,0,0,2.1A3.39,3.39,0,0,0,264.2,133.8Z" style="fill:#455a64"></path><path d="M277.64,134.38a3.71,3.71,0,0,0,1.14-1.4,7.53,7.53,0,0,0-.6-8.33,3.61,3.61,0,0,0-1.34-1.22c0,.06.46.52,1.05,1.42a8.37,8.37,0,0,1,1.35,3.91,8.27,8.27,0,0,1-.77,4.06C278,133.8,277.57,134.32,277.64,134.38Z" style="fill:#455a64"></path><path d="M264.49,116.68a5.92,5.92,0,0,0,1.44-.4,8,8,0,0,1,3.44-.4,4,4,0,0,1,2.86,1.65,9.87,9.87,0,0,1,.63,1.31,1.92,1.92,0,0,0-.33-1.49,3.79,3.79,0,0,0-1.15-1.24,4.58,4.58,0,0,0-1.94-.72,7.07,7.07,0,0,0-3.63.56C264.94,116.31,264.46,116.62,264.49,116.68Z" style="fill:#455a64"></path><path d="M282.93,123a2,2,0,0,0-.36-1.18,4.65,4.65,0,0,0-2.21-2,4.76,4.76,0,0,0-3-.23c-.75.21-1.13.51-1.1.56a8.05,8.05,0,0,0,1.17-.21,5,5,0,0,1,2.72.34,5.23,5.23,0,0,1,2.12,1.74C282.69,122.58,282.85,123,282.93,123Z" style="fill:#455a64"></path><path d="M276.4,138c0-.05-.65-.33-1.71-1a14.45,14.45,0,0,1-3.75-3.29l-.7-.87.31,1.08a9.4,9.4,0,0,1,.34,2.1c0,.35,0,.8-.11.84s-.47-.14-.75-.4a12.82,12.82,0,0,1-2.54-2.88l-.62-1,.2,1.13c.2,1.14.38,2.2.55,3.16l.34-.15a19.22,19.22,0,0,1-2.28-3.76,3.53,3.53,0,0,0,.34,1.16,11.6,11.6,0,0,0,1.64,2.84l.46.58-.12-.73c-.14-1-.3-2-.47-3.17l-.43.16a12.8,12.8,0,0,0,2.61,3,3.56,3.56,0,0,0,.51.38.79.79,0,0,0,.8.07.84.84,0,0,0,.37-.7,5.9,5.9,0,0,0,0-.6,9.53,9.53,0,0,0-.4-2.2l-.39.21a13.25,13.25,0,0,0,4,3.24A5.76,5.76,0,0,0,276.4,138Z" style="fill:#455a64"></path><path d="M270.36,120.64a2.19,2.19,0,0,1,1.46-.87,3.78,3.78,0,0,1,1.73.18,6.21,6.21,0,0,1,3.35,2.54c.18.27.32.68.06.89a.69.69,0,0,1-.49.1,26.84,26.84,0,0,1-6.23-1" style="fill:#263238"></path><path d="M234.17,235.07s-29.79,12.76-37.88,15.58c-7.65,2.66-14.64,8.68-15.22,11.84s1.42,20.26,2.31,26.2c.94,6.32,4.7,36.07,4.7,36.07L209,320.89s-3.76-28.59-4.4-33.53c-.71-5.43-1.56-10.84-1.56-10.84l.09-1.23s20.52-3,25.79-4.7,23.71-6.44,23.71-6.44l5.36,2.52,2,1.11,3.69,5.49s14.33,37,15.5,40,13.05,34.84,15.51,39.64,5.65,15.56,5.65,15.56l17.57-4s-7.73-33.53-10.9-38.92S298,301.43,298,301.43l-3.86-26.49s-6.63-25.49-7-27.11S284,230.55,284,230.55L234.89,229Z" style="fill:#263238"></path><path d="M292.13,267.08a6.3,6.3,0,0,1-.44-1.3l-1-3.57c-.41-1.55-.9-3.35-1.43-5.33s-1.18-4.19-1.59-6.55c-.95-4.7-1.78-9-2.35-12-.27-1.47-.48-2.7-.66-3.66a7.8,7.8,0,0,1-.17-1.36,6.23,6.23,0,0,1,.37,1.32c.22.95.49,2.17.82,3.62.66,3.07,1.55,7.31,2.49,12,.42,2.36,1.07,4.55,1.56,6.56s.94,3.79,1.32,5.35.63,2.66.85,3.61A7.89,7.89,0,0,1,292.13,267.08Z" style="fill:#455a64"></path><path d="M211.73,244.52s2.66,16.32,5.68,21.15a19.64,19.64,0,0,0,7.4,6.89l-10.74-29Z" style="opacity:0.2"></path><polygon points="268.44 285.73 266.68 280.73 294.17 274.94 294.88 279.87 268.44 285.73" style="opacity:0.2"></polygon><path d="M268.51,252.44a3,3,0,0,1-.39.81,16.76,16.76,0,0,1-1.37,2.05A24.12,24.12,0,0,1,253.36,264a19,19,0,0,1-2.42.42,3.43,3.43,0,0,1-.9,0c0-.1,1.26-.25,3.23-.81a26.42,26.42,0,0,0,13.19-8.59C267.77,253.49,268.43,252.39,268.51,252.44Z" style="fill:#455a64"></path><g style="opacity:0.2"><path d="M252.59,264.12a15.22,15.22,0,0,0,10.32-1.81,10.33,10.33,0,0,0,5-8.89c-3.84,4.64-8.18,8.82-15.32,10.7"></path></g><path d="M188.08,324.76a1.87,1.87,0,0,1,.38-.11l1.13-.24,4.25-.86,15.06-2.89-.19.26c-.64-4.88-1.38-10.42-2.16-16.29-1.55-11.84-2.9-22.39-3.72-29.11l0,.08a13.55,13.55,0,0,0-4.71-3.74c-1.28-.6-2-.78-2-.82a2.46,2.46,0,0,1,.55.12,12.28,12.28,0,0,1,1.54.54,13.21,13.21,0,0,1,4.89,3.7l0,0v.05c.94,6.7,2.36,17.25,3.92,29.08.76,5.87,1.48,11.42,2.11,16.3l0,.22-.22,0-15.1,2.71-4.28.72-1.13.18A1.35,1.35,0,0,1,188.08,324.76Z" style="fill:#455a64"></path><polygon points="234.17 235.07 247.1 235.55 247.1 232.19 234.6 231.83 234.17 235.07" style="opacity:0.2"></polygon><polygon points="251.4 232.37 251.4 235.97 269.39 236.82 269.39 232.84 251.4 232.37" style="opacity:0.2"></polygon><polygon points="275.16 233 275.16 236.82 285.18 237.18 284.47 233.27 275.16 233" style="opacity:0.2"></polygon><path d="M234,175.42l-22.25-25.3a15,15,0,0,1-3.7-8.25l12.81-7.4,6.26,7.68,8.26,7.69,10.53,5.33,8.71,2.53,4.1-3.59,18,1.78,3.74,5.84,15.18,7.49-12.75,54.35,2.05,3a5,5,0,0,1,.57,4.46l-.8,2.26-50.14-1.45-.56-4.24,1.27-6.79.65-29.74Z" style="fill:#FFCD11"></path><path d="M234.86,222.62s3.88.54,10.91,1.87c14.71,2.76,37.76,0,37.76,0Z" style="opacity:0.30000000000000004"></path><path d="M312.41,206.11c-1.08-3-4.75-4.31-4.75-4.31s-9.49-26.32-9.92-28.48a10.88,10.88,0,0,0-2.07-4.1l-3.76-1.68-6,20.88,8.85,25.68s5,7.12,11.65,6.68S313.48,209.13,312.41,206.11Z" style="fill:#FFCD11"></path><path d="M225.75,141.09a12.51,12.51,0,0,1-1.94,1.44c-1.23.84-2.93,2-4.78,3.31s-3.51,2.54-4.71,3.42a12.36,12.36,0,0,1-2,1.37A10.22,10.22,0,0,1,214.1,149c1.14-1,2.77-2.23,4.63-3.55s3.6-2.44,4.88-3.21A10.46,10.46,0,0,1,225.75,141.09Z" style="fill:#263238"></path><path d="M279.46,161.24a3.89,3.89,0,0,1-1,0c-.63,0-1.54,0-2.66-.09-2.25-.12-5.36-.39-8.76-.89s-6.46-1.11-8.65-1.63c-1.1-.26-2-.49-2.58-.67a3.34,3.34,0,0,1-.93-.33,32.37,32.37,0,0,1,3.59.64c2.2.43,5.25,1,8.64,1.48s6.48.82,8.72,1A29.65,29.65,0,0,1,279.46,161.24Z" style="fill:#263238"></path><path d="M293.72,176.14a4.6,4.6,0,0,1-.06,1.13c-.07.72-.21,1.76-.39,3-.38,2.57-1,6.1-1.86,10s-1.81,7.32-2.56,9.8c-.38,1.24-.7,2.24-.94,2.92a4.15,4.15,0,0,1-.43,1,5.07,5.07,0,0,1,.23-1.11c.22-.8.48-1.79.78-3,.67-2.5,1.55-6,2.41-9.81s1.54-7.36,2-9.91c.22-1.18.41-2.19.56-3A4.23,4.23,0,0,1,293.72,176.14Z" style="fill:#263238"></path><path d="M302.85,219.84s.3,0,.82,0a4.15,4.15,0,0,0,2.06-.67,5.32,5.32,0,0,0,2-2.46,12.82,12.82,0,0,0,.89-3.91,25,25,0,0,0-.39-7.37c-.38-1.86-.78-3-.7-3a2.48,2.48,0,0,1,.37.75,18.41,18.41,0,0,1,.69,2.17,21.94,21.94,0,0,1,.55,7.5,12.66,12.66,0,0,1-1,4.06,5.53,5.53,0,0,1-2.26,2.58,3.93,3.93,0,0,1-2.25.55C303.12,220,302.84,219.87,302.85,219.84Z" style="fill:#263238"></path><path d="M244.32,157.5a16.76,16.76,0,0,1-1.39,2.36c-.9,1.43-2.12,3.4-3.41,5.62s-2.39,4.28-3.17,5.77a15.45,15.45,0,0,1-1.35,2.37,13.26,13.26,0,0,1,1-2.54c.7-1.53,1.76-3.62,3-5.86s2.57-4.19,3.55-5.57A13,13,0,0,1,244.32,157.5Z" style="fill:#263238"></path><path d="M260.48,216.2a43.82,43.82,0,0,1-.68-6.68,44.38,44.38,0,0,1-.16-6.72,42.16,42.16,0,0,1,.68,6.68A44.38,44.38,0,0,1,260.48,216.2Z" style="fill:#263238"></path><path d="M267.07,200.8a65.76,65.76,0,0,1-1.24,8.07,62.41,62.41,0,0,1-1.76,8,65.76,65.76,0,0,1,1.24-8.07A64,64,0,0,1,267.07,200.8Z" style="fill:#263238"></path><g style="opacity:0.30000000000000004"><path d="M264.8,208.05c-.37-1-2.06-.94-2.95-.29a4,4,0,0,0-1.39,2.89c-.09,1.1,0,4.94,0,6l3.59.14C264.22,216,265.57,210.19,264.8,208.05Z"></path></g><path d="M241.27,232.12a4.08,4.08,0,0,1-1.26-2.88,4,4,0,0,1,.59-3.08,20.3,20.3,0,0,0-.07,3A22.24,22.24,0,0,0,241.27,232.12Z" style="fill:#263238"></path><path d="M244.15,232.37c-.15,0-.3-.61-.34-1.38s0-1.39.18-1.4.29.61.34,1.37S244.29,232.36,244.15,232.37Z" style="fill:#263238"></path><g style="opacity:0.30000000000000004"><path d="M289,199.58a24.78,24.78,0,0,0,4.52-22.05Z"></path></g><g style="opacity:0.30000000000000004"><path d="M279,161.33c-4.19.65-6.84,1.34-11.07,1s-9.64-1.84-12.85-4.61Z"></path></g><path d="M213.63,149.58a16.23,16.23,0,0,0,6.54-2.23,13.3,13.3,0,0,0,4.1-5.34Z" style="opacity:0.30000000000000004"></path><path d="M235,215.65l49.72,2a8.46,8.46,0,0,1-.42,6.81l-49.46-1.87Z" style="fill:#455a64"></path><path d="M235,215.65a3.7,3.7,0,0,1,0,.48v1.35c0,1.2,0,2.93,0,5.15l-.12-.13c9.31.27,28,.92,49.46,1.73l-.24.14.06-.14A8.93,8.93,0,0,0,285,221a6.57,6.57,0,0,0-.49-3.17l.22.14-35.27-1.55-10.55-.5-2.86-.15-.75,0-.27,0a.77.77,0,0,1,.23,0H236l2.81.08,10.49.36,35.48,1.33h.15l.07.15a7.13,7.13,0,0,1,.54,3.43,9.28,9.28,0,0,1-.89,3.46l-.07.14-.07.15h-.17c-21.48-.81-40.15-1.57-49.45-2h-.12v-.12c.08-2.25.14-4,.19-5.22,0-.56,0-1,.06-1.32A2.17,2.17,0,0,1,235,215.65Z" style="fill:#263238"></path><path d="M285.18,221.44c0,.14-11.26-.25-25.13-.88s-25.12-1.25-25.11-1.39,11.26.24,25.13.87S285.18,221.29,285.18,221.44Z" style="fill:#263238"></path><path d="M213,243.25s7.79,27.4,11.78,29.31l8.67-2.15-14-29.68Z" style="fill:#455a64"></path><path d="M229.51,271.48c-.13.06-3.13-6.48-6.68-14.6s-6.34-14.76-6.21-14.81,3.12,6.48,6.68,14.6S229.64,271.42,229.51,271.48Z" style="fill:#263238"></path><path d="M263.61,273.27c-.3.59,2.84,8.83,3.08,8.64l27.93-6.34a32.89,32.89,0,0,0-2.16-8.49Z" style="fill:#455a64"></path><path d="M293.31,271.64c0,.14-6.22,1.7-14,3.47s-14,3.1-14.07,3,6.22-1.69,14-3.47S293.28,271.5,293.31,271.64Z" style="fill:#263238"></path><path d="M227.6,257.92s12.23-1.13,16.9-7.5S250,223.21,250,223.21l2.56.1s.4,21.87-7.81,29.94-15.61,7.91-15.61,7.91Z" style="fill:#455a64"></path><path d="M269.43,223.92c0,.48,6.26,46.67,6.26,46.67l3.77-.84-7-45.71Z" style="fill:#455a64"></path><path d="M312.66,208.34a48.52,48.52,0,0,1,1,7.27h3.74s-2.11-8-3.22-11.14-6-5.92-7.91-5.74l1.39,3.07.17.09A10,10,0,0,1,312.66,208.34Z" style="fill:#455a64"></path></g></svg>