<svg xmlns="http://www.w3.org/2000/svg" viewBox="0 0 500 500"><g id="freepik--background-simple--inject-30"><path d="M264.53,48.35C305,56.49,351,79,369.78,118c28.41,59,79.52,58.38,92.65,170a226.62,226.62,0,0,1,.65,49.09,188.15,188.15,0,0,1-3.89,23.76C443.32,429.93,391,473,331,485.48c-78.91,16.43-125.69-33-153.65-65.47S56.43,357.83,42.66,248.15A219.41,219.41,0,0,1,42,197.7C46,159.4,62,118.57,90.67,91.74q3.22-3,6.65-5.85C141.9,49,209.36,37.25,264.53,48.35Z" style="fill:#FFCD11"></path><path d="M264.53,48.35C305,56.49,351,79,369.78,118c28.41,59,79.52,58.38,92.65,170a226.62,226.62,0,0,1,.65,49.09,188.15,188.15,0,0,1-3.89,23.76C443.32,429.93,391,473,331,485.48c-78.91,16.43-125.69-33-153.65-65.47S56.43,357.83,42.66,248.15A219.41,219.41,0,0,1,42,197.7C46,159.4,62,118.57,90.67,91.74q3.22-3,6.65-5.85C141.9,49,209.36,37.25,264.53,48.35Z" style="fill:#fff;opacity:0.7000000000000001"></path></g><g id="freepik--Arrows--inject-30"><polygon points="439 215.3 400.54 215.32 412 227 338.67 294.07 352.27 308.57 425.93 241.19 438.26 253.76 439 215.3" style="opacity:0.30000000000000004"></polygon><polygon points="326.17 476.54 311.88 461.31 312.26 460.97 385.21 394.25 373.27 382.09 413.44 382.07 412.66 422.23 399.83 409.15 373.77 432.99 373.1 432.26 399.87 407.77 411.71 419.83 412.42 383.07 375.65 383.09 386.65 394.29 386.26 394.64 313.31 461.37 326.22 475.14 369.35 435.69 370.02 436.43 326.17 476.54" style="fill:#263238"></polygon><polygon points="120 164.51 89.97 164.52 98.92 173.65 41.66 226.02 52.28 237.34 109.8 184.73 119.43 194.54 120 164.51" style="opacity:0.30000000000000004"></polygon><path d="M53.75,372.71a6.59,6.59,0,0,1-6.58-6.79,6.54,6.54,0,0,1,2.07-4.58l66.46-62.47-39.27,7.45a4,4,0,0,1-3-.62,3.93,3.93,0,0,1-1.65-2.54A4,4,0,0,1,75,298.53l57.42-10.89a4,4,0,0,1,4.58,4.88l-14.42,56.63a4.08,4.08,0,0,1-1.12,1.91,4,4,0,0,1-6.56-3.87l9.86-38.73-17.2,16.17-.69-.73,19.71-18.52-10.71,42.06a3,3,0,1,0,5.74,1.46L136,292.27a3,3,0,0,0-3.43-3.64L75.14,299.51A3,3,0,0,0,72.78,303a3,3,0,0,0,3.46,2.36l42.65-8.08-69,64.81a5.58,5.58,0,1,0,7.64,8.13l44.6-41.92.68.73-44.6,41.92A6.56,6.56,0,0,1,53.75,372.71Z" style="fill:#263238"></path><path d="M326.13,211.85a3.11,3.11,0,0,1-2.26-1,3.1,3.1,0,0,1,.14-4.39l27.74-26.08-15.85,3a2,2,0,0,1-2.32-1.58,2,2,0,0,1,1.58-2.32l24.59-4.66a1.94,1.94,0,0,1,1.81.59h0a2,2,0,0,1,.48,1.85l-6.17,24.25a2,2,0,0,1-.57,1,2,2,0,0,1-3.06-.43,2,2,0,0,1-.22-1.51l4-15.64L328.26,211A3.08,3.08,0,0,1,326.13,211.85Zm28.81-33.06-30.25,28.43a2.1,2.1,0,0,0-.09,3,2.15,2.15,0,0,0,3,.09l30.25-28.43-4.83,19a1,1,0,0,0,.11.75,1,1,0,0,0,.6.45,1,1,0,0,0,.92-.24,1,1,0,0,0,.28-.48l6.17-24.25a1,1,0,0,0-.23-.92h0a1,1,0,0,0-.9-.29l-24.59,4.66a1,1,0,0,0-.79,1.15,1,1,0,0,0,.41.63,1,1,0,0,0,.74.16Z" style="fill:#263238"></path><path d="M269.62,413a1.47,1.47,0,0,0-1.36-.44l-24.59,4.66a1.48,1.48,0,1,0,.55,2.91l17.54-3.32-29,27.25a2.61,2.61,0,0,0-.11,3.68,2.61,2.61,0,0,0,3.68.12l29-27.26-4.41,17.3a1.49,1.49,0,0,0,1.07,1.81,1.53,1.53,0,0,0,1.39-.36,1.45,1.45,0,0,0,.42-.72L270,414.4A1.48,1.48,0,0,0,269.62,413Z" style="opacity:0.30000000000000004"></path></g><g id="freepik--Clouds--inject-30"><path d="M467.67,141.9h-113l.47-.76c.2-.32,4.9-7.85,10.95-8.45a17.75,17.75,0,0,1,6.92.95c2.47.71,4.25,1.22,5.69-.22a11.92,11.92,0,0,0,2-3.06c1.28-2.48,2.61-5.05,7.66-5.89,3.2-.54,5.83.56,8.37,1.62,3.31,1.37,6.43,2.67,10.89.76,3.05-1.31,4.6-3.75,6.09-6.1,2.45-3.88,4.77-7.54,13-5.67,12.14,2.76,17.09,17.82,17.88,20.52a9.11,9.11,0,0,0,3.59-1.63c2.57-1.61,5.78-3.62,10.93-1.24,7.79,3.6,8.48,8.41,8.5,8.61Zm-111.18-1h110c-.43-1.3-2.06-4.62-7.78-7.26-4.66-2.15-7.37-.46-10,1.18-1.48.92-2.88,1.8-4.49,1.8h-.39l-.1-.37c0-.18-4.77-17.36-17.24-20.19-7.55-1.72-9.58,1.5-11.94,5.22-1.57,2.49-3.2,5.06-6.54,6.49-4.84,2.08-8.31.63-11.66-.76-2.52-1.05-4.91-2-7.83-1.55-4.55.75-5.71,3-6.94,5.36a12.35,12.35,0,0,1-2.18,3.3c-1.86,1.87-4.09,1.23-6.68.48a17,17,0,0,0-6.54-.92C361.68,134.13,357.83,139,356.49,140.9Z" style="fill:#263238"></path><path d="M135.2,234H85.39l.47-.76c.09-.15,2.2-3.53,5-3.8a8.06,8.06,0,0,1,3.1.42c1.11.32,1.7.46,2.19,0a5,5,0,0,0,.82-1.26,4.26,4.26,0,0,1,3.52-2.7,6.67,6.67,0,0,1,3.79.72c1.38.57,2.68,1.11,4.5.33a5.66,5.66,0,0,0,2.51-2.54c1.07-1.68,2.17-3.43,5.94-2.58,5.11,1.17,7.35,7.18,7.88,8.85a5.1,5.1,0,0,0,1.2-.62,4.63,4.63,0,0,1,5-.56c3.52,1.63,3.84,3.86,3.85,4Zm-47.94-1h46.67a6,6,0,0,0-3.07-2.61,3.68,3.68,0,0,0-4.05.49,4,4,0,0,1-2.1.83h-.39l-.09-.37c0-.08-2-7.36-7.27-8.55-3.07-.7-3.86.55-4.87,2.14a6.58,6.58,0,0,1-3,2.92,6.07,6.07,0,0,1-5.27-.33,5.71,5.71,0,0,0-3.24-.65,3.3,3.3,0,0,0-2.8,2.17,5.86,5.86,0,0,1-1,1.5c-.93.93-2.07.6-3.17.28a7.2,7.2,0,0,0-2.73-.39C89.37,230.58,88,232.05,87.26,233Z" style="fill:#263238"></path><path d="M379.64,333.39h-49.8l.47-.76c.08-.14,2.19-3.52,4.95-3.8a7.94,7.94,0,0,1,3.11.43c1.1.31,1.7.45,2.19,0a4.89,4.89,0,0,0,.81-1.25,4.27,4.27,0,0,1,3.53-2.71,6.62,6.62,0,0,1,3.78.72c1.38.57,2.68,1.12,4.5.33a5.63,5.63,0,0,0,2.51-2.53c1.07-1.69,2.18-3.44,5.94-2.58,5.11,1.16,7.35,7.17,7.88,8.84a5,5,0,0,0,1.21-.62,4.61,4.61,0,0,1,5-.56c3.52,1.63,3.84,3.86,3.85,4Zm-47.94-1h46.68a6,6,0,0,0-3.08-2.61,3.68,3.68,0,0,0-4.05.5,4.11,4.11,0,0,1-2.1.82h-.38l-.1-.37c0-.07-2-7.36-7.26-8.55-3.08-.7-3.87.56-4.87,2.14a6.66,6.66,0,0,1-3,2.92,6.08,6.08,0,0,1-5.27-.33,5.71,5.71,0,0,0-3.24-.65,3.29,3.29,0,0,0-2.8,2.18,5.61,5.61,0,0,1-1,1.5c-.92.92-2.06.59-3.17.28a7.14,7.14,0,0,0-2.73-.39C333.82,330,332.43,331.46,331.7,332.39Z" style="fill:#263238"></path><path d="M171.77,85.65H73.15l.47-.76c.17-.28,4.28-6.87,9.58-7.4a15.56,15.56,0,0,1,6,.84c2.13.61,3.66,1,4.89-.18a9.89,9.89,0,0,0,1.74-2.65c1.07-2.07,2.29-4.42,6.72-5.16,2.8-.47,5.11.49,7.33,1.41,2.87,1.19,5.57,2.32,9.43.67,2.64-1.14,4-3.25,5.27-5.3,2.06-3.24,4.18-6.6,11.4-5,10.53,2.39,14.86,15.37,15.6,17.86a8,8,0,0,0,3.05-1.4c2.25-1.41,5.06-3.17,9.57-1.08,6.83,3.14,7.43,7.37,7.45,7.55ZM75,84.65h95.57c-.41-1.18-1.87-4-6.72-6.21-4-1.85-6.36-.39-8.62,1a7.71,7.71,0,0,1-4,1.58h-.38l-.1-.37c0-.15-4.15-15.08-15-17.54-6.53-1.49-8.29,1.3-10.33,4.52-1.31,2.07-2.8,4.42-5.73,5.68-4.24,1.82-7.27.55-10.21-.67-2.18-.91-4.25-1.77-6.78-1.35-3.93.66-4.93,2.6-6,4.64a11.32,11.32,0,0,1-1.92,2.9c-1.65,1.64-3.61,1.08-5.88.43a14.46,14.46,0,0,0-5.67-.8C79.5,78.87,76.21,82.93,75,84.65Z" style="fill:#263238"></path></g><g id="freepik--Character--inject-30"><polygon points="318.69 254.92 157.54 254.98 205.57 303.94 93.18 409.38 150.16 470.11 263.92 363.39 315.59 416.04 318.69 254.92" style="fill:#FFCD11"></polygon><path d="M150.13,470.82,92.47,409.35,204.86,303.92l-48.51-49.44h1.19l161.66-.06-3.13,162.82-52.16-53.15ZM93.88,409.4l56.3,60L263.94,362.69l51.17,52.15,3.07-159.42-159.45.06L206.29,304Z" style="fill:#263238"></path><path d="M194.1,133.94s-2,5.17-2.15,6.13a16,16,0,0,0,1.19,6.46c1,1.82,2,3.33,1,3.33s-1.61,0-2.36-1.51a11.13,11.13,0,0,1-1-2.79s-6.77,8.17-7.2,8.6-1.4.54-1.29-.43,3.22-6.67,3.22-6.67l-6,7.21s-1.61,1.07-1.18-.54,4.41-8.06,4.41-8.06-4.2,3.65-5.27,4.4-2.8,1.94-2.91,1.08,5.49-7.53,5.59-8.07-4,2.59-4.4,3.12-2.58,2.69-3.12,2.69-.86-.64.21-2.58,4.95-5.38,5.81-6.45,12-10.22,12-10.22Z" style="fill:#fff"></path><path d="M178.58,155.12a.81.81,0,0,1-.51-.16c-.34-.24-.43-.7-.26-1.36a37.89,37.89,0,0,1,2.87-5.53c-1.16,1-2.42,2-3,2.41-1.63,1.15-2.58,1.68-3.22,1.4a.81.81,0,0,1-.46-.67c-.08-.59.66-1.71,3.75-5.75l.62-.81a20,20,0,0,0-2.3,1.87s-2.57,2.87-3.51,2.87a1,1,0,0,1-.84-.46c-.34-.57-.14-1.51.62-2.86a28.81,28.81,0,0,1,4.24-4.84c.72-.73,1.34-1.35,1.61-1.68.87-1.09,11-9.35,12.12-10.29l.39-.32,3.94,4.92-.11.27a56.23,56.23,0,0,0-2.12,6,15.7,15.7,0,0,0,1.13,6.16c.17.33.35.64.51.94.74,1.33,1.19,2.13.85,2.72a.89.89,0,0,1-.84.41c-1.22,0-2-.08-2.81-1.78a12.63,12.63,0,0,1-.77-1.94c-1.75,2.11-6.23,7.5-6.6,7.87a1.47,1.47,0,0,1-1.58.36,1.07,1.07,0,0,1-.56-1.2,13.73,13.73,0,0,1,1.13-2.72l-3.15,3.73A2.36,2.36,0,0,1,178.58,155.12Zm6.28-12-1.73,2.81c-1.09,1.78-4,6.66-4.35,7.93a1.39,1.39,0,0,0-.05.23,2.62,2.62,0,0,0,.42-.2l6-7.15.82.56a48.43,48.43,0,0,0-3.17,6.49.49.49,0,0,0,0,.19.61.61,0,0,0,.43-.17c.31-.31,4.46-5.29,7.18-8.57l.69-.84.18,1.08a11.11,11.11,0,0,0,.93,2.65c.6,1.2.87,1.23,1.84,1.23a10.15,10.15,0,0,0-.81-1.64l-.53-1a16.38,16.38,0,0,1-1.23-6.74,53,53,0,0,1,2.07-6l-2.94-3.68c-4.48,3.67-11,9.08-11.58,9.82-.3.38-.91,1-1.68,1.76a28.86,28.86,0,0,0-4.08,4.62c-.81,1.46-.63,1.87-.63,1.87a17.94,17.94,0,0,0,2.71-2.53s4.14-3.71,5-3.32l.35.17,0,.44c-.06.29-.44.81-2,2.89a55.08,55.08,0,0,0-3.45,4.82,11,11,0,0,0,2-1.23c1-.72,5.19-4.33,5.23-4.37Z" style="fill:#263238"></path><path d="M199.35,241.72s-6.26,6.46-7.72,10.84-.62,11.25,1.88,11.67,7.71-6.25,9.17-11.67,2.3-8.13,2.3-8.13Z" style="fill:#fff"></path><path d="M193.74,264.75a1.55,1.55,0,0,1-.31,0,2.6,2.6,0,0,1-1.77-1.38c-1.42-2.36-1.66-7.48-.5-10.94,1.48-4.44,7.57-10.76,7.83-11l.25-.26,6.34,3-.13.41s-.84,2.77-2.28,8.12S196.78,264.75,193.74,264.75Zm5.72-22.43c-1.17,1.25-6.11,6.66-7.35,10.39-1.06,3.18-.87,8,.41,10.11a1.72,1.72,0,0,0,1.07.92c2.06.34,7.16-5.93,8.61-11.31,1.13-4.19,1.89-6.79,2.17-7.74Z" style="fill:#263238"></path><path d="M202.68,252.56l-3.33,4.17-6.26-2.09-.41-3.54-.32-.21a11.79,11.79,0,0,0-.73,1.67c-1.46,4.37-.62,11.25,1.88,11.67S201.22,258,202.68,252.56Z" style="fill:#fff"></path><path d="M193.74,264.75a1.55,1.55,0,0,1-.31,0,2.6,2.6,0,0,1-1.77-1.38c-1.42-2.36-1.66-7.48-.5-10.94a11.25,11.25,0,0,1,.76-1.74l.25-.5,1,.65.4,3.46,5.62,1.87,4.62-5.76-.62,2.31C201.76,257.91,196.78,264.75,193.74,264.75Zm-1.44-12.56c-.07.18-.14.36-.19.52-1.06,3.18-.87,8,.41,10.11a1.72,1.72,0,0,0,1.07.92c1.69.28,5.47-3.95,7.55-8.46l-1.62,2-6.89-2.3Z" style="fill:#263238"></path><path d="M277.37,244.24s2.08,3.54,4.17,5,10,4.79,9.79,6S282.79,257,279.66,257s-7.3-1.87-10.22-3.54-5-1.67-4.17-4.59,4-6.46,4-6.46Z" style="fill:#fff"></path><path d="M279.66,257.45c-3.74,0-8.56-2.52-10.46-3.61-.65-.37-1.27-.66-1.82-.92-1.87-.88-3.35-1.58-2.59-4.24.86-3,3.94-6.5,4.07-6.65l.2-.22,8.63,2,.11.18s2.05,3.47,4,4.85a39.48,39.48,0,0,0,3.67,2c4.54,2.33,6.51,3.46,6.34,4.53C291.48,257.43,280.14,257.45,279.66,257.45Zm-10.24-14.53c-.68.81-3,3.67-3.66,6-.53,1.84.17,2.17,2.05,3.06.56.26,1.2.56,1.88.95,1.83,1.05,6.47,3.48,10,3.48,4.48,0,10.36-.57,11.15-1.25-.41-.72-3.76-2.43-5.78-3.47a39.48,39.48,0,0,1-3.78-2.08,19.36,19.36,0,0,1-4.2-5Z" style="fill:#263238"></path><path d="M291.33,255.28c.17-1-5.08-3.43-8.15-5.08l-2.06,2.58A83.69,83.69,0,0,1,272,248l-4.6-3.18a15,15,0,0,0-2.08,4c-.83,2.92,1.26,2.92,4.17,4.59s7.09,3.54,10.22,3.54S291.13,256.54,291.33,255.28Z" style="fill:#fff"></path><path d="M279.66,257.45c-3.74,0-8.56-2.52-10.46-3.61-.65-.37-1.27-.66-1.82-.92-1.87-.88-3.35-1.58-2.59-4.24a15.15,15.15,0,0,1,2.15-4.15l.28-.41.41.28,4.6,3.18a77.9,77.9,0,0,0,8.74,4.59l2.08-2.6.37.19c.62.34,1.33.7,2.06,1.08,4.55,2.33,6.52,3.46,6.35,4.53h0C291.48,257.43,280.14,257.45,279.66,257.45Zm-12.18-11.94a12.92,12.92,0,0,0-1.72,3.45c-.53,1.84.17,2.17,2.05,3.06.56.26,1.2.56,1.88.95,1.83,1.05,6.47,3.48,10,3.48,4.48,0,10.36-.57,11.15-1.25-.41-.72-3.76-2.43-5.78-3.47l-1.72-.89-2,2.56-.36-.16a82.79,82.79,0,0,1-9.25-4.84Zm23.36,9.76Z" style="fill:#263238"></path><path d="M306.58,205.43C301.39,180,283,151.67,282.37,150.21s-5-13.13-5-13.13-17.31,1.88-22.52,1.25-18.76-2.92-18.76-2.92v5.84s-6.33,14.61-8.62,20.7-3,26.4-3.3,27.67-2.79,15.74-2.79,15.74l-25.22,38.71s-.16,4.44,4.15,4.69,4.65-.07,4.65-.07l34.82-38.13s1.77-4.82,2.28-5.84,14.62-34.25,15.33-36.32l5.11,3.45,26.33,35.69a28.88,28.88,0,0,0-5,7.93c-1.88,4.58-14.59,26.89-14.59,26.89s3.54,3.13,5.62,3.54a72.77,72.77,0,0,0,7.26.65s21.56-32.17,22.18-34.26S307.19,208.41,306.58,205.43Z" style="fill:#263238"></path><path d="M203.06,249.36c-.68,0-1.59,0-2.78-.1a4.83,4.83,0,0,1-4.62-5.21v-.14l25.25-38.74c.24-1.39,2.53-14.43,2.77-15.65,0-.26.15-1.67.26-3.46.42-6.34,1.28-19.53,3.06-24.28,2.17-5.78,8-19.36,8.59-20.63v-6.33l.58.1c.14,0,13.6,2.3,18.74,2.92s22.23-1.24,22.4-1.26l.39,0,.13.37c.05.11,4.38,11.68,5,13.11.07.16.53.94,1.12,1.92,12.35,20.75,20.13,38.71,23.12,53.39h0c.44,2.16-.5,3.75-1.32,5.16a9.31,9.31,0,0,0-1,1.95c-.63,2.09-20,31.09-22.24,34.39l-.16.23h-.28a72.26,72.26,0,0,1-7.33-.66c-2.19-.43-5.72-3.52-5.87-3.66l-.3-.26.2-.36c.13-.22,12.72-22.33,14.57-26.83a29.45,29.45,0,0,1,4.82-7.77l-26-35.29-4.52-3.06c-2,5-14.59,34.72-15.12,35.79s-2.25,5.74-2.26,5.78l-.1.17L205.33,249C205.21,249.14,205,249.36,203.06,249.36Zm-6.4-5.14a3.84,3.84,0,0,0,3.68,4,19.32,19.32,0,0,0,4.33,0l34.67-38c.26-.69,1.79-4.83,2.27-5.79.1-.19,14.48-33.84,15.31-36.27l.21-.62,5.77,3.94,26.58,36-.28.31a28.55,28.55,0,0,0-4.91,7.77c-1.76,4.29-12.71,23.6-14.42,26.59.89.75,3.5,2.85,5.09,3.16,1.75.35,5.8.57,6.9.63,8.65-12.91,21.52-32.42,22-33.89a9.69,9.69,0,0,1,1.06-2.17c.77-1.31,1.56-2.66,1.2-4.45-3-14.57-10.71-32.43-23-53.07-.77-1.3-1.09-1.83-1.18-2.05-.57-1.32-4.12-10.77-4.88-12.79-2.64.28-17.4,1.79-22.24,1.21-4.55-.55-15.54-2.38-18.2-2.83l0,5.45c-.07.15-6.36,14.67-8.61,20.68-1.73,4.61-2.59,17.7-3,24-.14,2.2-.22,3.28-.28,3.59-.25,1.25-2.76,15.58-2.79,15.72l-.07.19Z" style="fill:#263238"></path><path d="M252.19,79.81l-8.51,3.62s6,23,5.61,25-8.53,31.79-8.53,31.79,10.13,4.71,19.9,3.26,12.85-4,12.85-4-4.67-34.69-4.67-36.14.54-18.82.54-18.82S260.87,78.18,252.19,79.81Z" style="fill:#fff"></path><path d="M256.72,144.23a43.06,43.06,0,0,1-16.17-3.58l-.38-.18.11-.41c.08-.3,8.17-29.81,8.52-31.75.25-1.37-3.3-15.91-5.6-24.76l-.11-.41,9-3.82c8.79-1.65,17.22,4.53,17.58,4.79l.21.16v.26c0,.17-.54,17.38-.54,18.8,0,1.12,3.05,24.08,4.67,36.07l0,.28-.21.17c-.13.11-3.3,2.64-13.09,4.09A27.38,27.38,0,0,1,256.72,144.23Zm-15.36-4.32c1.93.82,10.79,4.3,19.23,3,8.08-1.19,11.53-3.15,12.39-3.71-.49-3.63-4.64-34.5-4.64-35.91s.46-16.28.53-18.56c-1.34-.94-8.93-5.87-16.54-4.48l-8.05,3.43c1,3.74,5.86,22.82,5.51,24.77S242.39,136.14,241.36,139.91Z" style="fill:#263238"></path><path d="M276.57,105.67l4.25,12a126.25,126.25,0,0,1,13.36,1.87c4.87,1.12,15.36,3,15.36,3l-.62,6.49s-12.37,1-18.61,1.37-13.36.38-13.36.38l-5.87-14Z" style="fill:#FFCD11"></path><path d="M277,131.27h-.33l-6.09-14.51,6.12-12.37,4.53,12.8A125.8,125.8,0,0,1,294.29,119c4.81,1.11,15.23,3,15.34,3l.45.08-.7,7.37-.42,0c-.13,0-12.44,1-18.62,1.37S277,131.27,277,131.27Zm-5.32-14.47,5.65,13.47c1.48,0,7.6-.05,13-.38s16-1.16,18.18-1.34l.54-5.61c-2.07-.38-10.68-1.94-14.93-2.92a128.33,128.33,0,0,0-13.29-1.87l-.32,0-4-11.18Z" style="fill:#263238"></path><path d="M265.21,89.81s.13,18.48.87,21.6,16.27,51.85,16.27,52.47,1.75.25,4.25-.87,7.49-6.87,7.49-6.87-10.26-13.91-13.75-20.65-4.76-16-5-17.33,2.49-7.87,2.62-12.37.25-5.24.25-6,1.62-9.24,1.87-11.62-2.5-3-5.87-4.62a55.34,55.34,0,0,0-9.09-2.94Z" style="fill:#FFCD11"></path><path d="M282.88,164.68a1.35,1.35,0,0,1-.69-.16.77.77,0,0,1-.34-.64c-.12-.59-3.79-12.28-7.34-23.6-4.19-13.33-8.52-27.11-8.91-28.75-.76-3.14-.88-21-.89-21.72L264.6,80l.62.15a53.72,53.72,0,0,1,9.2,3c.64.31,1.25.58,1.83.84,2.55,1.12,4.56,2,4.32,4.29-.14,1.27-.65,4.24-1.11,6.86-.36,2.06-.76,4.39-.76,4.7s0,.55-.05,1c0,.79-.12,2.12-.2,5a37.44,37.44,0,0,1-1.77,8.49,16.8,16.8,0,0,0-.86,3.77c0,.13.05.32.1.58,1.14,7,2.78,12.6,4.86,16.61,3.44,6.63,13.61,20.44,13.71,20.58l.24.33-.26.3c-.21.24-5.1,5.84-7.67,7A11.21,11.21,0,0,1,282.88,164.68Zm0-.83v0Zm0-.17a9.87,9.87,0,0,0,3.58-1.13c2.05-.92,6-5.26,7.06-6.44-1.57-2.14-10.38-14.27-13.56-20.39s-4.53-14.26-5-16.91c0-.25-.07-.44-.1-.57-.12-.66.22-1.9.89-4.22a36.49,36.49,0,0,0,1.73-8.24c.08-2.89.16-4.23.21-5,0-.43,0-.69,0-1s.28-2,.78-4.87c.45-2.61,1-5.56,1.09-6.8.16-1.48-1.17-2.14-3.72-3.27-.59-.26-1.22-.53-1.87-.84a49.94,49.94,0,0,0-8.37-2.76l.1,8.54c0,.19.13,18.46.86,21.49.39,1.61,4.91,16,8.89,28.69C281,157.69,282.57,162.67,282.81,163.68Z" style="fill:#263238"></path><path d="M251.48,90s4.27,12.82,4.27,16.54-6.31,19.64-8.91,23.36-17.71,31.94-17.71,31.94-8.36-3.72-11.34-6.88a17.88,17.88,0,0,1-3.9-7.62l25.27-26.58L234.75,105,216,114.86l-22.86,22.86-5.39-6.5,18.92-25.92s19.37-17.39,20.11-18,20.44-7.43,20.44-7.43Z" style="fill:#FFCD11"></path><path d="M229.35,162.44l-.42-.19c-.35-.15-8.49-3.79-11.5-7a18.23,18.23,0,0,1-4-7.86l-.05-.25.18-.19,25.07-26.38-4.16-14.84-18.16,9.53-23.2,23.19-6-7.23,19.22-26.3c.79-.71,19.39-17.41,20.14-18s17.28-6.35,20.58-7.5l.44-.16L252,89.8c.18.52,4.3,12.94,4.3,16.7s-6.31,19.8-9,23.65c-2.56,3.65-17.53,31.6-17.68,31.88Zm-14.91-15a17.32,17.32,0,0,0,3.72,7.13c2.49,2.65,9,5.77,10.75,6.57,2-3.64,15.07-28.08,17.52-31.58,2.56-3.66,8.82-19.47,8.82-23.07S251.2,90.7,251,90.13l-4.08-9.58c-7.77,2.71-19.17,6.76-19.88,7.21s-14.62,13-20,17.88L188.36,131.2l4.79,5.78,22.6-22.56,19.32-10.14,4.65,16.58Z" style="fill:#263238"></path><polygon points="235.87 106.36 226.67 100.22 227.22 99.39 233.63 103.66 232.06 100 232.98 99.61 235.87 106.36" style="fill:#263238"></polygon><path d="M246.84,129.86s-25.7,21.53-25.33,23.2,3.72,5.95,7.62,8.74Z" style="fill:#FFCD11"></path><path d="M229.3,162.53l-.46-.33c-3.89-2.77-7.4-7.13-7.82-9-.38-1.71,15.81-15.58,25.5-23.69l2.06-1.73ZM222,153c.4,1.5,3.38,5.35,6.95,8L245.09,132C235.69,139.92,222.64,151.34,222,153Zm0,0Z" style="fill:#263238"></path><path d="M251.09,76.37s-2.76-.88-3.63-.25-1.88,3.13-1.88,3.13-1.13,15.39-1,15.9,13.14-5.76,13.14-5.76,11.89,5.63,12,4.63-4.63-13.4-4.63-13.4Z" style="fill:#fff"></path><path d="M244.57,95.66a.38.38,0,0,1-.19,0l-.21-.1-.08-.25c-.12-.51.57-10.28,1-16.06l0-.15c.11-.27,1.09-2.66,2.06-3.35s3.56,0,4.07.18l14.25,4.33.08.22c1.13,2.94,4.8,12.6,4.67,13.64a.61.61,0,0,1-.32.46c-.93.52-7.1-2.19-12.2-4.6C247.12,95,245.09,95.66,244.57,95.66Zm1.5-16.3c-.39,5.33-.92,13.09-1,15.2,1.86-.64,8.35-3.66,12.44-5.62l.21-.11.22.11c4.61,2.18,9.76,4.38,11.25,4.67-.37-1.58-2.46-7.35-4.46-12.58l-13.79-4.19c-1.22-.38-2.78-.61-3.19-.32A8.92,8.92,0,0,0,246.07,79.36Z" style="fill:#263238"></path><path d="M268.59,49.74A18.91,18.91,0,0,0,256,45.62C250,46.05,242.66,48,240.4,56.94s4.94,15.94,8,17.18a20.12,20.12,0,0,1,3.6,1.64s-1.44,1-2.47,1.65l-1,.62s1.23,8,5.24,13.27a71.15,71.15,0,0,1,4.74,6.58,20.75,20.75,0,0,0,4.42-10.8l3.5-7.82s4.94.21,5.55-.82,2.78-10.08,2.78-10.08,2.88-2.37,2.57-3.81-2.46-2.37-3.08-3.09a7.45,7.45,0,0,1-2-3.7A21.39,21.39,0,0,0,268.59,49.74Z" style="fill:#fff"></path><path d="M258.41,98.75l-.34-.63a73.42,73.42,0,0,0-4.69-6.52c-4-5.28-5.29-13.16-5.35-13.5l-.05-.33L249.3,77c.57-.34,1.28-.82,1.78-1.17-.5-.24-1.37-.64-2.84-1.23-3.31-1.32-10.65-8.55-8.32-17.77C241.74,49.59,247,45.76,256,45.12a19.27,19.27,0,0,1,12.92,4.24l.05.06a21.8,21.8,0,0,1,3.81,8.23A6.8,6.8,0,0,0,274.49,61l.14.16a6.07,6.07,0,0,0,.88.7c.92.64,2.06,1.44,2.31,2.61.33,1.54-1.89,3.57-2.61,4.18-.35,1.48-2.19,9.05-2.8,10.07s-4,1.13-5.66,1.07l-3.33,7.44a21,21,0,0,1-4.54,11Zm-9.33-20.47c.28,1.55,1.66,8.23,5.09,12.72,2.62,3.42,3.84,5.19,4.39,6a20.61,20.61,0,0,0,3.87-10l0-.15,3.64-8.13h.34c2.43.1,4.86-.17,5.11-.58a101.22,101.22,0,0,0,2.72-9.94l0-.16.12-.11c1.1-.9,2.57-2.53,2.41-3.31s-1.14-1.46-1.91-2a5.77,5.77,0,0,1-1.07-.86l-.14-.16a7.76,7.76,0,0,1-1.92-3.75,20.89,20.89,0,0,0-3.58-7.79,18.51,18.51,0,0,0-12.16-4c-5.43.39-12.91,1.94-15.18,10.94-2.18,8.62,4.64,15.36,7.72,16.59a21.33,21.33,0,0,1,3.73,1.72l.51.42-.53.38c-.06,0-1.47,1-2.51,1.67Z" style="fill:#263238"></path><path d="M263.34,50.76c2.36-1.33,4.11-1.33,5.27-1l0,0A18.91,18.91,0,0,0,256,45.62C250,46.05,242.66,48,240.4,56.94s4.94,15.94,8,17.18a20.12,20.12,0,0,1,3.6,1.64c2.26-.51,4.73-4.11,4.73-4.11a12,12,0,0,1-3.81-.1c-1.54-.42-3.19-4.22-1.44-6.79s4.22-.42,4.63-.11A2.58,2.58,0,0,0,259,64c1.13-1,1.44-4.22,1.13-6.18S258.61,53.44,263.34,50.76Z" style="fill:#263238"></path><path d="M251.9,76.31l-.19-.16a22.57,22.57,0,0,0-3.47-1.57c-3.31-1.32-10.65-8.55-8.32-17.77C241.74,49.59,247,45.76,256,45.12a19.27,19.27,0,0,1,12.92,4.24l.08.09.86,1.18-1.39-.39a6.47,6.47,0,0,0-4.88,1h0c-3.85,2.18-3.46,4-3.09,5.84q.09.38.15.75c.31,2,0,5.41-1.29,6.62a3.07,3.07,0,0,1-3.52.64l-.09-.07a3.61,3.61,0,0,0-2.44-1,2,2,0,0,0-1.38,1,4.59,4.59,0,0,0-.33,4.16,2.94,2.94,0,0,0,1.48,1.86,11.27,11.27,0,0,0,3.61.09l1.12-.15-.64.93c-.1.16-2.61,3.77-5,4.32Zm5.25-30.23c-.36,0-.71,0-1.08,0-5.43.39-12.91,1.94-15.18,10.94-2.18,8.62,4.64,15.36,7.72,16.59a30.43,30.43,0,0,1,3.5,1.57c1.33-.41,2.76-2,3.57-3a10.12,10.12,0,0,1-2.86-.21,3.82,3.82,0,0,1-2.15-2.48,5.57,5.57,0,0,1,.43-5.07A3.07,3.07,0,0,1,253.15,63a4.49,4.49,0,0,1,3.21,1.15,2.11,2.11,0,0,0,2.33-.52c.92-.84,1.28-3.77,1-5.73,0-.23-.09-.46-.13-.7-.39-1.85-.92-4.38,3.57-6.91h0a8.94,8.94,0,0,1,3.74-1.24A18.44,18.44,0,0,0,257.15,46.08Z" style="fill:#263238"></path><path d="M270.94,60.52c.17.84,0,1.57-.31,1.64s-.73-.56-.9-1.4,0-1.57.31-1.63S270.78,59.69,270.94,60.52Z" style="fill:#263238"></path><path d="M268.61,58.12l-.86-.51a2.93,2.93,0,0,1,1.73-1.34,2.2,2.2,0,0,1,1.78.47l-.6.8a1.26,1.26,0,0,0-1-.29A2,2,0,0,0,268.61,58.12Z" style="fill:#263238"></path><path d="M272.18,70.83a3.82,3.82,0,0,1-3.53-2.27l.91-.41a2.87,2.87,0,0,0,2.88,1.67l.12,1Z" style="fill:#263238"></path><polygon points="266.43 79.26 262.21 78.34 264.58 82.56 266.43 79.26" style="fill:#263238"></polygon><path d="M264.58,83.58l-3.35-6,6,1.31Zm-1.39-4.52,1.39,2.47,1.08-1.92Z" style="fill:#263238"></path><path d="M241.84,52.82s-6-4.63-11.32-4.83-9.15,5.45-10.8,10-9.57,4.63-15.84,2S192.46,64.65,193,71.34s14.41,11.73,21.71,9.16,11.42-16.57,14.1-22.12,12.34-3.71,12.34-3.71Z" style="fill:#263238"></path><path d="M210.17,81.67a25,25,0,0,1-12.93-3.79c-2.94-1.91-4.59-4.16-4.76-6.5-.34-4.34,1.6-8.92,4.7-11.15a6.75,6.75,0,0,1,6.89-.77c4.45,1.89,9.48,2.28,12.51,1a4.59,4.59,0,0,0,2.67-2.62c1.78-4.89,5.81-10.51,11.29-10.31s11.36,4.74,11.61,4.94l.29.23-1,2.58-.41-.07c-.1,0-9.33-1.72-11.8,3.42-.54,1.12-1.13,2.57-1.82,4.24-2.75,6.76-6.53,16-12.56,18.14A14.43,14.43,0,0,1,210.17,81.67Zm-8.91-21.81a6,6,0,0,0-3.5,1.19c-2.83,2-4.6,6.25-4.29,10.25.16,2,1.69,4,4.32,5.74,5,3.23,12.3,4.54,16.72,3,5.61-2,9.44-11.36,12-17.57.69-1.7,1.28-3.16,1.83-4.3,2.52-5.22,10.54-4.34,12.48-4l.44-1.11c-1.26-.92-6.27-4.34-10.73-4.51-4.92-.18-8.65,5.08-10.32,9.65a5.58,5.58,0,0,1-3.21,3.2c-3.27,1.42-8.62,1-13.3-1A6.15,6.15,0,0,0,201.26,59.86Z" style="fill:#263238"></path><path d="M309.54,122.53s6.87-2.38,9.37-3.63,7.61.13,8,.25,3.87-1,3.87,0-.37,1.13-2.12,1.88a26.55,26.55,0,0,0-5.87,3.62c-.63.75-1,1.12.12,1.12s7-2,6.87-.37-2.37,2.12-4.12,2.62-.75,1.12-6.24,1.5a23,23,0,0,1-10.49-2.12Z" style="fill:#fff"></path><path d="M318.25,130.06a23.58,23.58,0,0,1-9.56-2.22l-.31-.16.71-5.53.29-.1c.07,0,6.86-2.37,9.3-3.59,2.81-1.4,8.33.2,8.38.22l.78-.16c1.49-.29,2.59-.46,3.13,0a.83.83,0,0,1,.3.64c0,1.3-.61,1.56-2.25,2.26l-.18.08a26.71,26.71,0,0,0-5.68,3.48l-.09.11-.16.19a13.76,13.76,0,0,0,1.77-.35c2.6-.6,4.49-1,5.26-.31a1,1,0,0,1,.33.83c-.14,1.85-2.33,2.46-4.08,2.95l-.4.11a3.43,3.43,0,0,0-1,.43c-.69.4-1.41.82-5.38,1.09C319,130,318.64,130.06,318.25,130.06Zm-8.79-3a22.5,22.5,0,0,0,9.91,1.92c3.73-.25,4.35-.61,4.95-1a4.75,4.75,0,0,1,1.19-.52l.41-.11c1.53-.43,3.26-.92,3.35-2.07-.39-.38-3.28.29-4.36.54a11.35,11.35,0,0,1-2,.37c-.33,0-.94,0-1.16-.46s.13-.86.56-1.37l.09-.11a26.62,26.62,0,0,1,6.06-3.76l.18-.08c1.54-.66,1.63-.73,1.64-1.23a8.44,8.44,0,0,0-2.24.24,2.92,2.92,0,0,1-1.29.13c-.64-.22-5.4-1.38-7.61-.28s-7.78,3.07-9.13,3.55Z" style="fill:#263238"></path><path d="M320.39,121.72l-.47-.88,1.37-.75a25.8,25.8,0,0,1,5.53-1.43l.16,1a23.86,23.86,0,0,0-5.21,1.32Z" style="fill:#263238"></path><path d="M318.53,119.9s1.5-.5,3.62-1.25" style="fill:#fff"></path><path d="M318.69,120.38l-.32-.95s1.5-.5,3.62-1.25l.33.95C320.19,119.88,318.69,120.38,318.69,120.38Z" style="fill:#263238"></path></g></svg>
