<svg xmlns="http://www.w3.org/2000/svg" viewBox="0 0 500 500"><g id="freepik--Plants--inject-127"><g id="freepik--freepik--Plants--inject-2--inject-127"><path d="M418.65,339.48s2.4-2.92,2.53-3.13c1.48-2.37,2.95-7.8.94-10.23a3.71,3.71,0,0,0-5.23-.32,4.11,4.11,0,0,0-.29.3c-1.53,1.58-1.71,4.3-1.38,6.37C415.59,334.9,418.64,339.48,418.65,339.48Z" style="fill:#FFC107"></path><path d="M442.45,328.22l-.33-.22c-2.71-1.58-7.83.81-9.92,2.67-.18.17-2.66,3-2.66,3l0,0c-.8.37-1.65.79-2.61,1.24-1.7.88-3.67,1.87-5.7,3.09a64.82,64.82,0,0,0-6.4,4.28,49.12,49.12,0,0,0-6.4,5.74l1.47-3.26c.81-2.68.78-8.34-1.8-10.12a3.7,3.7,0,0,0-5.12,1.07l-.21.36c-1.06,1.94-.5,4.62.35,6.52,1,2.16,4.8,5.54,5.11,5.81a65.52,65.52,0,0,0-5.38,6.93c-.95,1.41-1.88,2.86-2.78,4.32l.66-1.46c.8-2.68.79-8.33-1.79-10.11a3.72,3.72,0,0,0-5.14,1.08l-.19.35c-1.06,1.93-.51,4.61.34,6.51s4.08,4.9,4.94,5.66l-1,1.7c-1.62,2.71-3.24,5.43-4.91,8.05-.59.92-1.2,1.81-1.8,2.7l.56-1.26c.81-2.69.79-8.35-1.79-10.13a3.72,3.72,0,0,0-5.14,1.09l-.19.34c-1.07,1.95-.52,4.61.34,6.53s3.76,4.6,4.79,5.51c-.65.9-1.3,1.79-2,2.63-.48.56-.89,1.14-1.39,1.67s-1,1.07-1.45,1.6c-1,1-1.95,2-2.91,3-.66.65-1.31,1.27-2,1.9.6-.92,1.73-2.72,1.8-2.89A14.26,14.26,0,0,0,383,377a5.46,5.46,0,0,0,.28-.77,3.71,3.71,0,0,0-2.46-4.64c-.13,0-.25-.08-.39-.1-3.1-.5-7,3.57-8.29,6.07-.07.15-.72,1.83-1.1,2.89.13-.65.26-1.3.39-2,.25-1.35.47-2.71.71-4.17.09-.72.18-1.43.28-2.15s.13-1.49.2-2.24c.12-1.73.16-3.5.16-5.29,1.2.23,5.4,1,7.44.47s4.5-1.66,5.39-3.69a3.72,3.72,0,0,0-1.73-5,2.39,2.39,0,0,0-.37-.15c-3-1-7.49,2.46-9.12,4.74-.07.15-1.1,1.89-1.63,2.87,0-1.07,0-2.14-.05-3.22-.13-3.13-.34-6.29-.55-9.45l-.18-2.9c.42.09,5.42,1.06,7.71.52,2-.48,4.49-1.68,5.38-3.7a3.71,3.71,0,0,0-1.82-4.93,3.49,3.49,0,0,0-.79-.26c-3-1-7.48,2.47-9.12,4.73-.09.19-1.54,2.71-1.88,3.37-.12-2.11-.23-4.23-.24-6.33a63.08,63.08,0,0,1,.44-8.47c.18.08,5.4,1.11,7.75.52,2-.48,4.5-1.66,5.38-3.69a3.72,3.72,0,0,0-1.74-4.95,2.39,2.39,0,0,0-.37-.15c-3-1-7.48,2.46-9.11,4.73-.07.17-1.2,2.07-1.7,3l-.15-.07a47.66,47.66,0,0,1,1.94-8.26c.49-1.49,1-2.89,1.57-4.23.95.29,5.32,1.58,7.48,1.31s4.65-1.15,5.76-3.07a3.72,3.72,0,0,0-1.2-5.12,1.57,1.57,0,0,0-.33-.19c-2.87-1.28-7.71,1.63-9.59,3.7-.06.14-1,1.38-1.66,2.31l.81-1.79c1-2.18,2-4.09,2.92-5.78.53-1,1-1.82,1.51-2.61,1.08-.2,5.44-1,7.2-2.27s3.59-3.17,3.71-5.37a3.71,3.71,0,0,0-3.37-4,3.12,3.12,0,0,0-.43,0c-3.13.18-6.14,5-6.81,7.71a32.52,32.52,0,0,0-.49,4c-.48.76-1,1.58-1.5,2.48-1,1.67-2,3.57-3.06,5.72-.38.8-.75,1.59-1.11,2.4-.68,1.53-1.31,3.11-1.86,4.69A47.93,47.93,0,0,0,371,332.6l0,.09c-.12-.91-.58-3.44-.64-3.62-.81-2.68-3.94-7.4-7.09-7.47a3.71,3.71,0,0,0-3.68,3.76,2.42,2.42,0,0,0,0,.38c.28,2.12,2.19,4.09,4,5.2,2,1.29,7.06,2,7.46,2a65.5,65.5,0,0,0-.65,8.73c0,1.71,0,3.42.05,5.15-.13-.79-.27-1.49-.3-1.58-.8-2.68-3.94-7.38-7.09-7.45a3.71,3.71,0,0,0-3.68,3.73c0,.15,0,.28,0,.42.19,2.21,2.08,4.1,3.89,5.24s6.1,1.84,7.26,1.95c0,.67.05,1.33.08,2,.13,3.17.29,6.33.34,9.43,0,1.1,0,2.17,0,3.25-.13-.7-.24-1.28-.24-1.41-.81-2.68-3.94-7.39-7.09-7.45a3.69,3.69,0,0,0-3.7,3.7,4.38,4.38,0,0,0,0,.51c.18,2.21,2.07,4.11,3.88,5.25s5.72,1.78,7,2c0,1.1-.1,2.21-.17,3.29-.08.73-.11,1.44-.23,2.16s-.21,1.43-.32,2.14c-.26,1.36-.51,2.76-.79,4.07-.19.91-.39,1.79-.58,2.66,0-1.09-.07-3.21-.09-3.39-.39-2.79-2.79-7.9-5.87-8.43a3.72,3.72,0,0,0-4.17,3.19c0,.12,0,.23,0,.36-.15,2.2,1.47,4.39,3.05,5.77,1.73,1.51,6.43,3,7,3.15-.33,1.44-.66,2.85-1,4.18-1.15,4.58-2.29,8.35-3.11,11-.1.34-.21.66-.31.94l1.89.88c.14-.37.22-.78.36-1.24.78-2.68,1.84-6.52,2.9-11.17.35-1.47.68-3.05,1-4.67a46.86,46.86,0,0,0,4.74-.08c.75,2.24,3.67,5.77,4.05,6.23-1.07,1-2.13,2-3.14,2.93-3.49,3.19-6.47,5.73-8.65,7.45-.34.25-.64.49-.92.72l2.2,1,.12-.1c2.12-1.81,5.14-4.42,8.59-7.71,1.09-1,2.27-2.15,3.42-3.34.49.36,4.49,3.22,6.74,3.68,2.06.42,4.78.37,6.44-1.1a3.7,3.7,0,0,0,.49-5.23,2.35,2.35,0,0,0-.26-.29c-2.3-2.13-7.82-.9-10.26.47l-2.53,1.82c.48-.48.93-.89,1.43-1.43,1-1,1.89-2,2.9-3.1.46-.54.94-1.08,1.41-1.64s.93-1.16,1.4-1.74c1.06-1.39,2.07-2.84,3.06-4.33.86.83,4,3.78,5.95,4.49s4.71,1.12,6.56-.09a3.69,3.69,0,0,0,1.33-5.06l-.22-.33c-1.95-2.45-7.59-2.1-10.21-1.08-.17.06-2,1-2.94,1.5.59-.9,1.17-1.79,1.73-2.72,1.63-2.67,3.19-5.44,4.75-8.19.48-.85,1-1.67,1.46-2.51.3.3,3.93,3.87,6.15,4.68,1.95.72,4.71,1.11,6.55-.09a3.7,3.7,0,0,0,1.32-5.09,2.7,2.7,0,0,0-.2-.31c-2-2.45-7.59-2.1-10.22-1.08-.2.07-2.76,1.36-3.41,1.78,1.08-1.84,2.16-3.66,3.31-5.42a67.25,67.25,0,0,1,5-6.87c.14.15,3.92,3.9,6.18,4.73,2,.71,4.66,1.08,6.56-.1a3.71,3.71,0,0,0,1.28-5.09,2.7,2.7,0,0,0-.22-.33c-1.95-2.45-7.59-2.1-10.22-1.08-.17.06-2.14,1.07-3.07,1.58l-.11-.14a47,47,0,0,1,6.22-5.83c1.22-1,2.44-1.86,3.65-2.68.63.77,3.55,4.26,5.48,5.22s4.51,1.58,6.5.6a3.71,3.71,0,0,0,1.84-4.9l-.19-.36c-1.68-2.66-7.32-2.9-10-2.2-.15,0-1.58.6-2.67,1,.56-.37,1.12-.74,1.66-1.07,2-1.27,3.92-2.32,5.61-3.21l2.72-1.39c1,.45,5.11,2.12,7.26,2.07s4.74-.66,6.07-2.49A3.73,3.73,0,0,0,442.45,328.22Z" style="fill:#FFC107"></path><path d="M368.33,315.62c1.65,1.81,6.73,4,6.73,4s.37-3.75.38-4c-.05-2.8-1.84-8.17-4.85-9.06a3.72,3.72,0,0,0-4.54,2.65,2.57,2.57,0,0,0-.08.38C365.56,311.72,366.92,314.07,368.33,315.62Z" style="fill:#FFC107"></path><path d="M442.45,328.22l-.33-.22c-2.71-1.58-7.83.81-9.92,2.67-.18.17-2.66,3-2.66,3l0,0c-.8.37-1.65.79-2.61,1.24-1.7.88-3.67,1.87-5.7,3.09a64.82,64.82,0,0,0-6.4,4.28,49.12,49.12,0,0,0-6.4,5.74l1.47-3.26c.81-2.68.78-8.34-1.8-10.12a3.7,3.7,0,0,0-5.12,1.07l-.21.36c-1.06,1.94-.5,4.62.35,6.52,1,2.16,4.8,5.54,5.11,5.81a65.52,65.52,0,0,0-5.38,6.93c-.95,1.41-1.88,2.86-2.78,4.32l.66-1.46c.8-2.68.79-8.33-1.79-10.11a3.72,3.72,0,0,0-5.14,1.08l-.19.35c-1.06,1.93-.51,4.61.34,6.51s4.08,4.9,4.94,5.66l-1,1.7c-1.62,2.71-3.24,5.43-4.91,8.05-.59.92-1.2,1.81-1.8,2.7l.56-1.26c.81-2.69.79-8.35-1.79-10.13a3.72,3.72,0,0,0-5.14,1.09l-.19.34c-1.07,1.95-.52,4.61.34,6.53s3.76,4.6,4.79,5.51c-.65.9-1.3,1.79-2,2.63-.48.56-.89,1.14-1.39,1.67s-1,1.07-1.45,1.6c-1,1-1.95,2-2.91,3-.66.65-1.31,1.27-2,1.9.6-.92,1.73-2.72,1.8-2.89A14.26,14.26,0,0,0,383,377a5.46,5.46,0,0,0,.28-.77,3.71,3.71,0,0,0-2.46-4.64c-.13,0-.25-.08-.39-.1-3.1-.5-7,3.57-8.29,6.07-.07.15-.72,1.83-1.1,2.89.13-.65.26-1.3.39-2,.25-1.35.47-2.71.71-4.17.09-.72.18-1.43.28-2.15s.13-1.49.2-2.24c.12-1.73.16-3.5.16-5.29,1.2.23,5.4,1,7.44.47s4.5-1.66,5.39-3.69a3.72,3.72,0,0,0-1.73-5,2.39,2.39,0,0,0-.37-.15c-3-1-7.49,2.46-9.12,4.74-.07.15-1.1,1.89-1.63,2.87,0-1.07,0-2.14-.05-3.22-.13-3.13-.34-6.29-.55-9.45l-.18-2.9c.42.09,5.42,1.06,7.71.52,2-.48,4.49-1.68,5.38-3.7a3.71,3.71,0,0,0-1.82-4.93,3.49,3.49,0,0,0-.79-.26c-3-1-7.48,2.47-9.12,4.73-.09.19-1.54,2.71-1.88,3.37-.12-2.11-.23-4.23-.24-6.33a63.08,63.08,0,0,1,.44-8.47c.18.08,5.4,1.11,7.75.52,2-.48,4.5-1.66,5.38-3.69a3.72,3.72,0,0,0-1.74-4.95,2.39,2.39,0,0,0-.37-.15c-3-1-7.48,2.46-9.11,4.73-.07.17-1.2,2.07-1.7,3l-.15-.07a47.66,47.66,0,0,1,1.94-8.26c.49-1.49,1-2.89,1.57-4.23.95.29,5.32,1.58,7.48,1.31s4.65-1.15,5.76-3.07a3.72,3.72,0,0,0-1.2-5.12,1.57,1.57,0,0,0-.33-.19c-2.87-1.28-7.71,1.63-9.59,3.7-.06.14-1,1.38-1.66,2.31l.81-1.79c1-2.18,2-4.09,2.92-5.78.53-1,1-1.82,1.51-2.61,1.08-.2,5.44-1,7.2-2.27s3.59-3.17,3.71-5.37a3.71,3.71,0,0,0-3.37-4,3.12,3.12,0,0,0-.43,0c-3.13.18-6.14,5-6.81,7.71a32.52,32.52,0,0,0-.49,4c-.48.76-1,1.58-1.5,2.48-1,1.67-2,3.57-3.06,5.72-.38.8-.75,1.59-1.11,2.4-.68,1.53-1.31,3.11-1.86,4.69A47.93,47.93,0,0,0,371,332.6l0,.09c-.12-.91-.58-3.44-.64-3.62-.81-2.68-3.94-7.4-7.09-7.47a3.71,3.71,0,0,0-3.68,3.76,2.42,2.42,0,0,0,0,.38c.28,2.12,2.19,4.09,4,5.2,2,1.29,7.06,2,7.46,2a65.5,65.5,0,0,0-.65,8.73c0,1.71,0,3.42.05,5.15-.13-.79-.27-1.49-.3-1.58-.8-2.68-3.94-7.38-7.09-7.45a3.71,3.71,0,0,0-3.68,3.73c0,.15,0,.28,0,.42.19,2.21,2.08,4.1,3.89,5.24s6.1,1.84,7.26,1.95c0,.67.05,1.33.08,2,.13,3.17.29,6.33.34,9.43,0,1.1,0,2.17,0,3.25-.13-.7-.24-1.28-.24-1.41-.81-2.68-3.94-7.39-7.09-7.45a3.69,3.69,0,0,0-3.7,3.7,4.38,4.38,0,0,0,0,.51c.18,2.21,2.07,4.11,3.88,5.25s5.72,1.78,7,2c0,1.1-.1,2.21-.17,3.29-.08.73-.11,1.44-.23,2.16s-.21,1.43-.32,2.14c-.26,1.36-.51,2.76-.79,4.07-.19.91-.39,1.79-.58,2.66,0-1.09-.07-3.21-.09-3.39-.39-2.79-2.79-7.9-5.87-8.43a3.72,3.72,0,0,0-4.17,3.19c0,.12,0,.23,0,.36-.15,2.2,1.47,4.39,3.05,5.77,1.73,1.51,6.43,3,7,3.15-.33,1.44-.66,2.85-1,4.18-1.15,4.58-2.29,8.35-3.11,11-.1.34-.21.66-.31.94l1.89.88c.14-.37.22-.78.36-1.24.78-2.68,1.84-6.52,2.9-11.17.35-1.47.68-3.05,1-4.67a46.86,46.86,0,0,0,4.74-.08c.75,2.24,3.67,5.77,4.05,6.23-1.07,1-2.13,2-3.14,2.93-3.49,3.19-6.47,5.73-8.65,7.45-.34.25-.64.49-.92.72l2.2,1,.12-.1c2.12-1.81,5.14-4.42,8.59-7.71,1.09-1,2.27-2.15,3.42-3.34.49.36,4.49,3.22,6.74,3.68,2.06.42,4.78.37,6.44-1.1a3.7,3.7,0,0,0,.49-5.23,2.35,2.35,0,0,0-.26-.29c-2.3-2.13-7.82-.9-10.26.47l-2.53,1.82c.48-.48.93-.89,1.43-1.43,1-1,1.89-2,2.9-3.1.46-.54.94-1.08,1.41-1.64s.93-1.16,1.4-1.74c1.06-1.39,2.07-2.84,3.06-4.33.86.83,4,3.78,5.95,4.49s4.71,1.12,6.56-.09a3.69,3.69,0,0,0,1.33-5.06l-.22-.33c-1.95-2.45-7.59-2.1-10.21-1.08-.17.06-2,1-2.94,1.5.59-.9,1.17-1.79,1.73-2.72,1.63-2.67,3.19-5.44,4.75-8.19.48-.85,1-1.67,1.46-2.51.3.3,3.93,3.87,6.15,4.68,1.95.72,4.71,1.11,6.55-.09a3.7,3.7,0,0,0,1.32-5.09,2.7,2.7,0,0,0-.2-.31c-2-2.45-7.59-2.1-10.22-1.08-.2.07-2.76,1.36-3.41,1.78,1.08-1.84,2.16-3.66,3.31-5.42a67.25,67.25,0,0,1,5-6.87c.14.15,3.92,3.9,6.18,4.73,2,.71,4.66,1.08,6.56-.1a3.71,3.71,0,0,0,1.28-5.09,2.7,2.7,0,0,0-.22-.33c-1.95-2.45-7.59-2.1-10.22-1.08-.17.06-2.14,1.07-3.07,1.58l-.11-.14a47,47,0,0,1,6.22-5.83c1.22-1,2.44-1.86,3.65-2.68.63.77,3.55,4.26,5.48,5.22s4.51,1.58,6.5.6a3.71,3.71,0,0,0,1.84-4.9l-.19-.36c-1.68-2.66-7.32-2.9-10-2.2-.15,0-1.58.6-2.67,1,.56-.37,1.12-.74,1.66-1.07,2-1.27,3.92-2.32,5.61-3.21l2.72-1.39c1,.45,5.11,2.12,7.26,2.07s4.74-.66,6.07-2.49A3.73,3.73,0,0,0,442.45,328.22Z" style="fill:#FFC107;opacity:0.5;isolation:isolate"></path><path d="M418.65,339.48s2.4-2.92,2.53-3.13c1.48-2.37,2.95-7.8.94-10.23a3.71,3.71,0,0,0-5.23-.32,4.11,4.11,0,0,0-.29.3c-1.53,1.58-1.71,4.3-1.38,6.37C415.59,334.9,418.64,339.48,418.65,339.48Z" style="fill:#FFC107;opacity:0.30000000000000004;isolation:isolate"></path><path d="M368.33,315.62c1.65,1.81,6.73,4,6.73,4s.37-3.75.38-4c-.05-2.8-1.84-8.17-4.85-9.06a3.72,3.72,0,0,0-4.54,2.65,2.57,2.57,0,0,0-.08.38C365.56,311.72,366.92,314.07,368.33,315.62Z" style="fill:#FFC107;opacity:0.30000000000000004;isolation:isolate"></path></g><g id="freepik--freepik-plants-inject-2--inject-127"><path d="M130,338.69s-.35-3.51-.4-3.73c-.6-2.54-3.23-7.08-6.16-7.34a3.44,3.44,0,0,0-3.63,3.25,2.54,2.54,0,0,0,0,.39c0,2.05,1.72,3.95,3.3,5.09C125,337.71,130,338.69,130,338.69Z" style="fill:#FFC107"></path><path d="M138.21,315.55l-.37.07c-2.82.76-4.61,5.71-4.74,8.32,0,.23.26,3.75.26,3.75l0,0c-.29.78-.57,1.61-.9,2.55-.53,1.7-1.17,3.65-1.7,5.8a60.34,60.34,0,0,0-1.37,7,45.55,45.55,0,0,0-.4,8l-1.2-3.11c-1.24-2.3-5-6-7.87-5.46a3.44,3.44,0,0,0-2.65,4.09,3.06,3.06,0,0,0,.1.38c.58,2,2.72,3.36,4.54,4.05,2.06.77,6.81.46,7.19.43a61.42,61.42,0,0,0,1.06,8.11c.3,1.56.66,3.12,1,4.68l-.54-1.4c-1.24-2.29-5-6-7.85-5.46a3.47,3.47,0,0,0-2.66,4.12l.1.35c.58,2,2.71,3.36,4.53,4.05s5.92.51,7,.45l.44,1.8c.73,2.85,1.46,5.71,2.1,8.53.22,1,.41,2,.6,3l-.46-1.2c-1.25-2.3-5-6-7.88-5.47a3.47,3.47,0,0,0-2.65,4.12l.1.35c.58,2,2.71,3.37,4.55,4.06s5.5.53,6.78.45c.17,1,.33,2,.44,3,.06.69.17,1.34.2,2s.07,1.35.11,2c0,1.29.05,2.62.05,3.87,0,.86,0,1.7,0,2.54-.22-1-.67-2.93-.73-3.08a13.26,13.26,0,0,0-4-5.45,4.94,4.94,0,0,0-.33-.7,3.46,3.46,0,0,0-4.68-1.41,3.37,3.37,0,0,0-.32.19c-2.37,1.72-2.25,7-1.44,9.47.06.14.74,1.67,1.2,2.63l-1.06-1.57c-.73-1.05-1.48-2.09-2.29-3.2-.41-.53-.83-1.06-1.23-1.59s-.9-1.07-1.36-1.61c-1.06-1.22-2.21-2.4-3.39-3.58.94-.64,4.18-2.95,5.2-4.62s1.85-4.06,1.09-6a3.46,3.46,0,0,0-4.42-2.11l-.33.14c-2.6,1.34-3.29,6.57-2.86,9.15.06.14.53,2,.83,3-.71-.7-1.42-1.4-2.16-2.08-2.16-2-4.39-3.91-6.62-5.84l-2-1.79c.33-.22,4.26-2.89,5.4-4.75,1-1.67,1.84-4.08,1.09-6a3.44,3.44,0,0,0-4.45-2,2.87,2.87,0,0,0-.7.35c-2.59,1.34-3.28,6.56-2.86,9.13.07.19.78,2.81,1,3.46-1.48-1.31-3-2.63-4.34-4A58.86,58.86,0,0,1,95,365.67c.17-.07,4.28-2.84,5.43-4.78,1-1.67,1.86-4.07,1.1-6a3.48,3.48,0,0,0-4.43-2.09,2.33,2.33,0,0,0-.33.14c-2.6,1.34-3.28,6.56-2.85,9.13.06.16.58,2.15.87,3.1l-.14.06a43.53,43.53,0,0,1-4.19-6.71c-.67-1.3-1.25-2.58-1.77-3.82.81-.44,4.53-2.48,5.78-4.09s2.29-3.83,1.75-5.82a3.48,3.48,0,0,0-4.18-2.57,1.33,1.33,0,0,0-.34.1c-2.73,1.05-4,6.17-3.85,8.77.05.13.25,1.57.44,2.61L87.66,352c-.8-2.07-1.39-4-1.9-5.72-.28-1-.53-1.88-.73-2.71.57-.85,2.87-4.3,3.22-6.26s.27-4.45-1.12-6a3.45,3.45,0,0,0-4.86-.39,3.63,3.63,0,0,0-.28.27c-1.94,2.19-.75,7.33.63,9.56a30.44,30.44,0,0,0,2.33,3c.19.82.4,1.69.66,2.62.47,1.73,1,3.69,1.77,5.78.28.78.56,1.55.86,2.31q.86,2.19,1.89,4.31a44,44,0,0,0,4.07,6.91l0,.09c-.69-.52-2.66-1.87-2.82-1.95-2.31-1.23-7.48-2.26-9.6-.22a3.47,3.47,0,0,0,.07,4.9,2,2,0,0,0,.27.24c1.59,1.21,4.14,1.23,6,.8,2.19-.5,5.94-3.37,6.25-3.6a60.14,60.14,0,0,0,5.34,6.16c1.12,1.14,2.27,2.24,3.44,3.35-.6-.43-1.16-.8-1.24-.84-2.3-1.23-7.47-2.24-9.58-.21a3.45,3.45,0,0,0,0,4.89,3.4,3.4,0,0,0,.29.26c1.58,1.33,4.07,1.32,6,.88s5.22-2.84,6.06-3.53c.46.42.9.84,1.36,1.25,2.18,2,4.38,4,6.46,6,.75.71,1.44,1.43,2.14,2.14-.54-.37-1-.68-1.09-.76-2.3-1.23-7.47-2.25-9.59-.21a3.45,3.45,0,0,0,0,4.88,2.67,2.67,0,0,0,.36.31c1.58,1.33,4.08,1.33,6,.88s4.93-2.62,5.91-3.36c.7.75,1.4,1.52,2.07,2.27.43.53.88,1,1.27,1.57s.81,1.08,1.21,1.62c.73,1.06,1.49,2.15,2.17,3.19.48.73.93,1.44,1.38,2.13-.73-.7-2.17-2.06-2.3-2.17-2.1-1.56-7-3.34-9.43-1.65a3.46,3.46,0,0,0-.63,4.85,1.88,1.88,0,0,0,.22.26c1.36,1.55,3.87,1.91,5.82,1.78,2.14-.16,6.18-2.32,6.68-2.58.74,1.17,1.46,2.32,2.11,3.41,2.28,3.77,4,7,5.22,9.27.16.28.3.56.42.81l1.82-.67c-.15-.33-.37-.66-.58-1.05-1.26-2.28-3.11-5.5-5.48-9.26-.75-1.19-1.58-2.44-2.43-3.73a41.78,41.78,0,0,0,3.05-3.19c2,1,6.23,1.37,6.78,1.42,0,1.38-.06,2.72-.12,4-.18,4.41-.46,8.05-.75,10.62q-.09.58-.12,1.08l2.12-.77,0-.15c.19-2.58.45-6.29.54-10.74,0-1.4.07-2.91,0-4.46.56-.08,5.08-.85,6.87-2,1.62-1.09,3.38-2.92,3.49-5a3.46,3.46,0,0,0-3.13-3.76c-.12,0-.25,0-.36,0-2.93.13-5.74,4.59-6.43,7.1,0,.16-.3,1.82-.45,2.87,0-.63,0-1.2,0-1.89,0-1.29-.09-2.57-.14-3.95,0-.66-.1-1.33-.16-2s-.16-1.37-.24-2.07c-.22-1.61-.51-3.24-.85-4.86,1.12,0,5.11-.15,6.88-1s3.84-2.38,4.25-4.4a3.45,3.45,0,0,0-2.48-4.2l-.36-.08c-2.9-.31-6.37,3.65-7.42,6.05-.07.15-.64,1.94-.94,2.93-.21-1-.41-1.94-.66-2.93-.7-2.83-1.5-5.68-2.3-8.52-.24-.88-.47-1.74-.7-2.61.4,0,5.14-.06,7.13-1,1.77-.83,3.83-2.4,4.25-4.4a3.48,3.48,0,0,0-2.5-4.22l-.34-.07c-2.91-.3-6.37,3.65-7.43,6-.08.19-.91,2.73-1,3.43-.52-1.92-1-3.83-1.42-5.75a60.88,60.88,0,0,1-1.23-7.84c.19,0,5.14,0,7.18-1,1.76-.83,3.78-2.37,4.24-4.4a3.46,3.46,0,0,0-2.52-4.19,2.41,2.41,0,0,0-.37-.07c-2.9-.32-6.37,3.64-7.42,6.05-.07.16-.7,2.12-1,3.07l-.16,0a43,43,0,0,1,.22-7.94c.15-1.45.38-2.84.62-4.18.93.1,5.15.45,7.06-.2s4-1.93,4.66-3.9a3.45,3.45,0,0,0-2-4.43l-.36-.11c-2.86-.64-6.73,2.93-8.05,5.19-.07.12-.63,1.43-1.08,2.41.12-.6.24-1.22.37-1.79.48-2.16,1-4.11,1.56-5.82.31-1,.6-1.86.87-2.71,1-.38,4.76-2,6.14-3.44s2.67-3.58,2.34-5.66A3.48,3.48,0,0,0,138.21,315.55Z" style="fill:#FFC107"></path><path d="M81.2,356.31c2.29.09,7-1.86,7-1.86s-2.23-2.7-2.4-2.89c-1.89-1.8-6.61-4.14-9.18-2.74a3.48,3.48,0,0,0-1.23,4.76,3,3,0,0,0,.2.29C76.8,355.57,79.25,356.22,81.2,356.31Z" style="fill:#FFC107"></path><path d="M138.21,315.55l-.37.07c-2.82.76-4.61,5.71-4.74,8.32,0,.23.26,3.75.26,3.75l0,0c-.29.78-.57,1.61-.9,2.55-.53,1.7-1.17,3.65-1.7,5.8a60.34,60.34,0,0,0-1.37,7,45.55,45.55,0,0,0-.4,8l-1.2-3.11c-1.24-2.3-5-6-7.87-5.46a3.44,3.44,0,0,0-2.65,4.09,3.06,3.06,0,0,0,.1.38c.58,2,2.72,3.36,4.54,4.05,2.06.77,6.81.46,7.19.43a61.42,61.42,0,0,0,1.06,8.11c.3,1.56.66,3.12,1,4.68l-.54-1.4c-1.24-2.29-5-6-7.85-5.46a3.47,3.47,0,0,0-2.66,4.12l.1.35c.58,2,2.71,3.36,4.53,4.05s5.92.51,7,.45l.44,1.8c.73,2.85,1.46,5.71,2.1,8.53.22,1,.41,2,.6,3l-.46-1.2c-1.25-2.3-5-6-7.88-5.47a3.47,3.47,0,0,0-2.65,4.12l.1.35c.58,2,2.71,3.37,4.55,4.06s5.5.53,6.78.45c.17,1,.33,2,.44,3,.06.69.17,1.34.2,2s.07,1.35.11,2c0,1.29.05,2.62.05,3.87,0,.86,0,1.7,0,2.54-.22-1-.67-2.93-.73-3.08a13.26,13.26,0,0,0-4-5.45,4.94,4.94,0,0,0-.33-.7,3.46,3.46,0,0,0-4.68-1.41,3.37,3.37,0,0,0-.32.19c-2.37,1.72-2.25,7-1.44,9.47.06.14.74,1.67,1.2,2.63l-1.06-1.57c-.73-1.05-1.48-2.09-2.29-3.2-.41-.53-.83-1.06-1.23-1.59s-.9-1.07-1.36-1.61c-1.06-1.22-2.21-2.4-3.39-3.58.94-.64,4.18-2.95,5.2-4.62s1.85-4.06,1.09-6a3.46,3.46,0,0,0-4.42-2.11l-.33.14c-2.6,1.34-3.29,6.57-2.86,9.15.06.14.53,2,.83,3-.71-.7-1.42-1.4-2.16-2.08-2.16-2-4.39-3.91-6.62-5.84l-2-1.79c.33-.22,4.26-2.89,5.4-4.75,1-1.67,1.84-4.08,1.09-6a3.44,3.44,0,0,0-4.45-2,2.87,2.87,0,0,0-.7.35c-2.59,1.34-3.28,6.56-2.86,9.13.07.19.78,2.81,1,3.46-1.48-1.31-3-2.63-4.34-4A58.86,58.86,0,0,1,95,365.67c.17-.07,4.28-2.84,5.43-4.78,1-1.67,1.86-4.07,1.1-6a3.48,3.48,0,0,0-4.43-2.09,2.33,2.33,0,0,0-.33.14c-2.6,1.34-3.28,6.56-2.85,9.13.06.16.58,2.15.87,3.1l-.14.06a43.53,43.53,0,0,1-4.19-6.71c-.67-1.3-1.25-2.58-1.77-3.82.81-.44,4.53-2.48,5.78-4.09s2.29-3.83,1.75-5.82a3.48,3.48,0,0,0-4.18-2.57,1.33,1.33,0,0,0-.34.1c-2.73,1.05-4,6.17-3.85,8.77.05.13.25,1.57.44,2.61L87.66,352c-.8-2.07-1.39-4-1.9-5.72-.28-1-.53-1.88-.73-2.71.57-.85,2.87-4.3,3.22-6.26s.27-4.45-1.12-6a3.45,3.45,0,0,0-4.86-.39,3.63,3.63,0,0,0-.28.27c-1.94,2.19-.75,7.33.63,9.56a30.44,30.44,0,0,0,2.33,3c.19.82.4,1.69.66,2.62.47,1.73,1,3.69,1.77,5.78.28.78.56,1.55.86,2.31q.86,2.19,1.89,4.31a44,44,0,0,0,4.07,6.91l0,.09c-.69-.52-2.66-1.87-2.82-1.95-2.31-1.23-7.48-2.26-9.6-.22a3.47,3.47,0,0,0,.07,4.9,2,2,0,0,0,.27.24c1.59,1.21,4.14,1.23,6,.8,2.19-.5,5.94-3.37,6.25-3.6a60.14,60.14,0,0,0,5.34,6.16c1.12,1.14,2.27,2.24,3.44,3.35-.6-.43-1.16-.8-1.24-.84-2.3-1.23-7.47-2.24-9.58-.21a3.45,3.45,0,0,0,0,4.89,3.4,3.4,0,0,0,.29.26c1.58,1.33,4.07,1.32,6,.88s5.22-2.84,6.06-3.53c.46.42.9.84,1.36,1.25,2.18,2,4.38,4,6.46,6,.75.71,1.44,1.43,2.14,2.14-.54-.37-1-.68-1.09-.76-2.3-1.23-7.47-2.25-9.59-.21a3.45,3.45,0,0,0,0,4.88,2.67,2.67,0,0,0,.36.31c1.58,1.33,4.08,1.33,6,.88s4.93-2.62,5.91-3.36c.7.75,1.4,1.52,2.07,2.27.43.53.88,1,1.27,1.57s.81,1.08,1.21,1.62c.73,1.06,1.49,2.15,2.17,3.19.48.73.93,1.44,1.38,2.13-.73-.7-2.17-2.06-2.3-2.17-2.1-1.56-7-3.34-9.43-1.65a3.46,3.46,0,0,0-.63,4.85,1.88,1.88,0,0,0,.22.26c1.36,1.55,3.87,1.91,5.82,1.78,2.14-.16,6.18-2.32,6.68-2.58.74,1.17,1.46,2.32,2.11,3.41,2.28,3.77,4,7,5.22,9.27.16.28.3.56.42.81l1.82-.67c-.15-.33-.37-.66-.58-1.05-1.26-2.28-3.11-5.5-5.48-9.26-.75-1.19-1.58-2.44-2.43-3.73a41.78,41.78,0,0,0,3.05-3.19c2,1,6.23,1.37,6.78,1.42,0,1.38-.06,2.72-.12,4-.18,4.41-.46,8.05-.75,10.62q-.09.58-.12,1.08l2.12-.77,0-.15c.19-2.58.45-6.29.54-10.74,0-1.4.07-2.91,0-4.46.56-.08,5.08-.85,6.87-2,1.62-1.09,3.38-2.92,3.49-5a3.46,3.46,0,0,0-3.13-3.76c-.12,0-.25,0-.36,0-2.93.13-5.74,4.59-6.43,7.1,0,.16-.3,1.82-.45,2.87,0-.63,0-1.2,0-1.89,0-1.29-.09-2.57-.14-3.95,0-.66-.1-1.33-.16-2s-.16-1.37-.24-2.07c-.22-1.61-.51-3.24-.85-4.86,1.12,0,5.11-.15,6.88-1s3.84-2.38,4.25-4.4a3.45,3.45,0,0,0-2.48-4.2l-.36-.08c-2.9-.31-6.37,3.65-7.42,6.05-.07.15-.64,1.94-.94,2.93-.21-1-.41-1.94-.66-2.93-.7-2.83-1.5-5.68-2.3-8.52-.24-.88-.47-1.74-.7-2.61.4,0,5.14-.06,7.13-1,1.77-.83,3.83-2.4,4.25-4.4a3.48,3.48,0,0,0-2.5-4.22l-.34-.07c-2.91-.3-6.37,3.65-7.43,6-.08.19-.91,2.73-1,3.43-.52-1.92-1-3.83-1.42-5.75a60.88,60.88,0,0,1-1.23-7.84c.19,0,5.14,0,7.18-1,1.76-.83,3.78-2.37,4.24-4.4a3.46,3.46,0,0,0-2.52-4.19,2.41,2.41,0,0,0-.37-.07c-2.9-.32-6.37,3.64-7.42,6.05-.07.16-.7,2.12-1,3.07l-.16,0a43,43,0,0,1,.22-7.94c.15-1.45.38-2.84.62-4.18.93.1,5.15.45,7.06-.2s4-1.93,4.66-3.9a3.45,3.45,0,0,0-2-4.43l-.36-.11c-2.86-.64-6.73,2.93-8.05,5.19-.07.12-.63,1.43-1.08,2.41.12-.6.24-1.22.37-1.79.48-2.16,1-4.11,1.56-5.82.31-1,.6-1.86.87-2.71,1-.38,4.76-2,6.14-3.44s2.67-3.58,2.34-5.66A3.48,3.48,0,0,0,138.21,315.55Z" style="fill:#FFC107;opacity:0.5;isolation:isolate"></path><path d="M130,338.69s-.35-3.51-.4-3.73c-.6-2.54-3.23-7.08-6.16-7.34a3.44,3.44,0,0,0-3.63,3.25,2.54,2.54,0,0,0,0,.39c0,2.05,1.72,3.95,3.3,5.09C125,337.71,130,338.69,130,338.69Z" style="fill:#FFC107;opacity:0.30000000000000004;isolation:isolate"></path><path d="M81.2,356.31c2.29.09,7-1.86,7-1.86s-2.23-2.7-2.4-2.89c-1.89-1.8-6.61-4.14-9.18-2.74a3.48,3.48,0,0,0-1.23,4.76,3,3,0,0,0,.2.29C76.8,355.57,79.25,356.22,81.2,356.31Z" style="fill:#FFC107;opacity:0.30000000000000004;isolation:isolate"></path></g></g><g id="freepik--Shadow--inject-127"><ellipse cx="250" cy="412.74" rx="172.12" ry="22.97" style="fill:#FFC107"></ellipse><ellipse cx="250" cy="412.74" rx="172.12" ry="22.97" style="fill:#fff;opacity:0.5"></ellipse></g><g id="freepik--character-2--inject-127"><path d="M448.5,195.6s-6.12,28.16-14.15,41.5l-9.17-3.24-4.56,3.82L401.23,254s-29.34-9.78-34.79-19.33,2.11-22.14,2.11-22.14l19.15-46.1.17-.09,8.23-4.39s1.49-.19,3.75-.35c.77-.06,1.64-.1,2.57-.14,4.59-.19,10.65-.07,14.6,1.42a27.22,27.22,0,0,0,12.92,1.68s8.2,11,13.3,18.66S448.5,195.6,448.5,195.6Z" style="fill:#FFC107"></path><path d="M341.23,284.07s-6.6,17.45-7.64,27.84S345.36,340,345.36,340s-6.2,11.08-4.13,14.55,8-5.2,10.94-16.63-2.3-27-2.3-27,8.47-12,8.91-17.26S341.23,284.07,341.23,284.07Z" style="fill:#fff"></path><path d="M341.35,284.07s-6.7,17.45-7.76,27.84,12,28.06,12,28.06-6.3,11.08-4.21,14.55,8.19-5.2,11.13-16.63-2.34-27-2.34-27,8.62-12,9.06-17.26S341.35,284.07,341.35,284.07Z" style="fill:none;stroke:#263238;stroke-linecap:round;stroke-linejoin:round"></path><path d="M343.56,342.46s-1.7-3.12-.71-4,4.67,1.27,5.24,2.83,3.39-.95,3.39-.95l1.63-5.86a27.77,27.77,0,0,1,1.78,5.53c.14,1.7-3,4.92-3.4,8.93-.47,4.71-6.23,9.35-9.63,8.92S340.44,347.28,343.56,342.46Z" style="fill:#263238"></path><path d="M353.89,339.31a51.58,51.58,0,0,0-4.74,8.66c-.85,1.91-1.17,4-2.78,5.37a11.69,11.69,0,0,1-5.14,2.39" style="fill:none;stroke:#fff;stroke-linecap:round;stroke-linejoin:round"></path><path d="M420.62,237.68,401.23,254s-29.34-9.78-34.79-19.33,2.11-22.14,2.11-22.14l19.15-46.1.17-.09c4-1.13,8-3.38,12-4.74a23.19,23.19,0,0,1,2.69-.77c0,.21-.08.42-.12.63a78.79,78.79,0,0,0,10.9,55.8c2.09,3.28,2.89,7.22,4.5,10.75a31.78,31.78,0,0,1,2.49,6.83A16.26,16.26,0,0,1,420.62,237.68Z" style="opacity:0.1"></path><path d="M419.4,170.18s.56,3.92,6.33,4.66a10,10,0,0,0,9-3.62,29.65,29.65,0,0,1,.07-10.25c1-5.44,2.66-7.07,2.66-7.07s6.7.08,7.11-5.16-6.17-8.1-8.34-5.88-5-5.87-5-5.87l-7.67-4.42-5.63-5-4.38,4.23s-1.44,5-1.78,7.4-2,6.63-2,8.72.6,13.59,1.9,17.21,4.69,4.64,6.21,4.35S419.4,170.18,419.4,170.18Z" style="fill:#fff"></path><path d="M359.5,397c-.7-3.59-.11-7.76,1.53-12.14,2.85-7.59,5.41-57.29,12.63-63,4.66-3.68,16.17,1.26,16.17,1.26a124.14,124.14,0,0,1,0,17.41c-.63,10.76-20.24,46.21-20.4,49.38a6.21,6.21,0,0,0,1.11,2.72Z" style="fill:#fff"></path><path d="M359.5,397c-.7-3.59-.11-7.76,1.53-12.14,2.85-7.59,5.41-57.29,12.63-63,4.66-3.68,16.17,1.26,16.17,1.26a124.14,124.14,0,0,1,0,17.41c-.63,10.76-20.24,46.21-20.4,49.38a6.21,6.21,0,0,0,1.11,2.72Z" style="fill:none;stroke:#263238;stroke-linecap:round;stroke-linejoin:round"></path><path d="M359.87,388.59s-2.47,7.5-2.07,11.78,3.49,1.95,9.59,9S379,417.19,381,415.81s.81-4.95-5.39-15.44-3.9-5.89-3.9-5.89,1.26-4.37-1.13-5c-3.46-.9-5.51,4.13-7.68,4.13S359.87,388.59,359.87,388.59Z" style="fill:#263238"></path><path d="M358.49,398.31a7.69,7.69,0,0,0,1.95,2c1.5,1.08,3.24,1.76,4.79,2.78a34,34,0,0,1,5.24,4.8c1.16,1.18,2.38,2.3,3.64,3.37a10.83,10.83,0,0,0,3.28,2.09,4.18,4.18,0,0,0,3.76-.32" style="fill:none;stroke:#fff;stroke-linecap:round;stroke-linejoin:round"></path><path d="M419.43,126.27c-2.74,2.16-5.7,4.64-6.8,8.09s-.79,7.29-2.22,10.64c-1,2.32-.57,5.6-.43,8.05a78.64,78.64,0,0,0,1.55,11.44c.58,2.81,1.76,4.58,4.73,4.93s6.12-1.17,8.64-2.48c4.07-2.1,8.89-8.81,11.3-12.81,3.2-.76,9.31-.37,8.2-6.49s-5.72-3.15-7-1.39" style="fill:none;stroke:#263238;stroke-linecap:round;stroke-linejoin:round"></path><path d="M421.3,144c1.58-1.67,3.21-1.16,5.09,0" style="fill:none;stroke:#263238;stroke-linecap:round;stroke-linejoin:round"></path><path d="M417.26,145.1a8.85,8.85,0,0,1-1.62,6.81,3.64,3.64,0,0,0-.95,1.72,2.52,2.52,0,0,0,1,1.93" style="fill:none;stroke:#263238;stroke-linecap:round;stroke-linejoin:round"></path><path d="M417.12,159.81c2.42.21,3.79-.36,5.08-2.22" style="fill:none;stroke:#263238;stroke-linecap:round;stroke-linejoin:round"></path><path d="M423.77,148.46c-.07.85-.48,1.51-.9,1.48s-.71-.76-.63-1.61.48-1.52.9-1.48S423.85,147.61,423.77,148.46Z" style="fill:#263238"></path><path d="M414.61,147.25c-.08.85-.48,1.51-.91,1.48s-.7-.76-.63-1.62.48-1.51.91-1.47S414.68,146.4,414.61,147.25Z" style="fill:#263238"></path><path d="M412.09,142.72A2,2,0,0,1,415,143" style="fill:none;stroke:#263238;stroke-linecap:round;stroke-linejoin:round"></path><path d="M436.2,154.13a48.59,48.59,0,0,0-1.76,9.57,20,20,0,0,0,.26,7.52c-1.53,2.5-5.48,3.94-8.4,3.69a9.13,9.13,0,0,1-4.65-1.56,5.25,5.25,0,0,1-2.25-4.21" style="fill:none;stroke:#263238;stroke-linecap:round;stroke-linejoin:round"></path><path d="M366,231.78s17.56,17.94,36.64,21c0,0,5.35,9.54,2.67,18.7s-13,48.85-13,48.85L372.9,318V269.57s-6.46,16.46-12.43,24.5l-19.24-10S347.71,246.67,366,231.78Z" style="fill:#263238"></path><polyline points="366.44 255.73 372.28 262.41 372.9 269.57" style="fill:none;stroke:#fff;stroke-linecap:round;stroke-linejoin:round"></polyline><path d="M369.67,307.54s-1.06,6.14,1.27,15.66c0,0,13.55,3.6,21.81,1.06,0,0,4-8.47,4.65-11.85C397.4,312.41,384.07,304.57,369.67,307.54Z" style="fill:#263238"></path><path d="M337.9,288.06s9.11,7.2,20.54,9.31c0,0,5.83-4,8-6.77,0,0-12.44-12.5-27.05-12.5Z" style="fill:#263238"></path><path d="M421.68,206.08s2.93-11.16,12.67-13.81" style="fill:none;stroke:#263238;stroke-linecap:round;stroke-linejoin:round"></path><path d="M437.67,145.72c-.91.72-.64,2.26-1.34,3.2a3.57,3.57,0,0,1-2.59,1.47.36.36,0,0,1-.27,0,.41.41,0,0,1-.13-.26,21.32,21.32,0,0,1,0-4.52c0-2.49-1-3.67-2.72-5.27-1.31-1.24-1.27-3.45-2.52-4.76a5,5,0,0,0-3.56-1.27,22.71,22.71,0,0,1-3.87-.17,6.19,6.19,0,0,1-4.71-5c-2,1.59-3.71,7-3.71,7l-1.26-1.1a9.57,9.57,0,0,1-1.52-11.48,11.08,11.08,0,0,1,10.9-5.07c2.8.39,5.4,1.78,8.22,2,3.43.31,7-1.09,10.27,0s5.29,4.38,6.25,7.68,1.14,6.79,2.17,10.07a18,18,0,0,1,.93,3.28,6.68,6.68,0,0,1-3.45,6.58S443.77,140.92,437.67,145.72Z" style="fill:#263238"></path><path d="M412.23,131.92a7.13,7.13,0,0,1-.81-6.58,5.71,5.71,0,0,1,5.42-3.54c2.31.16,4.22,1.86,5.69,3.67s2.73,3.84,4.66,5.13c2.12,1.41,4.77,1.76,7,2.93a10.84,10.84,0,0,1,5.69,9.82" style="fill:none;stroke:#fff;stroke-linecap:round;stroke-linejoin:round;opacity:0.2"></path><path d="M426.48,124.05c1,1.81,3,2.78,5,3.34a29.83,29.83,0,0,1,5.9,1.8A8.83,8.83,0,0,1,442,137" style="fill:none;stroke:#fff;stroke-linecap:round;stroke-linejoin:round;opacity:0.2"></path><rect x="209.36" y="149.68" width="210.07" height="120.83" rx="7.4" transform="matrix(0.38, -0.92, 0.92, 0.38, -0.17, 419.93)" style="fill:#fff;stroke:#263238;stroke-miterlimit:10"></rect><path d="M380.16,147.92l-3.57,8.61a5.09,5.09,0,0,1-6.65,2.75l-58.78-24.4a5.09,5.09,0,0,1-3.11-5.28,4.87,4.87,0,0,1,.36-1.37l3.57-8.61a5.09,5.09,0,0,1,6.66-2.75l58.78,24.4A5.08,5.08,0,0,1,380.16,147.92Z" style="fill:#FFC107"></path><path d="M338.25,131.08l-3,7.18-1.33-.55,1.28-3.08-3.71-1.54-1.28,3.08-1.33-.56,3-7.17,1.34.55L332,132l3.71,1.54,1.23-3Z" style="fill:#263238"></path><path d="M343.17,138.81l-4.3-1.78a1.79,1.79,0,0,0,1.23,2,2.13,2.13,0,0,0,1.73,0l.36,1.07a3.33,3.33,0,0,1-4.43-4.09,2.94,2.94,0,0,1,4-1.62,2.89,2.89,0,0,1,1.6,4Zm-3.95-2.64,3.1,1.29a1.61,1.61,0,0,0-1-2A1.64,1.64,0,0,0,339.22,136.17Z" style="fill:#263238"></path><path d="M346.61,134.05l1.28.53-3.16,7.61-1.28-.54Z" style="fill:#263238"></path><path d="M349.57,135.28l1.28.53-3.15,7.61-1.28-.54Z" style="fill:#263238"></path><path d="M350.06,141.19a3.16,3.16,0,1,1,1.75,4A3,3,0,0,1,350.06,141.19Zm4.54,1.88a1.76,1.76,0,1,0-3.25-1.35,1.76,1.76,0,1,0,3.25,1.35Z" style="fill:#263238"></path><path d="M356.06,146a.85.85,0,0,1,1.15-.44.84.84,0,0,1,.49,1.12.89.89,0,0,1-1.64-.68Zm2.74-6.42,1.52.63-2.25,4.69-1-.42Z" style="fill:#263238"></path><rect x="286.5" y="178.45" width="80.9" height="4.91" transform="translate(94.33 -111.51) rotate(22.54)" style="fill:#263238"></rect><rect x="281.66" y="190.11" width="80.9" height="4.91" transform="translate(98.43 -108.77) rotate(22.54)" style="fill:#263238"></rect><rect x="276.82" y="201.76" width="80.9" height="4.91" transform="translate(102.52 -106.02) rotate(22.54)" style="fill:#263238"></rect><rect x="271.98" y="213.42" width="80.9" height="4.91" transform="translate(106.62 -103.28) rotate(22.54)" style="fill:#263238"></rect><rect x="267.15" y="225.08" width="80.9" height="4.91" transform="translate(110.72 -100.53) rotate(22.54)" style="fill:#263238"></rect><rect x="262.31" y="236.73" width="80.9" height="4.91" transform="translate(114.82 -97.79) rotate(22.54)" style="fill:#263238"></rect><path d="M353.17,274.26l-20.41,49.17a7.4,7.4,0,0,1-9.67,4L253,298.32a31.19,31.19,0,0,1,16.93-10.53c10.27-2.28,22,.5,30.77-5.28,7.09-4.65,10.56-14,18.35-17.34,3.93-1.69,8.4-1.58,12.59-.75A56.42,56.42,0,0,1,353.17,274.26Z" style="fill:#FFC107;stroke:#263238;stroke-miterlimit:10"></path><path d="M306.6,112.54c-2.71,2-4.47,5-6,8-3.48,7.1-5.78,14.74-9.31,21.82s-8.58,13.79-15.75,17.13a20.62,20.62,0,0,1-6.34,1.76L296,96.76a7.39,7.39,0,0,1,9.67-4l17.11,7.1C321.41,106,312,108.64,306.6,112.54Z" style="fill:#FFC107;stroke:#263238;stroke-miterlimit:10"></path><path d="M380.16,147.92l-3.57,8.61a5.09,5.09,0,0,1-6.65,2.75l-58.78-24.4a5.09,5.09,0,0,1-3.11-5.28c3.07,0,6.86,2.62,9.38,3.65q6.15,2.52,12.4,4.73c13.09,4.65,27.46,8.32,40.73,4.17a25.65,25.65,0,0,0,4.51-1.86l2.35,1A5.08,5.08,0,0,1,380.16,147.92Z" style="opacity:0.1"></path><path d="M380.16,147.92l-3.57,8.61a5.09,5.09,0,0,1-6.65,2.75l-58.78-24.4a5.09,5.09,0,0,1-3.11-5.28,4.87,4.87,0,0,1,.36-1.37l3.57-8.61a5.09,5.09,0,0,1,6.66-2.75l58.78,24.4A5.08,5.08,0,0,1,380.16,147.92Z" style="fill:none;stroke:#263238;stroke-miterlimit:10"></path><path d="M426.51,235.43S411.86,246.31,407,249.8c0,0-23.56-15.07-31.92-22.9s-12-10.56-12.51-19.43c0,0-12.4,1.32-13.7-1.36a11.56,11.56,0,0,1,5.3-1.51s-5.77-1.66-5.78-3.77l11.56-.64s-13-1.95-12.88-3.15,16-3.06,20.28,0c0,0,5.12,9,7.22,15.13,0,0,15.9,14.27,32.43,17.54l6-6.39Z" style="fill:#fff"></path><path d="M413,223.32l-6,6.39s-21.05-5.5-32.43-17.54c0,0-4.78-12-7.22-15.13s-21.26-1.38-20.28,0,11.58,3.59,11.58,3.59" style="fill:none;stroke:#263238;stroke-linecap:round;stroke-linejoin:round"></path><path d="M426.51,234.85s-9.92,9.62-19.47,15c0,0-24.37-13.67-36.42-27.57l-1.09-.75a15.94,15.94,0,0,1-6.92-14h0a19.06,19.06,0,0,1-13.14-.75c-.27-.12-.58-.31-.56-.61a.69.69,0,0,1,.36-.48c1.35-.87,3.33-1,4.94-1,3-.14,5.79-1,8.77-.45" style="fill:none;stroke:#263238;stroke-linecap:round;stroke-linejoin:round"></path><path d="M363.93,200.73l-4-.08-10.79-.2c-.3,0-.7.08-.71.38a.55.55,0,0,0,.17.36,11,11,0,0,0,3.12,2.32,10.29,10.29,0,0,0,2,1" style="fill:none;stroke:#263238;stroke-linecap:round;stroke-linejoin:round"></path><path d="M397.4,252.76s-2.65,15.95,7.94,18.72" style="fill:none;stroke:#fff;stroke-linecap:round;stroke-linejoin:round"></path><path d="M374.66,307.23s9.83-.66,17.53,3.22" style="fill:none;stroke:#fff;stroke-linecap:round;stroke-linejoin:round"></path><path d="M362.41,287.16a59.75,59.75,0,0,0-5.57-3.68" style="fill:none;stroke:#fff;stroke-linecap:round;stroke-linejoin:round"></path><path d="M400,161.4a38,38,0,0,1,10.93.52" style="fill:none;stroke:#263238;stroke-linecap:round;stroke-linejoin:round"></path><path d="M434.36,169.47s11.31,14.82,14.14,26.13c0,0-4.71,27-14.14,41.49,0,0-11.71-.31-23-16.66a149.15,149.15,0,0,1,15.78-20.74" style="fill:none;stroke:#263238;stroke-linecap:round;stroke-linejoin:round"></path><line x1="402.67" y1="252.78" x2="406.09" y2="249.8" style="fill:none;stroke:#263238;stroke-linecap:round;stroke-linejoin:round"></line><path d="M419.66,169.66a6.62,6.62,0,0,0,6.85,2.11c4.16-1.28,7.84-14.77,7.84-14.77S427.35,167.15,419.66,169.66Z" style="fill:#263238"></path></g><g id="freepik--Device--inject-127"><path d="M320,147.4V396.06a10.12,10.12,0,0,1-10.12,10.12H186a10.1,10.1,0,0,1-10.12-10.12V147.4A10.12,10.12,0,0,1,186,137.28h124A10.12,10.12,0,0,1,320,147.4Z" style="fill:#263238"></path><path d="M324.17,147.4V396.06a10.12,10.12,0,0,1-10.12,10.12h-124A10.1,10.1,0,0,1,180,396.06V147.4a10.12,10.12,0,0,1,10.12-10.12h124A10.12,10.12,0,0,1,324.17,147.4Z" style="fill:#263238"></path><line x1="231.84" y1="148.39" x2="265.34" y2="148.39" style="fill:none;stroke:#fff;stroke-linecap:round;stroke-linejoin:round;stroke-width:2px"></line><path d="M320,147.4V396.06a10.12,10.12,0,0,1-10.12,10.12H186a10.17,10.17,0,0,1-6.13-2.06L288,137.28H309.9A10.12,10.12,0,0,1,320,147.4Z" style="fill:#fff;opacity:0.1"></path><path d="M320,147.4V396.06a10.12,10.12,0,0,1-10.12,10.12H186a10.1,10.1,0,0,1-10.12-10.12V147.4A10.12,10.12,0,0,1,186,137.28h124A10.12,10.12,0,0,1,320,147.4Z" style="fill:none;stroke:#263238;stroke-miterlimit:10"></path><rect x="184.14" y="154.8" width="127.77" height="228.65" rx="12.81" style="fill:#fff;stroke:#263238;stroke-miterlimit:10"></rect><path d="M253.59,395.51a6.06,6.06,0,1,1-6.05-6.05A6,6,0,0,1,253.59,395.51Z" style="fill:#263238"></path><polygon points="289.33 400.98 289.33 390.04 300.27 395.51 289.33 400.98" style="fill:#263238"></polygon><rect x="196.43" y="390.65" width="9.93" height="9.93" style="fill:#263238"></rect><path d="M284.41,215.17l-1.56-3.44-4.17.73-.29,3.79a16.24,16.24,0,0,0-3.59,1.9l-3.31-2-2.93,3,2,3.33a16.6,16.6,0,0,0-2.59,6.35l-3.8.92V234l3.83,1a16,16,0,0,0,1.19,3.76l-2.58,3,2.39,3.43,3.68-1.41a17.63,17.63,0,0,0,3.12,2.4l-.4,4,3.93,1.43,2.22-3.27a16,16,0,0,0,2.76.24,11.53,11.53,0,0,0,1.18,0l1.92,3.43,4.05-1.09-.06-3.88a16.65,16.65,0,0,0,3.4-2.14l3.49,1.68L301,243.2l-2.23-3.11a16,16,0,0,0,1.58-3.75l3.76-.62.36-4.17-3.54-1.27a16.24,16.24,0,0,0-.93-4l2.68-2.63-2.1-3.63-3.61,1a16.55,16.55,0,0,0-3-2.76l.68-3.68-3.8-1.77-2.38,2.89A16.7,16.7,0,0,0,284.41,215.17Zm-.07,6.2a10.46,10.46,0,1,1-10.46,10.46,10.46,10.46,0,0,1,10.46-10.46Z" style="fill:#263238"></path><path d="M286.21,212.93l-1.57-3.45-4.16.73-.29,3.8a16.94,16.94,0,0,0-3.6,1.89l-3.3-2-2.94,3,2,3.32a16.68,16.68,0,0,0-2.6,6.35l-3.79.92v4.19l3.82,1a16.72,16.72,0,0,0,1.2,3.77l-2.59,3,2.4,3.43,3.68-1.4a17.38,17.38,0,0,0,3.12,2.4l-.4,3.94,3.93,1.44,2.22-3.27a15.91,15.91,0,0,0,2.76.24,9.32,9.32,0,0,0,1.18-.05l1.91,3.44,4.05-1.09-.05-3.89a17.16,17.16,0,0,0,3.4-2.13l3.49,1.67,2.69-3.2-2.23-3.11a16.48,16.48,0,0,0,1.58-3.75l3.76-.63.36-4.17L302.67,228a16.87,16.87,0,0,0-.92-4l2.68-2.63-2.1-3.63-3.61,1a16,16,0,0,0-3-2.76l.68-3.69-3.79-1.77-2.38,2.9A16.77,16.77,0,0,0,286.21,212.93Zm-.08,6.2a10.46,10.46,0,1,1-10.46,10.46,10.46,10.46,0,0,1,10.46-10.46Z" style="fill:#FFC107;stroke:#263238;stroke-miterlimit:10"></path><path d="M223.88,179.57l-2.51-5.51-6.66,1.16-.47,6.07a26.38,26.38,0,0,0-5.75,3l-5.29-3.13L198.5,186l3.17,5.32a26.62,26.62,0,0,0-4.15,10.16l-6.07,1.48v6.7l6.11,1.55a26.15,26.15,0,0,0,1.92,6L195.34,222l3.83,5.5,5.89-2.25a27.46,27.46,0,0,0,5,3.84l-.65,6.31,6.29,2.3,3.55-5.23a26.2,26.2,0,0,0,4.42.38,16.88,16.88,0,0,0,1.89-.07l3.06,5.49,6.49-1.74-.09-6.21a27.2,27.2,0,0,0,5.44-3.42l5.58,2.68,4.3-5.13-3.56-5a26,26,0,0,0,2.53-6l6-1,.58-6.67-5.67-2a26.7,26.7,0,0,0-1.48-6.43l4.29-4.21-3.36-5.81-5.78,1.59a26.5,26.5,0,0,0-4.86-4.42l1.09-5.89-6.07-2.83-3.82,4.63A26.21,26.21,0,0,0,223.88,179.57ZM223.76,195a11.18,11.18,0,1,1-11.18,11.18A11.18,11.18,0,0,1,223.76,195Z" style="fill:#263238"></path><path d="M274.56,321.58l-1.87-4.13-5,.88-.36,4.53a19.79,19.79,0,0,0-4.29,2.27l-4-2.33-3.51,3.55,2.36,4a19.89,19.89,0,0,0-3.1,7.61l-4.54,1.1v5l4.57,1.16a19.41,19.41,0,0,0,1.43,4.51l-3.09,3.58,2.86,4.11,4.41-1.69a20.86,20.86,0,0,0,3.73,2.88l-.48,4.71,4.7,1.72,2.66-3.91a20.34,20.34,0,0,0,3.3.29,11.16,11.16,0,0,0,1.42-.06l2.29,4.11,4.84-1.3-.06-4.65a19.71,19.71,0,0,0,4.06-2.56l4.18,2,3.22-3.83-2.67-3.73a19.22,19.22,0,0,0,1.9-4.48l4.49-.75.43-5-4.24-1.51a20.35,20.35,0,0,0-1.1-4.81l3.2-3.15-2.51-4.34-4.32,1.19a19.6,19.6,0,0,0-3.63-3.3l.81-4.41-4.54-2.12-2.85,3.46A19.65,19.65,0,0,0,274.56,321.58Zm-.09,11.57a8.36,8.36,0,1,1-8.36,8.36,8.36,8.36,0,0,1,8.36-8.36Z" style="fill:#263238"></path><path d="M276.33,318.59l-1.88-4.13-5,.87-.35,4.54a20.1,20.1,0,0,0-4.3,2.27l-3.95-2.33-3.52,3.55,2.37,4a20.07,20.07,0,0,0-3.11,7.61l-4.54,1.1v5l4.58,1.16a19.41,19.41,0,0,0,1.43,4.51L255,350.3l2.87,4.11,4.4-1.69A21.29,21.29,0,0,0,266,355.6l-.48,4.71,4.7,1.72,2.66-3.91a20.24,20.24,0,0,0,3.3.29,10.93,10.93,0,0,0,1.41-.06l2.29,4.11,4.85-1.3-.06-4.65a20,20,0,0,0,4.06-2.56l4.18,2,3.21-3.83-2.66-3.73a19.37,19.37,0,0,0,1.89-4.48l4.5-.75.43-5L296,336.67a19.89,19.89,0,0,0-1.11-4.81l3.21-3.15-2.51-4.34-4.32,1.19a19.74,19.74,0,0,0-3.64-3.31l.82-4.4-4.54-2.12-2.85,3.46A19.65,19.65,0,0,0,276.33,318.59Zm-.09,11.57a8.36,8.36,0,1,1-8.36,8.36,8.36,8.36,0,0,1,8.36-8.36Z" style="fill:#FFC107;stroke:#263238;stroke-miterlimit:10"></path><path d="M310,286.2v-6.26a10.46,10.46,0,0,1-8.53-12.08c.76-4.36,4.17-8.83,8.53-9.58V249.6l-3.85.68-.3,3.78a16.94,16.94,0,0,0-3.59,1.91l-3.3-2L296,257l2,3.33a16.55,16.55,0,0,0-2.59,6.36l-3.8.92v4.19l3.82.92a16.56,16.56,0,0,0,1.2,3.77l-2.6,3,2.41,3.42,3.68-1.41a16.56,16.56,0,0,0,3.12,2.41l-.4,3.95,3.93,1.43,2.22-3.26A4.84,4.84,0,0,0,310,286.2Z" style="fill:#263238"></path><path d="M221.07,257.68l-3.75-4.54-6,2.78,1.07,5.78a26.19,26.19,0,0,0-4.77,4.34L202,264.48l-3.3,5.7,4.21,4.13a26.28,26.28,0,0,0-1.45,6.31l-5.57,2,.57,6.55,5.9,1a25.38,25.38,0,0,0,2.48,5.88l-3.5,4.89,4.23,5,5.48-2.63a26.16,26.16,0,0,0,5.33,3.36l-.08,6.1,6.36,1.7,3-5.39a16.35,16.35,0,0,0,1.86.07,25.15,25.15,0,0,0,4.33-.37l3.49,5.13,6.17-2.25-.63-6.19a27.6,27.6,0,0,0,4.9-3.78l5.78,2.22,3.76-5.4-4.06-4.7a26.08,26.08,0,0,0,1.88-5.91l6-1.52v-6.58l-6-1.44a26.07,26.07,0,0,0-4.08-10l3.11-5.22-4.61-4.66-5.19,3.07a26.24,26.24,0,0,0-5.64-3l-.46-6-6.54-1.14-2.46,5.41A26.28,26.28,0,0,0,221.07,257.68Zm6.36,8.94A16.43,16.43,0,1,1,211,283.05a16.42,16.42,0,0,1,16.43-16.43Z" style="fill:#263238"></path><path d="M217.83,255.87l-3.75-4.54-6,2.78,1.07,5.78a25.54,25.54,0,0,0-4.77,4.34l-5.67-1.56-3.3,5.69,4.21,4.14a26.2,26.2,0,0,0-1.45,6.3l-5.56,2,.56,6.55,5.9,1a25.34,25.34,0,0,0,2.49,5.88l-3.5,4.89,4.22,5,5.48-2.63a26.39,26.39,0,0,0,5.33,3.35l-.08,6.1,6.36,1.71,3-5.39a16.17,16.17,0,0,0,1.85.07,25.16,25.16,0,0,0,4.33-.38l3.49,5.14,6.17-2.26-.63-6.19a27.09,27.09,0,0,0,4.9-3.77l5.78,2.21,3.76-5.39L248,292a26.08,26.08,0,0,0,1.88-5.91l6-1.52V278l-6-1.45a26,26,0,0,0-4.08-10l3.11-5.22-4.61-4.66-5.19,3.07a25.16,25.16,0,0,0-5.64-3l-.46-6-6.54-1.14-2.46,5.41A25.78,25.78,0,0,0,217.83,255.87Zm6.36,8.94a16.43,16.43,0,1,1-16.42,16.42,16.43,16.43,0,0,1,16.42-16.42Z" style="fill:#FFC107;stroke:#263238;stroke-miterlimit:10"></path><path d="M185.8,367.27l3.49,5.11,6.17-2.24-.64-6.2a26.05,26.05,0,0,0,4.91-3.77l5.78,2.21,3.77-5.38-4.07-4.7a25.57,25.57,0,0,0,1.87-5.93l6-1.44v-6.58l-6-1.45a26,26,0,0,0-4.08-10l3.08-5.24-4.66-4.64-5.19,3.08a25.77,25.77,0,0,0-5.63-3l-.47-5.95-6-1.07v15.3a16.42,16.42,0,0,1,0,32.35v9.83A7.07,7.07,0,0,0,185.8,367.27Z" style="fill:#263238"></path><path d="M185.8,363.38l3.49,5.12,6.17-2.25-.64-6.2a26.05,26.05,0,0,0,4.91-3.77l5.78,2.21,3.77-5.38-4.07-4.7a25.57,25.57,0,0,0,1.87-5.93l6-1.44v-6.58l-6-1.45a26,26,0,0,0-4.08-10l3.08-5.24-4.66-4.64-5.19,3.08a26.21,26.21,0,0,0-5.63-3l-.47-5.95-6-1.07v15.3a16.42,16.42,0,0,1,0,32.35v9.83A7.07,7.07,0,0,0,185.8,363.38Z" style="fill:#FFC107;stroke:#263238;stroke-miterlimit:10"></path><path d="M222.08,177.13l-2.5-5.51-6.66,1.16-.47,6.08a26.32,26.32,0,0,0-5.75,3l-5.29-3.12-4.7,4.74,3.17,5.32A26.75,26.75,0,0,0,195.72,199l-6.07,1.47v6.71l6.11,1.54a26.48,26.48,0,0,0,1.92,6l-4.14,4.79,3.83,5.5,5.9-2.26a27.44,27.44,0,0,0,5,3.85l-.65,6.3,6.29,2.3,3.56-5.23a26.12,26.12,0,0,0,4.42.39,14.7,14.7,0,0,0,1.88-.08l3.07,5.5,6.48-1.74-.09-6.22a26.49,26.49,0,0,0,5.44-3.42l5.58,2.68,4.31-5.12L245,217a26.19,26.19,0,0,0,2.54-6l6-1,.57-6.68-5.67-2a26.71,26.71,0,0,0-1.47-6.42l4.28-4.22-3.36-5.8-5.77,1.59a26.47,26.47,0,0,0-4.86-4.42l1.09-5.9-6.08-2.83-3.81,4.63A26.29,26.29,0,0,0,222.08,177.13ZM222,192.61a11.18,11.18,0,1,1-11.18,11.18A11.17,11.17,0,0,1,222,192.61Z" style="fill:#FFC107;stroke:#263238;stroke-miterlimit:10"></path><path d="M311.91,284.6v-6.26a10.45,10.45,0,0,1,0-20.6V248l-3.85.68-.3,3.79a16.46,16.46,0,0,0-3.59,1.9l-3.3-2-3,3,2,3.33a16.51,16.51,0,0,0-2.59,6.35l-3.8.93v4.18l3.82.93a16.72,16.72,0,0,0,1.2,3.77l-2.6,3,2.41,3.43,3.68-1.41a16.51,16.51,0,0,0,3.12,2.4l-.4,4,3.93,1.43,2.22-3.26A3.9,3.9,0,0,0,311.91,284.6Z" style="fill:#FFC107;stroke:#263238;stroke-miterlimit:10"></path><circle cx="221.88" cy="203.79" r="16.22" style="fill:none;stroke:#fff;stroke-miterlimit:10"></circle><circle cx="223.76" cy="281.23" r="21.21" style="fill:none;stroke:#fff;stroke-miterlimit:10"></circle><circle cx="276.17" cy="338.46" r="12.81" style="fill:none;stroke:#263238;stroke-miterlimit:10"></circle></g><g id="freepik--character-1--inject-127"><path d="M92.67,167c3.2,2.16,6.79,3.84,9.47,6.62a19.18,19.18,0,0,1,5,12.34,32.92,32.92,0,0,1-2.46,13.27,16.72,16.72,0,0,1-4.16,6.78,14.38,14.38,0,0,1-6.82,3.06,30.38,30.38,0,0,1-14.6-.88,25.25,25.25,0,0,1-11.16-6.42A29.13,29.13,0,0,1,62.48,193a51.69,51.69,0,0,1-4.09-15.47,91.24,91.24,0,0,1,.29-15.5l1-12.77c.18-2.32-.09-8.33,2.84-9.29,2.42-.79,6.17,3.23,7.8,4.69,5.09,4.58,9.25,10.07,14,15A51.85,51.85,0,0,0,92.67,167Z" style="fill:#263238"></path><path d="M78.85,186s11.91.88,17.94-2.87,19.7,11.53,19.7,11.53l-4.71,79.94s-12,2.54-19.37-1-11-3.35-12.81-7.57-1.8-11.24-9.44-17.34-7.65-9.28-10-13.13-10-9.22-10.54-13.48.27-15,.27-15l14.59-11.37S68.05,183.13,78.85,186Z" style="fill:#FFC107"></path><path d="M88.17,197.37a64.73,64.73,0,0,0,3.29,15.43,39.13,39.13,0,0,0-18.11,5A70.3,70.3,0,0,0,89,234.69a10.22,10.22,0,0,1,5.67-3.63c.87-.21,1.76-.29,2.6-.58a9.69,9.69,0,0,0,2.24-1.15,29.41,29.41,0,0,0,13.13-23.55,37.15,37.15,0,0,0-3.6-16c-1.86-4.09-4.69-8.26-9-9.35a15,15,0,0,0-7,.31c-1.78.4-4.4.74-6,1.74-2.42,1.55-1.74,1-.94,3.7A53.74,53.74,0,0,1,88.17,197.37Z" style="opacity:0.1"></path><path d="M71,147.48s6.3,10.89,8.14,16.2a29.93,29.93,0,0,1,1,13.39A25.07,25.07,0,0,0,83,185.31l3.86.68s5.35,11.23,5.67,27.79c0,0-9.12-11.54-15.44-14.56s-5-2.69-5-2.69-5.16-9.1-7.86-11.88-14.37,6.29-14.37,6.29L37.64,171.55l6-11.3,8.14-6.31,7.95-6.46H71Z" style="fill:#fff"></path><path d="M119.38,421.36A25.72,25.72,0,0,0,135.79,431c1.51.22,3.42.1,4.05-1.29a3.42,3.42,0,0,0,.11-2c-1.46-8.66-9.74-14.3-14.18-21.87-1.26-2.14-2.92-7.67-5.66-7.28-1.24.18-4.68,4-5.31,5.16C112.14,408.92,116.24,417.29,119.38,421.36Z" style="fill:#fff;stroke:#263238;stroke-miterlimit:10"></path><path d="M114.8,403.75s.67,9.5,6.71,15,7.67,8.66,18.44,8.95" style="fill:#fff;stroke:#263238;stroke-miterlimit:10"></path><path d="M147,386.39s-1.89,10.78,2.21,16.21,8.2,4.27,14.82,5.48c4.4.81,8.07,3.95,12.74,2.79,4.2-1,1.58-4.08-.41-5.75-4.41-3.68-9.62-6.32-14.06-10-7.73-6.36-6.37-12-6.37-12Z" style="fill:#fff;stroke:#263238;stroke-miterlimit:10"></path><path d="M147.75,399.89c1.77,1.15,2.75,2.63,4.6,3.66,2.66,1.48,5.88,1.26,8.9,1.56a25.17,25.17,0,0,1,5.23,1.07A30.68,30.68,0,0,0,172,407.8a9.75,9.75,0,0,0,5.47-.93" style="fill:none;stroke:#263238;stroke-miterlimit:10"></path><path d="M93.57,273.62s-7.85,26.3,0,53.76.4,44.35,17.66,78.49c0,0,8.08,6.67,13.66-3.14,0,0-1.59-38.07-4.29-47.09s8.89-28.73,5.06-47.52a146.26,146.26,0,0,0-12.07-34.5S100.64,276.37,93.57,273.62Z" style="fill:#263238"></path><path d="M132.21,337.93s5.75,38.2,12.93,52.57c0,0,8.33,6,13.5-1.73,0,0,.58-63.48-4.6-68.36S132.21,337.93,132.21,337.93Z" style="fill:#263238"></path><path d="M222.17,88.53l34,224.73a8.62,8.62,0,0,1-7.24,9.81l-122,18.44a8.59,8.59,0,0,1-9.81-7.23l-34-224.72a8.63,8.63,0,0,1,7.23-9.82l122-18.44a8.62,8.62,0,0,1,8.7,4.12A8.44,8.44,0,0,1,222.17,88.53Z" style="fill:#fff"></path><rect x="195.89" y="105.59" width="16.16" height="1.39" transform="translate(-13.59 31.68) rotate(-8.6)" style="fill:#263238"></rect><rect x="195.3" y="101.64" width="16.16" height="1.39" transform="translate(-13.01 31.55) rotate(-8.6)" style="fill:#263238"></rect><rect x="194.7" y="97.69" width="16.16" height="1.39" transform="matrix(0.99, -0.15, 0.15, 0.99, -12.43, 31.41)" style="fill:#263238"></rect><path d="M218.87,250.82l1.62,10.72a5.93,5.93,0,0,1-5,6.75l-73.25,11.07a5.94,5.94,0,0,1-6.75-5l-1.62-10.73a5.93,5.93,0,0,1,5-6.75l73.24-11.07A5.93,5.93,0,0,1,218.87,250.82Z" style="fill:#FFC107"></path><path d="M165,261.27l-1.13,6.62-1.25.19-2.26-4.43-.88,4.91-1.25.19-3-6,1.21-.19,2.29,4.56.91-5,1.08-.17L163,266.5l.89-5.06Z" style="fill:#263238"></path><path d="M170.66,264.78l-3.77.57a1.48,1.48,0,0,0,1.73.92,1.77,1.77,0,0,0,1.23-.73l.71.61a2.74,2.74,0,0,1-4.85-1,2.42,2.42,0,0,1,2.11-2.84,2.38,2.38,0,0,1,2.81,2.12C170.64,264.53,170.65,264.67,170.66,264.78Zm-3.9-.18,2.73-.41a1.32,1.32,0,0,0-1.53-1A1.36,1.36,0,0,0,166.76,264.6Z" style="fill:#263238"></path><path d="M171.06,260l1.13-.17,1,6.69-1.13.17Z" style="fill:#263238"></path><path d="M173.91,263.92a2.47,2.47,0,0,1,2.24-2.86,2.2,2.2,0,0,1,2.22.81l-.79.64a1.38,1.38,0,0,0-1.3-.49,1.52,1.52,0,0,0,.46,3,1.36,1.36,0,0,0,1.09-.85l.94.37a2.2,2.2,0,0,1-1.88,1.44A2.47,2.47,0,0,1,173.91,263.92Z" style="fill:#263238"></path><path d="M179.08,263.14a2.59,2.59,0,1,1,2.93,2.08A2.45,2.45,0,0,1,179.08,263.14Zm4-.61a1.45,1.45,0,1,0-1.21,1.72A1.41,1.41,0,0,0,183.07,262.53Z" style="fill:#263238"></path><path d="M193.28,260.63l.41,2.76-1.12.17-.4-2.61c-.13-.86-.59-1.21-1.27-1.11s-1.18.67-1,1.63l.37,2.44-1.12.17-.4-2.61c-.13-.86-.59-1.21-1.27-1.11s-1.18.68-1,1.63l.36,2.44-1.12.17-.73-4.81,1.07-.16.1.61a2,2,0,0,1,1.47-.9,1.81,1.81,0,0,1,1.74.56,2.3,2.3,0,0,1,1.68-1.08A1.88,1.88,0,0,1,193.28,260.63Z" style="fill:#263238"></path><path d="M199.38,260.44l-3.78.57a1.47,1.47,0,0,0,1.73.91,1.72,1.72,0,0,0,1.23-.72l.71.61a2.74,2.74,0,0,1-4.85-1,2.42,2.42,0,0,1,2.12-2.84,2.37,2.37,0,0,1,2.8,2.12A3.18,3.18,0,0,1,199.38,260.44Zm-3.9-.18,2.73-.41a1.4,1.4,0,0,0-2.73.41Z" style="fill:#263238"></path><rect x="124.01" y="291.81" width="115.95" height="2.07" transform="matrix(0.99, -0.15, 0.15, 0.99, -41.73, 30.49)" style="fill:#263238"></rect><rect x="124.85" y="297.39" width="115.95" height="2.07" transform="translate(-42.55 30.68) rotate(-8.6)" style="fill:#263238"></rect><rect x="125.7" y="302.96" width="115.95" height="2.07" transform="translate(-43.37 30.87) rotate(-8.6)" style="fill:#263238"></rect><rect x="126.54" y="308.54" width="115.95" height="2.07" transform="matrix(0.99, -0.15, 0.15, 0.99, -44.2, 31.06)" style="fill:#263238"></rect><path d="M218.87,250.82l1.62,10.72a5.93,5.93,0,0,1-5,6.75l-73.25,11.07a5.94,5.94,0,0,1-6.75-5v-.12c13.48.15,60.54-1.29,75.67-28.29l.94-.14A5.93,5.93,0,0,1,218.87,250.82Z" style="opacity:0.1"></path><path d="M218.87,250.82l1.62,10.72a5.93,5.93,0,0,1-5,6.75l-73.25,11.07a5.94,5.94,0,0,1-6.75-5l-1.62-10.73a5.93,5.93,0,0,1,5-6.75l73.24-11.07A5.93,5.93,0,0,1,218.87,250.82Z" style="fill:none;stroke:#263238;stroke-linecap:round;stroke-linejoin:round"></path><path d="M166.11,234.34a1.78,1.78,0,1,1-2-1.49A1.77,1.77,0,0,1,166.11,234.34Z" style="fill:#263238"></path><path d="M174.5,233.07a1.77,1.77,0,1,1-2-1.49A1.77,1.77,0,0,1,174.5,233.07Z" style="fill:#263238"></path><path d="M182.9,231.8a1.78,1.78,0,1,1-2-1.49A1.78,1.78,0,0,1,182.9,231.8Z" style="fill:#263238"></path><rect x="96.5" y="108.99" width="63.61" height="8.68" rx="3.74" transform="translate(-15.5 20.45) rotate(-8.6)" style="fill:#fff;stroke:#263238;stroke-miterlimit:10"></rect><line x1="102.75" y1="119.48" x2="102.1" y2="115.2" style="fill:none;stroke:#263238;stroke-linecap:round;stroke-linejoin:round"></line><rect x="106.52" y="128.33" width="115.76" height="98.7" transform="translate(-24.71 26.57) rotate(-8.6)" style="fill:#FFC107"></rect><rect x="106.52" y="128.33" width="115.76" height="98.7" transform="translate(-24.71 26.57) rotate(-8.6)" style="fill:#fff;opacity:0.5"></rect><rect x="106.52" y="128.33" width="115.76" height="98.7" transform="translate(-24.71 26.57) rotate(-8.6)" style="fill:none;stroke:#263238;stroke-miterlimit:10"></rect><circle cx="196.87" cy="145.59" r="11.18" transform="translate(-36.73 218.98) rotate(-53.93)" style="fill:#FFC107;stroke:#263238;stroke-miterlimit:10"></circle><path d="M220.82,163.68,229,217.83l-114.46,17.3-5.12-33.86c3.5-8,8.71-17.21,14.79-19.9,11.29-5,22.9,28.27,44.31,22.84S193.94,163.92,220.82,163.68Z" style="fill:#FFC107"></path><path d="M220.82,163.68,229,217.83l-114.46,17.3-5.12-33.86c3.5-8,8.71-17.21,14.79-19.9,11.29-5,22.9,28.27,44.31,22.84S193.94,163.92,220.82,163.68Z" style="opacity:0.1"></path><path d="M220.82,163.68,229,217.83l-114.46,17.3-5.12-33.86c3.5-8,8.71-17.21,14.79-19.9,11.29-5,22.9,28.27,44.31,22.84S193.94,163.92,220.82,163.68Z" style="fill:none;stroke:#263238;stroke-miterlimit:10"></path><path d="M222.17,88.53l34,224.73a8.62,8.62,0,0,1-7.24,9.81l-122,18.44A8.6,8.6,0,0,1,120.6,340c27.19-24.11,112.9-112.13,100.46-254.6A8.44,8.44,0,0,1,222.17,88.53Z" style="opacity:0.1"></path><path d="M222.17,88.53l34,224.73a8.62,8.62,0,0,1-7.24,9.81l-122,18.44a8.59,8.59,0,0,1-9.81-7.23l-34-224.72a8.63,8.63,0,0,1,7.23-9.82l122-18.44a8.62,8.62,0,0,1,8.7,4.12A8.44,8.44,0,0,1,222.17,88.53Z" style="fill:none;stroke:#263238;stroke-miterlimit:10"></path><path d="M72.28,149.32s6.61,13,8.26,17.78,0,12.61-4.18,16.15-8.81,3.32-14,.76A79.33,79.33,0,0,1,52,177.55a6,6,0,0,0-1.08.09c-1,0-5-1.57-6.4-4.09-3.37-6.27,4.08-4,5.58-3" style="fill:none;stroke:#263238;stroke-linecap:round;stroke-linejoin:round"></path><path d="M71,162.66a8.72,8.72,0,0,0,3.36,3.92A3.88,3.88,0,0,1,76,167.93a2.17,2.17,0,0,1-.29,2.13A6.12,6.12,0,0,1,74,171.55" style="fill:none;stroke:#263238;stroke-linecap:round;stroke-linejoin:round"></path><path d="M68.21,176.55a6,6,0,0,0,4.72,0" style="fill:none;stroke:#263238;stroke-linecap:round;stroke-linejoin:round"></path><path d="M66.71,166.22c.41.87.44,1.72.07,1.9s-1-.38-1.44-1.26-.44-1.72-.06-1.9S66.3,165.34,66.71,166.22Z" style="fill:#263238"></path><path d="M74.33,161.09c.41.87.44,1.73.06,1.9s-1-.38-1.43-1.25-.44-1.73-.06-1.91S73.92,160.22,74.33,161.09Z" style="fill:#263238"></path><path d="M64.47,161.19s-3.15,0-3.91,3.83" style="fill:none;stroke:#263238;stroke-linecap:round;stroke-linejoin:round"></path><path d="M70.1,157.8s1.13-2.53,3.24-1" style="fill:none;stroke:#263238;stroke-linecap:round;stroke-linejoin:round"></path><path d="M49.52,170.24c.18.13,9.62-4.88,10.73-19.09,0,0,5.41,4.14,14.24.69,0,0-7.26-15-17.89-12.89S36.71,148,36.35,160.49C36.1,169.34,38,178.15,38,187a43.54,43.54,0,0,1-1.6,13.34c-2.25,7.21-7.33,12-5.14,20.19,1.61,6,7,13,13.4,12.16,2.72-.36,9-1.94,10-3.2a18.68,18.68,0,0,1-3.23-7.41C51,214.78,52.65,212,52.65,212l16.92-19.55-4.71-7.38L52,177.55s-5.34.62-8.27-6C43.16,167.62,49.52,170.24,49.52,170.24Z" style="fill:#263238"></path><path d="M89.39,235.57s-12.89-9.86-18.58-20.79" style="fill:none;stroke:#263238;stroke-linecap:round;stroke-linejoin:round"></path><path d="M96.79,231.49c-.34-.92-1.68-1-2.53-.52a22.52,22.52,0,0,0-2.19,2,11.22,11.22,0,0,0-1.74,1.32,4.49,4.49,0,0,0-.83,2.23,32.66,32.66,0,0,0-.14,10.16" style="fill:none;stroke:#263238;stroke-linecap:round;stroke-linejoin:round"></path><path d="M85.45,246.65a28,28,0,0,1,1.91-7.6" style="fill:none;stroke:#263238;stroke-linecap:round;stroke-linejoin:round"></path><path d="M102.1,249.56a2.63,2.63,0,0,1,0,3.83,11,11,0,0,1-1.38.87c-1.42.92-2.19,2.57-3.48,3.66-1.78,1.5-4.75,1.62-6.32-.1-1.31-1.46-1.64-4.54-1.57-6.5" style="fill:none;stroke:#263238;stroke-linecap:round;stroke-linejoin:round"></path><path d="M90.2,257.9c-8.39,1-35.5-28.4-35.5-28.4-4.05-5-4.13-12.59-1.11-18.26,2.89-5.43,8.59-8.83,11.93-14" style="fill:none;stroke:#263238;stroke-linecap:round;stroke-linejoin:round"></path><path d="M65.59,185.68a25.77,25.77,0,0,1,5.22,9.8" style="fill:none;stroke:#263238;stroke-linecap:round;stroke-linejoin:round"></path><path d="M80.21,177.07a14.37,14.37,0,0,0,4.69,10.5" style="fill:none;stroke:#263238;stroke-linecap:round;stroke-linejoin:round"></path><path d="M67.19,194.26c-2,2.07-1.15,6.39,1.36,7.8s6,.17,9,.89a2.31,2.31,0,0,1,1.11.54,3,3,0,0,1,.57,2.09c0,1.57.31,3.34,1.6,4.24a7.66,7.66,0,0,0,2.73.86c5.11,1.19,8.55,4.32,11.15,8.88" style="fill:none;stroke:#263238;stroke-linecap:round;stroke-linejoin:round"></path><path d="M70.16,195.74a45.47,45.47,0,0,1,25.57,26.34" style="fill:none;stroke:#263238;stroke-linecap:round;stroke-linejoin:round"></path><path d="M59.6,234.77c3,9.72,13.93,14.46,17.32,24,.87,2.44,1.22,5.11,2.68,7.24,1.87,2.72,5.15,4,8.24,5.19,2.1.8,4.54,2.57,6.64,3.36" style="fill:none;stroke:#263238;stroke-linecap:round;stroke-linejoin:round"></path><path d="M104.3,275.07c-2.64-.33-4.69-2.41-6.33-4.5s-3.19-4.4-5.56-5.6" style="fill:none;stroke:#263238;stroke-linecap:round;stroke-linejoin:round"></path><path d="M83.15,185.59a18.75,18.75,0,0,0,10.48-.94" style="fill:none;stroke:#263238;stroke-linecap:round;stroke-linejoin:round"></path><path d="M87.21,186c2.88,8.77,5.88,19.45,5.22,28.79" style="fill:none;stroke:#263238;stroke-linecap:round;stroke-linejoin:round"></path><path d="M94.72,233.19s.4,12,5.65,17.11c0,0,13-12.83,18.48-20.77s11.69-17.35,13.49-23.93-2.79-8.36-2.79-8.36-1.38-3.74-2.79-3.32-3.75,7.29-3.75,7.29-1.46-3.54-4.37,1.62-4.3,7.53-2.3,12.22l-11.42,11.14Z" style="fill:#fff"></path><path d="M121.39,205.53s2.47-6.82,0-5.35-4.79,5.5-5.66,7.82.61,7.05.61,7.05c-6.17,8.23-15.84,14.59-21.62,18.14" style="fill:none;stroke:#263238;stroke-linecap:round;stroke-linejoin:round"></path><path d="M121.7,204.6s3.47-9.52,5.06-10.68,1.6,2.61,1.6,2.61,2.47,1.19,2.9,2.63,1.6,2.51,1.31,5.45-7.68,16-7.68,16c-2.42,5.13-14.8,20.37-24.52,29.67" style="fill:none;stroke:#263238;stroke-linecap:round;stroke-linejoin:round"></path><path d="M128.36,196.53a46.56,46.56,0,0,1-1.06,5.63" style="fill:none;stroke:#263238;stroke-linecap:round;stroke-linejoin:round"></path><path d="M95,232.87a1.82,1.82,0,0,0-.55,1.65,27.56,27.56,0,0,0,6.75,17.25" style="fill:none;stroke:#263238;stroke-linecap:round;stroke-linejoin:round"></path><path d="M42.37,173.19A59.84,59.84,0,0,1,44.14,195c-.58,5.62-2,11.18-1.78,16.83s2.31,11.65,7.1,14.65" style="fill:none;stroke:#fff;stroke-linecap:round;stroke-linejoin:round;opacity:0.2"></path><path d="M46.88,165.08A113.6,113.6,0,0,0,54.78,148" style="fill:none;stroke:#fff;stroke-linecap:round;stroke-linejoin:round;opacity:0.2"></path><path d="M43.32,164.12c2.45-5.85,1.93-12.54,3.92-18.56" style="fill:none;stroke:#fff;stroke-linecap:round;stroke-linejoin:round;opacity:0.2"></path><path d="M67.57,185.76s6.69,3.15,10.05,1.81,1.95-8.84,1.95-8.84S76.2,187.16,67.57,185.76Z" style="fill:#263238"></path></g></svg>